Hack-BoldOblique.ufo
<glyph name="exclam" format="1">
  <advance width="1233"/>
  <unicode hex="0021"/>
  <note>
	exclam
  </note>
  <outline>
    <contour>
      <point x="763" y="476" type="line"/>
      <point x="922" y="1051" type="line"/>
      <point x="994" y="1508" type="line"/>
      <point x="708" y="1508" type="line"/>
      <point x="637" y="1054" type="line"/>
      <point x="624" y="476" type="line"/>
    </contour>
    <contour>
      <point x="638" y="-65"/>
      <point x="663" y="-61"/>
      <point x="686" y="-52" type="curve" smooth="yes"/>
      <point x="741" y="-30"/>
      <point x="782" y="14"/>
      <point x="803" y="66" type="curve" smooth="yes"/>
      <point x="811" y="85"/>
      <point x="817" y="112"/>
      <point x="817" y="140" type="curve" smooth="yes"/>
      <point x="817" y="180"/>
      <point x="807" y="217"/>
      <point x="780" y="247" type="curve" smooth="yes"/>
      <point x="759" y="270"/>
      <point x="727" y="293"/>
      <point x="670" y="293" type="curve" smooth="yes"/>
      <point x="643" y="293"/>
      <point x="619" y="289"/>
      <point x="597" y="281" type="curve" smooth="yes"/>
      <point x="519" y="252"/>
      <point x="465" y="174"/>
      <point x="465" y="90" type="curve" smooth="yes"/>
      <point x="465" y="55"/>
      <point x="474" y="11"/>
      <point x="503" y="-22" type="curve" smooth="yes"/>
      <point x="525" y="-46"/>
      <point x="561" y="-65"/>
      <point x="612" y="-65" type="curve" smooth="yes"/>
    </contour>
  </outline>
</glyph>
<glyph name="percent" format="1">
  <advance width="1293"/>
  <unicode hex="0025"/>
  <note>
	percent
  </note>
  <outline>
    <contour>
      <point x="1252" y="873" type="line"/>
      <point x="1252" y="1018" type="line"/>
      <point x="42" y="570" type="line"/>
      <point x="42" y="431" type="line"/>
    </contour>
    <contour>
      <point x="1021" y="0"/>
      <point x="1107" y="39"/>
      <point x="1164" y="95" type="curve" smooth="yes"/>
      <point x="1226" y="156"/>
      <point x="1260" y="240"/>
      <point x="1260" y="325" type="curve" smooth="yes"/>
      <point x="1260" y="346"/>
      <point x="1258" y="371"/>
      <point x="1254" y="390" type="curve" smooth="yes"/>
      <point x="1250" y="408"/>
      <point x="1243" y="431"/>
      <point x="1234" y="451" type="curve" smooth="yes"/>
      <point x="1232" y="455"/>
      <point x="1226" y="469"/>
      <point x="1223" y="474" type="curve" smooth="yes"/>
      <point x="1221" y="477"/>
      <point x="1219" y="480"/>
      <point x="1209" y="496" type="curve" smooth="yes"/>
      <point x="1196" y="516"/>
      <point x="1196" y="516"/>
      <point x="1195" y="518" type="curve" smooth="yes"/>
      <point x="1193" y="521"/>
      <point x="1182" y="534"/>
      <point x="1179" y="538" type="curve" smooth="yes"/>
      <point x="1175" y="542"/>
      <point x="1174" y="544"/>
      <point x="1160" y="558" type="curve" smooth="yes"/>
      <point x="1135" y="583"/>
      <point x="1091" y="612"/>
      <point x="1051" y="629" type="curve" smooth="yes"/>
      <point x="1010" y="646"/>
      <point x="968" y="654"/>
      <point x="921" y="654" type="curve" smooth="yes"/>
      <point x="823" y="654"/>
      <point x="737" y="620"/>
      <point x="674" y="561" type="curve" smooth="yes"/>
      <point x="612" y="503"/>
      <point x="573" y="422"/>
      <point x="573" y="327" type="curve" smooth="yes"/>
      <point x="573" y="296"/>
      <point x="577" y="266"/>
      <point x="584" y="239" type="curve" smooth="yes"/>
      <point x="590" y="215"/>
      <point x="600" y="190"/>
      <point x="617" y="162" type="curve" smooth="yes"/>
      <point x="632" y="137"/>
      <point x="652" y="113"/>
      <point x="672" y="94" type="curve" smooth="yes"/>
      <point x="709" y="59"/>
      <point x="747" y="38"/>
      <point x="784" y="24" type="curve" smooth="yes"/>
      <point x="826" y="8"/>
      <point x="871" y="0"/>
      <point x="918" y="0" type="curve" smooth="yes"/>
    </contour>
    <contour>
      <point x="895" y="165"/>
      <point x="872" y="169"/>
      <point x="851" y="177" type="curve" smooth="yes"/>
      <point x="830" y="185"/>
      <point x="812" y="195"/>
      <point x="795" y="211" type="curve" smooth="yes"/>
      <point x="783" y="222"/>
      <point x="772" y="237"/>
      <point x="767" y="245" type="curve" smooth="yes"/>
      <point x="759" y="258"/>
      <point x="755" y="269"/>
      <point x="751" y="284" type="curve" smooth="yes"/>
      <point x="747" y="299"/>
      <point x="745" y="310"/>
      <point x="745" y="326" type="curve" smooth="yes"/>
      <point x="745" y="374"/>
      <point x="762" y="412"/>
      <point x="795" y="443" type="curve" smooth="yes"/>
      <point x="828" y="474"/>
      <point x="872" y="489"/>
      <point x="919" y="489" type="curve" smooth="yes"/>
      <point x="974" y="489"/>
      <point x="1017" y="468"/>
      <point x="1044" y="442" type="curve" smooth="yes"/>
      <point x="1076" y="411"/>
      <point x="1093" y="369"/>
      <point x="1093" y="325" type="curve" smooth="yes"/>
      <point x="1093" y="283"/>
      <point x="1077" y="243"/>
      <point x="1044" y="212" type="curve" smooth="yes"/>
      <point x="1011" y="181"/>
      <point x="969" y="165"/>
      <point x="920" y="165" type="curve" smooth="yes"/>
    </contour>
    <contour>
      <point x="419" y="778"/>
      <point x="464" y="786"/>
      <point x="506" y="802" type="curve" smooth="yes"/>
      <point x="552" y="820"/>
      <point x="590" y="846"/>
      <point x="619" y="873" type="curve" smooth="yes"/>
      <point x="652" y="904"/>
      <point x="678" y="939"/>
      <point x="695" y="978" type="curve" smooth="yes"/>
      <point x="712" y="1017"/>
      <point x="720" y="1059"/>
      <point x="720" y="1103" type="curve" smooth="yes"/>
      <point x="720" y="1149"/>
      <point x="711" y="1191"/>
      <point x="693" y="1231" type="curve" smooth="yes"/>
      <point x="674" y="1273"/>
      <point x="648" y="1308"/>
      <point x="617" y="1337" type="curve" smooth="yes"/>
      <point x="600" y="1353"/>
      <point x="581" y="1367"/>
      <point x="565" y="1377" type="curve" smooth="yes"/>
      <point x="542" y="1391"/>
      <point x="527" y="1398"/>
      <point x="504" y="1407" type="curve" smooth="yes"/>
      <point x="501" y="1408"/>
      <point x="492" y="1412"/>
      <point x="472" y="1418" type="curve" smooth="yes"/>
      <point x="455" y="1423"/>
      <point x="446" y="1425"/>
      <point x="439" y="1426" type="curve" smooth="yes"/>
      <point x="428" y="1428"/>
      <point x="416" y="1430"/>
      <point x="405" y="1431" type="curve" smooth="yes"/>
      <point x="394" y="1432"/>
      <point x="381" y="1432"/>
      <point x="379" y="1432" type="curve" smooth="yes"/>
      <point x="277" y="1432"/>
      <point x="191" y="1400"/>
      <point x="129" y="1339" type="curve" smooth="yes"/>
      <point x="70" y="1281"/>
      <point x="33" y="1198"/>
      <point x="33" y="1105" type="curve" smooth="yes"/>
      <point x="33" y="1010"/>
      <point x="72" y="926"/>
      <point x="129" y="871" type="curve" smooth="yes"/>
      <point x="195" y="807"/>
      <point x="284" y="778"/>
      <point x="373" y="778" type="curve" smooth="yes"/>
    </contour>
    <contour>
      <point x="319" y="943"/>
      <point x="274" y="961"/>
      <point x="245" y="989" type="curve" smooth="yes"/>
      <point x="214" y="1019"/>
      <point x="198" y="1060"/>
      <point x="198" y="1104" type="curve" smooth="yes"/>
      <point x="198" y="1147"/>
      <point x="214" y="1190"/>
      <point x="246" y="1220" type="curve" smooth="yes"/>
      <point x="278" y="1250"/>
      <point x="324" y="1266"/>
      <point x="371" y="1266" type="curve" smooth="yes"/>
      <point x="418" y="1266"/>
      <point x="463" y="1250"/>
      <point x="497" y="1219" type="curve" smooth="yes"/>
      <point x="531" y="1188"/>
      <point x="548" y="1149"/>
      <point x="548" y="1103" type="curve" smooth="yes"/>
      <point x="548" y="1081"/>
      <point x="544" y="1061"/>
      <point x="535" y="1042" type="curve" smooth="yes"/>
      <point x="526" y="1023"/>
      <point x="513" y="1006"/>
      <point x="496" y="990" type="curve" smooth="yes"/>
      <point x="476" y="971"/>
      <point x="458" y="962"/>
      <point x="439" y="955" type="curve" smooth="yes"/>
      <point x="418" y="947"/>
      <point x="395" y="943"/>
      <point x="371" y="943" type="curve" smooth="yes"/>
    </contour>
  </outline>
</glyph>
<glyph name="ampersand" format="1">
  <advance width="1233"/>
  <unicode hex="0026"/>
  <note>
	ampersand
  </note>
  <outline>
    <contour>
      <point x="774" y="0" type="line"/>
      <point x="1090" y="0" type="line"/>
      <point x="975" y="246" type="line"/>
      <point x="1047" y="307"/>
      <point x="1103" y="379"/>
      <point x="1143" y="463" type="curve" smooth="yes"/>
      <point x="1183" y="546"/>
      <point x="1207" y="640"/>
      <point x="1214" y="745" type="curve"/>
      <point x="979" y="745" type="line"/>
      <point x="976" y="683"/>
      <point x="967" y="626"/>
      <point x="951" y="575" type="curve" smooth="yes"/>
      <point x="935" y="524"/>
      <point x="913" y="479"/>
      <point x="885" y="440" type="curve"/>
      <point x="664" y="920" type="line" smooth="yes"/>
      <point x="637" y="978"/>
      <point x="618" y="1025"/>
      <point x="605" y="1065" type="curve" smooth="yes"/>
      <point x="592" y="1104"/>
      <point x="586" y="1133"/>
      <point x="586" y="1158" type="curve" smooth="yes"/>
      <point x="586" y="1200"/>
      <point x="602" y="1235"/>
      <point x="633" y="1259" type="curve" smooth="yes"/>
      <point x="662" y="1281"/>
      <point x="706" y="1294"/>
      <point x="769" y="1294" type="curve" smooth="yes"/>
      <point x="811" y="1294"/>
      <point x="855" y="1288"/>
      <point x="898" y="1275" type="curve" smooth="yes"/>
      <point x="941" y="1262"/>
      <point x="980" y="1244"/>
      <point x="1016" y="1221" type="curve"/>
      <point x="1065" y="1477" type="line"/>
      <point x="1019" y="1492"/>
      <point x="977" y="1502"/>
      <point x="933" y="1509" type="curve" smooth="yes"/>
      <point x="888" y="1516"/>
      <point x="843" y="1520"/>
      <point x="794" y="1520" type="curve" smooth="yes"/>
      <point x="645" y="1520"/>
      <point x="520" y="1483"/>
      <point x="432" y="1411" type="curve" smooth="yes"/>
      <point x="343" y="1338"/>
      <point x="299" y="1234"/>
      <point x="299" y="1118" type="curve" smooth="yes"/>
      <point x="299" y="1079"/>
      <point x="304" y="1053"/>
      <point x="312" y="1021" type="curve" smooth="yes"/>
      <point x="321" y="987"/>
      <point x="328" y="964"/>
      <point x="350" y="913" type="curve"/>
      <point x="226" y="843"/>
      <point x="133" y="763"/>
      <point x="66" y="666" type="curve" smooth="yes"/>
      <point x="1" y="572"/>
      <point x="-33" y="470"/>
      <point x="-33" y="361" type="curve" smooth="yes"/>
      <point x="-33" y="246"/>
      <point x="5" y="148"/>
      <point x="80" y="77" type="curve" smooth="yes"/>
      <point x="157" y="5"/>
      <point x="265" y="-29"/>
      <point x="387" y="-29" type="curve" smooth="yes"/>
      <point x="446" y="-29"/>
      <point x="504" y="-21"/>
      <point x="564" y="-4" type="curve" smooth="yes"/>
      <point x="623" y="13"/>
      <point x="682" y="39"/>
      <point x="739" y="72" type="curve"/>
    </contour>
    <contour>
      <point x="653" y="262" type="line"/>
      <point x="622" y="243"/>
      <point x="592" y="230"/>
      <point x="562" y="221" type="curve" smooth="yes"/>
      <point x="532" y="212"/>
      <point x="502" y="207"/>
      <point x="473" y="207" type="curve" smooth="yes"/>
      <point x="413" y="207"/>
      <point x="357" y="229"/>
      <point x="315" y="273" type="curve" smooth="yes"/>
      <point x="273" y="317"/>
      <point x="252" y="375"/>
      <point x="252" y="440" type="curve" smooth="yes"/>
      <point x="252" y="496"/>
      <point x="267" y="554"/>
      <point x="299" y="605" type="curve" smooth="yes"/>
      <point x="330" y="654"/>
      <point x="376" y="696"/>
      <point x="436" y="731" type="curve"/>
    </contour>
  </outline>
</glyph>
<glyph name="parenleft" format="1">
  <advance width="1233"/>
  <unicode hex="0028"/>
  <note>
	parenleft
  </note>
  <outline>
    <contour>
      <point x="784" y="1554" type="line"/>
      <point x="613" y="1361"/>
      <point x="484" y="1168"/>
      <point x="398" y="974" type="curve" smooth="yes"/>
      <point x="311" y="780"/>
      <point x="268" y="586"/>
      <point x="268" y="393" type="curve" smooth="yes"/>
      <point x="268" y="286"/>
      <point x="281" y="177"/>
      <point x="308" y="67" type="curve" smooth="yes"/>
      <point x="335" y="-43"/>
      <point x="375" y="-155"/>
      <point x="430" y="-270" type="curve"/>
      <point x="655" y="-270" type="line"/>
      <point x="617" y="-159"/>
      <point x="589" y="-53"/>
      <point x="570" y="50" type="curve" smooth="yes"/>
      <point x="551" y="152"/>
      <point x="542" y="251"/>
      <point x="542" y="346" type="curve" smooth="yes"/>
      <point x="542" y="541"/>
      <point x="581" y="740"/>
      <point x="659" y="941" type="curve" smooth="yes"/>
      <point x="737" y="1142"/>
      <point x="854" y="1346"/>
      <point x="1009" y="1554" type="curve"/>
    </contour>
  </outline>
</glyph>
<glyph name="parenright" format="1">
  <advance width="1233"/>
  <unicode hex="0029"/>
  <note>
	parenright
  </note>
  <outline>
    <contour>
      <point x="338" y="-270" type="line"/>
      <point x="509" y="-77"/>
      <point x="638" y="116"/>
      <point x="725" y="310" type="curve" smooth="yes"/>
      <point x="811" y="504"/>
      <point x="854" y="698"/>
      <point x="854" y="891" type="curve" smooth="yes"/>
      <point x="854" y="999"/>
      <point x="841" y="1108"/>
      <point x="814" y="1218" type="curve" smooth="yes"/>
      <point x="787" y="1328"/>
      <point x="746" y="1440"/>
      <point x="692" y="1554" type="curve"/>
      <point x="467" y="1554" type="line"/>
      <point x="505" y="1443"/>
      <point x="533" y="1337"/>
      <point x="552" y="1235" type="curve" smooth="yes"/>
      <point x="571" y="1132"/>
      <point x="580" y="1033"/>
      <point x="580" y="938" type="curve" smooth="yes"/>
      <point x="580" y="743"/>
      <point x="541" y="545"/>
      <point x="463" y="344" type="curve" smooth="yes"/>
      <point x="385" y="143"/>
      <point x="268" y="-62"/>
      <point x="113" y="-270" type="curve"/>
    </contour>
  </outline>
</glyph>
<glyph name="comma" format="1">
  <advance width="1233"/>
  <unicode hex="002C"/>
  <note>
	comma
  </note>
  <outline>
    <contour>
      <point x="438" y="-406" type="line"/>
      <point x="451" y="-401" type="line" smooth="yes"/>
      <point x="566" y="-359"/>
      <point x="655" y="-296"/>
      <point x="718" y="-211" type="curve" smooth="yes"/>
      <point x="749" y="-168"/>
      <point x="773" y="-122"/>
      <point x="789" y="-71" type="curve" smooth="yes"/>
      <point x="805" y="-20"/>
      <point x="813" y="34"/>
      <point x="813" y="93" type="curve" smooth="yes"/>
      <point x="813" y="134"/>
      <point x="809" y="171"/>
      <point x="801" y="204" type="curve" smooth="yes"/>
      <point x="793" y="237"/>
      <point x="781" y="265"/>
      <point x="764" y="289" type="curve"/>
      <point x="753" y="306"/>
      <point x="741" y="320"/>
      <point x="726" y="331" type="curve" smooth="yes"/>
      <point x="711" y="342"/>
      <point x="694" y="351"/>
      <point x="676" y="356" type="curve" smooth="yes"/>
      <point x="658" y="361"/>
      <point x="639" y="364"/>
      <point x="618" y="364" type="curve" smooth="yes"/>
      <point x="593" y="364"/>
      <point x="571" y="360"/>
      <point x="550" y="353" type="curve" smooth="yes"/>
      <point x="529" y="345"/>
      <point x="511" y="334"/>
      <point x="494" y="319" type="curve" smooth="yes"/>
      <point x="483" y="309"/>
      <point x="473" y="298"/>
      <point x="466" y="285" type="curve" smooth="yes"/>
      <point x="459" y="272"/>
      <point x="453" y="259"/>
      <point x="449" y="244" type="curve" smooth="yes"/>
      <point x="445" y="229"/>
      <point x="443" y="214"/>
      <point x="443" y="197" type="curve" smooth="yes"/>
      <point x="443" y="144"/>
      <point x="459" y="104"/>
      <point x="492" y="75" type="curve" smooth="yes"/>
      <point x="524" y="46"/>
      <point x="565" y="32"/>
      <point x="614" y="32" type="curve" smooth="yes"/>
      <point x="620" y="32"/>
      <point x="627" y="33"/>
      <point x="636" y="34" type="curve"/>
      <point x="625" y="-100"/>
      <point x="544" y="-201"/>
      <point x="394" y="-269" type="curve" smooth="yes"/>
      <point x="380" y="-275" type="line"/>
    </contour>
  </outline>
</glyph>
<glyph name="hyphen" format="1">
  <advance width="1233"/>
  <unicode hex="002D"/>
  <note>
	hyphen
  </note>
  <outline>
    <contour>
      <point x="299" y="745" type="line"/>
      <point x="244" y="454" type="line"/>
      <point x="872" y="454" type="line"/>
      <point x="928" y="745" type="line"/>
    </contour>
  </outline>
</glyph>
<glyph name="period" format="1">
  <advance width="1233"/>
  <unicode hex="002E"/>
  <note>
	period
  </note>
  <outline>
    <contour>
      <point x="436" y="88"/>
      <point x="453" y="44"/>
      <point x="487" y="9" type="curve" smooth="yes"/>
      <point x="522" y="-25"/>
      <point x="564" y="-42"/>
      <point x="613" y="-42" type="curve" smooth="yes"/>
      <point x="663" y="-42"/>
      <point x="705" y="-25"/>
      <point x="739" y="9" type="curve" smooth="yes"/>
      <point x="773" y="44"/>
      <point x="790" y="88"/>
      <point x="790" y="141" type="curve" smooth="yes"/>
      <point x="790" y="196"/>
      <point x="773" y="241"/>
      <point x="739" y="275" type="curve" smooth="yes"/>
      <point x="704" y="309"/>
      <point x="662" y="326"/>
      <point x="613" y="326" type="curve" smooth="yes"/>
      <point x="563" y="326"/>
      <point x="521" y="309"/>
      <point x="487" y="275" type="curve" smooth="yes"/>
      <point x="453" y="240"/>
      <point x="436" y="196"/>
      <point x="436" y="141" type="curve" smooth="yes"/>
    </contour>
  </outline>
</glyph>
<glyph name="zero" format="1">
  <advance width="1293"/>
  <unicode hex="0030"/>
  <note>
	zero
  </note>
  <outline>
    <contour>
      <point x="517" y="686"/>
      <point x="512" y="643"/>
      <point x="508" y="591" type="curve" smooth="yes"/>
      <point x="507" y="582"/>
      <point x="507" y="578"/>
      <point x="507" y="577" type="curve" smooth="yes"/>
      <point x="507" y="572"/>
      <point x="507" y="568"/>
      <point x="507" y="564" type="curve" smooth="yes"/>
      <point x="506" y="559"/>
      <point x="506" y="555"/>
      <point x="506" y="551" type="curve" smooth="yes"/>
      <point x="506" y="539" type="line" smooth="yes"/>
      <point x="506" y="461"/>
      <point x="526" y="418"/>
      <point x="565" y="409" type="curve"/>
      <point x="566" y="409"/>
      <point x="568" y="409"/>
      <point x="569" y="409" type="curve" smooth="yes"/>
      <point x="570" y="408"/>
      <point x="572" y="408"/>
      <point x="573" y="408" type="curve" smooth="yes"/>
      <point x="577" y="408" type="line" smooth="yes"/>
      <point x="600" y="409"/>
      <point x="622" y="421"/>
      <point x="641" y="445" type="curve" smooth="yes"/>
      <point x="660" y="468"/>
      <point x="680" y="503"/>
      <point x="699" y="549" type="curve" smooth="yes"/>
      <point x="730" y="624"/>
      <point x="753" y="691"/>
      <point x="768" y="749" type="curve" smooth="yes"/>
      <point x="773" y="770"/>
      <point x="778" y="796"/>
      <point x="783" y="829" type="curve" smooth="yes"/>
      <point x="790" y="876"/>
      <point x="793" y="910"/>
      <point x="793" y="931" type="curve" smooth="yes"/>
      <point x="793" y="932" type="line"/>
      <point x="793" y="945" type="line" smooth="yes"/>
      <point x="793" y="949"/>
      <point x="793" y="953"/>
      <point x="794" y="957" type="curve"/>
      <point x="794" y="958" type="line" smooth="yes"/>
      <point x="794" y="1033"/>
      <point x="773" y="1076"/>
      <point x="731" y="1085" type="curve"/>
      <point x="728" y="1085"/>
      <point x="726" y="1085"/>
      <point x="724" y="1086" type="curve" smooth="yes"/>
      <point x="722" y="1086"/>
      <point x="720" y="1086"/>
      <point x="717" y="1086" type="curve" smooth="yes"/>
      <point x="681" y="1086"/>
      <point x="643" y="1048"/>
      <point x="603" y="973" type="curve" smooth="yes"/>
      <point x="597" y="962"/>
      <point x="587" y="938"/>
      <point x="573" y="903" type="curve" smooth="yes"/>
      <point x="562" y="872"/>
      <point x="555" y="853"/>
      <point x="553" y="845" type="curve" smooth="yes"/>
      <point x="550" y="835"/>
      <point x="546" y="820"/>
      <point x="540" y="801" type="curve" smooth="yes"/>
      <point x="538" y="794"/>
      <point x="532" y="768"/>
      <point x="523" y="721" type="curve" smooth="yes"/>
    </contour>
    <contour>
      <point x="1030" y="1478"/>
      <point x="927" y="1520"/>
      <point x="787" y="1520" type="curve" smooth="yes"/>
      <point x="681" y="1520"/>
      <point x="588" y="1497"/>
      <point x="508" y="1452" type="curve" smooth="yes"/>
      <point x="481" y="1437"/>
      <point x="456" y="1420"/>
      <point x="431" y="1399" type="curve" smooth="yes"/>
      <point x="406" y="1378"/>
      <point x="383" y="1355"/>
      <point x="361" y="1329" type="curve" smooth="yes"/>
      <point x="339" y="1303"/>
      <point x="318" y="1274"/>
      <point x="299" y="1243" type="curve" smooth="yes"/>
      <point x="242" y="1150"/>
      <point x="194" y="1031"/>
      <point x="155" y="886" type="curve" smooth="yes"/>
      <point x="136" y="813"/>
      <point x="122" y="743"/>
      <point x="113" y="675" type="curve" smooth="yes"/>
      <point x="103" y="607"/>
      <point x="98" y="541"/>
      <point x="98" y="478" type="curve" smooth="yes"/>
      <point x="98" y="307"/>
      <point x="130" y="180"/>
      <point x="195" y="97" type="curve" smooth="yes"/>
      <point x="261" y="13"/>
      <point x="364" y="-29"/>
      <point x="504" y="-29" type="curve" smooth="yes"/>
      <point x="611" y="-29"/>
      <point x="704" y="-6"/>
      <point x="785" y="40" type="curve" smooth="yes"/>
      <point x="826" y="63"/>
      <point x="864" y="92"/>
      <point x="899" y="127" type="curve" smooth="yes"/>
      <point x="934" y="162"/>
      <point x="965" y="203"/>
      <point x="994" y="250" type="curve" smooth="yes"/>
      <point x="1051" y="341"/>
      <point x="1098" y="460"/>
      <point x="1137" y="606" type="curve" smooth="yes"/>
      <point x="1176" y="753"/>
      <point x="1195" y="889"/>
      <point x="1195" y="1015" type="curve" smooth="yes"/>
      <point x="1195" y="1184"/>
      <point x="1162" y="1311"/>
      <point x="1097" y="1394" type="curve" smooth="yes"/>
    </contour>
    <contour>
      <point x="346" y="268"/>
      <point x="329" y="333"/>
      <point x="329" y="422" type="curve" smooth="yes"/>
      <point x="329" y="544"/>
      <point x="345" y="672"/>
      <point x="376" y="807" type="curve" smooth="yes"/>
      <point x="408" y="941"/>
      <point x="448" y="1053"/>
      <point x="497" y="1142" type="curve" smooth="yes"/>
      <point x="529" y="1201"/>
      <point x="568" y="1247"/>
      <point x="615" y="1279" type="curve" smooth="yes"/>
      <point x="661" y="1310"/>
      <point x="710" y="1326"/>
      <point x="763" y="1326" type="curve" smooth="yes"/>
      <point x="798" y="1326"/>
      <point x="829" y="1321"/>
      <point x="854" y="1311" type="curve" smooth="yes"/>
      <point x="879" y="1300"/>
      <point x="899" y="1285"/>
      <point x="914" y="1264" type="curve" smooth="yes"/>
      <point x="920" y="1256"/>
      <point x="926" y="1247"/>
      <point x="931" y="1237" type="curve" smooth="yes"/>
      <point x="936" y="1226"/>
      <point x="941" y="1215"/>
      <point x="945" y="1202" type="curve" smooth="yes"/>
      <point x="948" y="1189"/>
      <point x="951" y="1175"/>
      <point x="954" y="1160" type="curve" smooth="yes"/>
      <point x="957" y="1145"/>
      <point x="959" y="1128"/>
      <point x="960" y="1111" type="curve" smooth="yes"/>
      <point x="961" y="1093"/>
      <point x="962" y="1074"/>
      <point x="962" y="1055" type="curve" smooth="yes"/>
      <point x="962" y="1017"/>
      <point x="960" y="978"/>
      <point x="957" y="939" type="curve" smooth="yes"/>
      <point x="954" y="899"/>
      <point x="948" y="858"/>
      <point x="941" y="816" type="curve" smooth="yes"/>
      <point x="934" y="773"/>
      <point x="925" y="730"/>
      <point x="914" y="685" type="curve" smooth="yes"/>
      <point x="906" y="652"/>
      <point x="898" y="620"/>
      <point x="889" y="589" type="curve" smooth="yes"/>
      <point x="880" y="558"/>
      <point x="870" y="529"/>
      <point x="860" y="502" type="curve" smooth="yes"/>
      <point x="850" y="474"/>
      <point x="840" y="448"/>
      <point x="829" y="423" type="curve" smooth="yes"/>
      <point x="818" y="398"/>
      <point x="806" y="374"/>
      <point x="794" y="351" type="curve" smooth="yes"/>
      <point x="762" y="290"/>
      <point x="723" y="244"/>
      <point x="677" y="212" type="curve" smooth="yes"/>
      <point x="654" y="196"/>
      <point x="631" y="184"/>
      <point x="607" y="177" type="curve" smooth="yes"/>
      <point x="582" y="169"/>
      <point x="557" y="165"/>
      <point x="530" y="165" type="curve" smooth="yes"/>
      <point x="462" y="165"/>
      <point x="412" y="185"/>
      <point x="379" y="226" type="curve" smooth="yes"/>
    </contour>
  </outline>
</glyph>
<glyph name="one" format="1">
  <advance width="1233"/>
  <unicode hex="0031"/>
  <note>
	one
  </note>
  <outline>
    <contour>
      <point x="94" y="260" type="line"/>
      <point x="43" y="0" type="line"/>
      <point x="969" y="0" type="line"/>
      <point x="1020" y="260" type="line"/>
      <point x="711" y="260" type="line"/>
      <point x="950" y="1493" type="line"/>
      <point x="668" y="1493" type="line"/>
      <point x="342" y="1419" type="line"/>
      <point x="291" y="1153" type="line"/>
      <point x="612" y="1229" type="line"/>
      <point x="424" y="260" type="line"/>
    </contour>
  </outline>
</glyph>
<glyph name="two" format="1">
  <advance width="1233"/>
  <unicode hex="0032"/>
  <note>
	two
  </note>
  <outline>
    <contour>
      <point x="354" y="260" type="line"/>
      <point x="641" y="508" type="line"/>
      <point x="681" y="542" type="line" smooth="yes"/>
      <point x="984" y="801"/>
      <point x="1135" y="1014"/>
      <point x="1135" y="1180" type="curve" smooth="yes"/>
      <point x="1135" y="1280"/>
      <point x="1095" y="1362"/>
      <point x="1014" y="1425" type="curve" smooth="yes"/>
      <point x="933" y="1488"/>
      <point x="829" y="1520"/>
      <point x="700" y="1520" type="curve" smooth="yes"/>
      <point x="633" y="1520"/>
      <point x="563" y="1513"/>
      <point x="492" y="1499" type="curve" smooth="yes"/>
      <point x="421" y="1485"/>
      <point x="349" y="1465"/>
      <point x="276" y="1438" type="curve"/>
      <point x="225" y="1171" type="line"/>
      <point x="304" y="1210"/>
      <point x="378" y="1239"/>
      <point x="447" y="1259" type="curve" smooth="yes"/>
      <point x="516" y="1278"/>
      <point x="578" y="1288"/>
      <point x="633" y="1288" type="curve" smooth="yes"/>
      <point x="699" y="1288"/>
      <point x="751" y="1275"/>
      <point x="788" y="1248" type="curve" smooth="yes"/>
      <point x="825" y="1221"/>
      <point x="844" y="1183"/>
      <point x="844" y="1135" type="curve" smooth="yes"/>
      <point x="844" y="1033"/>
      <point x="710" y="864"/>
      <point x="442" y="628" type="curve" smooth="yes"/>
      <point x="379" y="573"/>
      <point x="331" y="531"/>
      <point x="297" y="500" type="curve" smooth="yes"/>
      <point x="20" y="252" type="line"/>
      <point x="-29" y="0" type="line"/>
      <point x="920" y="0" type="line"/>
      <point x="971" y="260" type="line"/>
    </contour>
  </outline>
</glyph>
<glyph name="three" format="1">
  <advance width="1233"/>
  <unicode hex="0033"/>
  <note>
	three
  </note>
  <outline>
    <contour>
      <point x="514" y="668" type="line" smooth="yes"/>
      <point x="585" y="668"/>
      <point x="643" y="652"/>
      <point x="686" y="619" type="curve" smooth="yes"/>
      <point x="729" y="586"/>
      <point x="750" y="542"/>
      <point x="750" y="487" type="curve" smooth="yes"/>
      <point x="750" y="401"/>
      <point x="723" y="335"/>
      <point x="669" y="290" type="curve" smooth="yes"/>
      <point x="615" y="244"/>
      <point x="537" y="221"/>
      <point x="434" y="221" type="curve" smooth="yes"/>
      <point x="362" y="221"/>
      <point x="292" y="229"/>
      <point x="223" y="245" type="curve" smooth="yes"/>
      <point x="154" y="261"/>
      <point x="87" y="284"/>
      <point x="23" y="315" type="curve"/>
      <point x="-31" y="45" type="line"/>
      <point x="50" y="21"/>
      <point x="129" y="3"/>
      <point x="206" y="-10" type="curve" smooth="yes"/>
      <point x="282" y="-23"/>
      <point x="354" y="-29"/>
      <point x="422" y="-29" type="curve" smooth="yes"/>
      <point x="609" y="-29"/>
      <point x="758" y="16"/>
      <point x="867" y="107" type="curve" smooth="yes"/>
      <point x="976" y="198"/>
      <point x="1030" y="320"/>
      <point x="1030" y="473" type="curve" smooth="yes"/>
      <point x="1030" y="561"/>
      <point x="1008" y="632"/>
      <point x="964" y="687" type="curve" smooth="yes"/>
      <point x="920" y="742"/>
      <point x="853" y="781"/>
      <point x="764" y="805" type="curve"/>
      <point x="875" y="824"/>
      <point x="963" y="866"/>
      <point x="1026" y="931" type="curve" smooth="yes"/>
      <point x="1089" y="995"/>
      <point x="1120" y="1074"/>
      <point x="1120" y="1167" type="curve" smooth="yes"/>
      <point x="1120" y="1273"/>
      <point x="1079" y="1358"/>
      <point x="997" y="1423" type="curve" smooth="yes"/>
      <point x="915" y="1488"/>
      <point x="806" y="1520"/>
      <point x="670" y="1520" type="curve" smooth="yes"/>
      <point x="611" y="1520"/>
      <point x="550" y="1515"/>
      <point x="486" y="1504" type="curve" smooth="yes"/>
      <point x="421" y="1493"/>
      <point x="354" y="1477"/>
      <point x="285" y="1456" type="curve"/>
      <point x="231" y="1188" type="line"/>
      <point x="304" y="1215"/>
      <point x="374" y="1235"/>
      <point x="441" y="1249" type="curve" smooth="yes"/>
      <point x="507" y="1263"/>
      <point x="568" y="1270"/>
      <point x="623" y="1270" type="curve" smooth="yes"/>
      <point x="694" y="1270"/>
      <point x="748" y="1257"/>
      <point x="787" y="1232" type="curve" smooth="yes"/>
      <point x="825" y="1207"/>
      <point x="844" y="1171"/>
      <point x="844" y="1124" type="curve" smooth="yes"/>
      <point x="844" y="1067"/>
      <point x="818" y="1021"/>
      <point x="767" y="984" type="curve" smooth="yes"/>
      <point x="715" y="947"/>
      <point x="648" y="928"/>
      <point x="565" y="928" type="curve" smooth="yes"/>
      <point x="408" y="928" type="line"/>
      <point x="356" y="668" type="line"/>
    </contour>
  </outline>
</glyph>
<glyph name="five" format="1">
  <advance width="1233"/>
  <unicode hex="0035"/>
  <note>
	five
  </note>
  <outline>
    <contour>
      <point x="340" y="1493" type="line"/>
      <point x="178" y="659" type="line"/>
      <point x="231" y="684"/>
      <point x="285" y="704"/>
      <point x="340" y="717" type="curve" smooth="yes"/>
      <point x="395" y="730"/>
      <point x="448" y="737"/>
      <point x="500" y="737" type="curve" smooth="yes"/>
      <point x="581" y="737"/>
      <point x="646" y="717"/>
      <point x="693" y="677" type="curve" smooth="yes"/>
      <point x="740" y="636"/>
      <point x="764" y="581"/>
      <point x="764" y="512" type="curve" smooth="yes"/>
      <point x="764" y="422"/>
      <point x="731" y="351"/>
      <point x="665" y="298" type="curve" smooth="yes"/>
      <point x="598" y="245"/>
      <point x="508" y="219"/>
      <point x="393" y="219" type="curve" smooth="yes"/>
      <point x="330" y="219"/>
      <point x="270" y="226"/>
      <point x="213" y="240" type="curve" smooth="yes"/>
      <point x="156" y="254"/>
      <point x="104" y="274"/>
      <point x="57" y="301" type="curve"/>
      <point x="6" y="35" type="line"/>
      <point x="69" y="14"/>
      <point x="133" y="-2"/>
      <point x="197" y="-13" type="curve" smooth="yes"/>
      <point x="260" y="-24"/>
      <point x="324" y="-29"/>
      <point x="387" y="-29" type="curve" smooth="yes"/>
      <point x="592" y="-29"/>
      <point x="754" y="23"/>
      <point x="873" y="128" type="curve" smooth="yes"/>
      <point x="992" y="232"/>
      <point x="1051" y="373"/>
      <point x="1051" y="551" type="curve" smooth="yes"/>
      <point x="1051" y="682"/>
      <point x="1012" y="787"/>
      <point x="935" y="865" type="curve" smooth="yes"/>
      <point x="857" y="942"/>
      <point x="752" y="981"/>
      <point x="621" y="981" type="curve" smooth="yes"/>
      <point x="594" y="981"/>
      <point x="568" y="979"/>
      <point x="544" y="975" type="curve" smooth="yes"/>
      <point x="520" y="971"/>
      <point x="497" y="965"/>
      <point x="475" y="956" type="curve"/>
      <point x="528" y="1233" type="line"/>
      <point x="1100" y="1233" type="line"/>
      <point x="1151" y="1493" type="line"/>
    </contour>
  </outline>
</glyph>
<glyph name="six" format="1">
  <advance width="1233"/>
  <unicode hex="0036"/>
  <note>
	six
  </note>
  <outline>
    <contour>
      <point x="803" y="457"/>
      <point x="779" y="374"/>
      <point x="730" y="307" type="curve" smooth="yes"/>
      <point x="681" y="240"/>
      <point x="621" y="207"/>
      <point x="549" y="207" type="curve" smooth="yes"/>
      <point x="499" y="207"/>
      <point x="459" y="225"/>
      <point x="429" y="260" type="curve" smooth="yes"/>
      <point x="398" y="295"/>
      <point x="383" y="342"/>
      <point x="383" y="401" type="curve" smooth="yes"/>
      <point x="383" y="499"/>
      <point x="408" y="581"/>
      <point x="457" y="648" type="curve" smooth="yes"/>
      <point x="506" y="715"/>
      <point x="565" y="748"/>
      <point x="635" y="748" type="curve" smooth="yes"/>
      <point x="686" y="748"/>
      <point x="727" y="731"/>
      <point x="758" y="697" type="curve" smooth="yes"/>
      <point x="788" y="662"/>
      <point x="803" y="616"/>
      <point x="803" y="557" type="curve" smooth="yes"/>
    </contour>
    <contour>
      <point x="1169" y="1458" type="line"/>
      <point x="1118" y="1478"/>
      <point x="1070" y="1493"/>
      <point x="1024" y="1503" type="curve" smooth="yes"/>
      <point x="977" y="1513"/>
      <point x="932" y="1518"/>
      <point x="887" y="1518" type="curve" smooth="yes"/>
      <point x="764" y="1518"/>
      <point x="656" y="1496"/>
      <point x="563" y="1451" type="curve" smooth="yes"/>
      <point x="470" y="1406"/>
      <point x="391" y="1338"/>
      <point x="326" y="1247" type="curve" smooth="yes"/>
      <point x="253" y="1146"/>
      <point x="197" y="1028"/>
      <point x="157" y="891" type="curve" smooth="yes"/>
      <point x="116" y="754"/>
      <point x="96" y="614"/>
      <point x="96" y="469" type="curve" smooth="yes"/>
      <point x="96" y="302"/>
      <point x="134" y="176"/>
      <point x="210" y="93" type="curve" smooth="yes"/>
      <point x="286" y="9"/>
      <point x="400" y="-33"/>
      <point x="551" y="-33" type="curve" smooth="yes"/>
      <point x="706" y="-33"/>
      <point x="835" y="24"/>
      <point x="938" y="139" type="curve" smooth="yes"/>
      <point x="1041" y="253"/>
      <point x="1092" y="396"/>
      <point x="1092" y="569" type="curve" smooth="yes"/>
      <point x="1092" y="698"/>
      <point x="1060" y="799"/>
      <point x="995" y="874" type="curve" smooth="yes"/>
      <point x="930" y="948"/>
      <point x="842" y="985"/>
      <point x="731" y="985" type="curve" smooth="yes"/>
      <point x="672" y="985"/>
      <point x="617" y="974"/>
      <point x="566" y="952" type="curve" smooth="yes"/>
      <point x="515" y="930"/>
      <point x="470" y="897"/>
      <point x="430" y="854" type="curve"/>
      <point x="461" y="993"/>
      <point x="512" y="1099"/>
      <point x="583" y="1172" type="curve" smooth="yes"/>
      <point x="654" y="1244"/>
      <point x="741" y="1280"/>
      <point x="846" y="1280" type="curve" smooth="yes"/>
      <point x="894" y="1280"/>
      <point x="941" y="1272"/>
      <point x="988" y="1257" type="curve" smooth="yes"/>
      <point x="1035" y="1242"/>
      <point x="1078" y="1219"/>
      <point x="1118" y="1190" type="curve"/>
    </contour>
  </outline>
</glyph>
<glyph name="seven" format="1">
  <advance width="1233"/>
  <unicode hex="0037"/>
  <note>
	seven
  </note>
  <outline>
    <contour>
      <point x="428" y="0" type="line"/>
      <point x="1184" y="1284" type="line"/>
      <point x="1225" y="1493" type="line"/>
      <point x="262" y="1493" type="line"/>
      <point x="211" y="1233" type="line"/>
      <point x="844" y="1233" type="line"/>
      <point x="109" y="0" type="line"/>
    </contour>
  </outline>
</glyph>
<glyph name="eight" format="1">
  <advance width="1233"/>
  <unicode hex="0038"/>
  <note>
	eight
  </note>
  <outline>
    <contour>
      <point x="669" y="-29"/>
      <point x="801" y="23"/>
      <point x="892" y="107" type="curve" smooth="yes"/>
      <point x="991" y="199"/>
      <point x="1040" y="323"/>
      <point x="1040" y="461" type="curve" smooth="yes"/>
      <point x="1040" y="551"/>
      <point x="1019" y="618"/>
      <point x="979" y="673" type="curve" smooth="yes"/>
      <point x="938" y="729"/>
      <point x="882" y="767"/>
      <point x="809" y="786" type="curve"/>
      <point x="909" y="803"/>
      <point x="989" y="845"/>
      <point x="1048" y="913" type="curve" smooth="yes"/>
      <point x="1107" y="981"/>
      <point x="1137" y="1066"/>
      <point x="1137" y="1161" type="curve" smooth="yes"/>
      <point x="1137" y="1272"/>
      <point x="1096" y="1360"/>
      <point x="1025" y="1422" type="curve" smooth="yes"/>
      <point x="950" y="1487"/>
      <point x="849" y="1520"/>
      <point x="730" y="1520" type="curve" smooth="yes"/>
      <point x="586" y="1520"/>
      <point x="461" y="1471"/>
      <point x="370" y="1391" type="curve" smooth="yes"/>
      <point x="271" y="1304"/>
      <point x="223" y="1191"/>
      <point x="223" y="1075" type="curve" smooth="yes"/>
      <point x="223" y="1000"/>
      <point x="243" y="942"/>
      <point x="277" y="897" type="curve" smooth="yes"/>
      <point x="314" y="848"/>
      <point x="366" y="817"/>
      <point x="434" y="799" type="curve"/>
      <point x="318" y="772"/>
      <point x="226" y="716"/>
      <point x="162" y="639" type="curve" smooth="yes"/>
      <point x="98" y="562"/>
      <point x="63" y="465"/>
      <point x="63" y="352" type="curve" smooth="yes"/>
      <point x="63" y="232"/>
      <point x="102" y="137"/>
      <point x="178" y="71" type="curve" smooth="yes"/>
      <point x="252" y="7"/>
      <point x="362" y="-29"/>
      <point x="502" y="-29" type="curve" smooth="yes"/>
    </contour>
    <contour>
      <point x="470" y="209"/>
      <point x="419" y="226"/>
      <point x="382" y="260" type="curve" smooth="yes"/>
      <point x="343" y="296"/>
      <point x="326" y="347"/>
      <point x="326" y="405" type="curve" smooth="yes"/>
      <point x="326" y="475"/>
      <point x="351" y="544"/>
      <point x="397" y="593" type="curve" smooth="yes"/>
      <point x="444" y="643"/>
      <point x="505" y="668"/>
      <point x="579" y="668" type="curve" smooth="yes"/>
      <point x="645" y="668"/>
      <point x="693" y="648"/>
      <point x="725" y="617" type="curve" smooth="yes"/>
      <point x="758" y="585"/>
      <point x="778" y="539"/>
      <point x="778" y="474" type="curve" smooth="yes"/>
      <point x="778" y="402"/>
      <point x="754" y="334"/>
      <point x="709" y="285" type="curve" smooth="yes"/>
      <point x="663" y="235"/>
      <point x="599" y="209"/>
      <point x="528" y="209" type="curve" smooth="yes"/>
    </contour>
    <contour>
      <point x="604" y="903"/>
      <point x="562" y="917"/>
      <point x="530" y="950" type="curve" smooth="yes"/>
      <point x="500" y="981"/>
      <point x="485" y="1023"/>
      <point x="485" y="1070" type="curve" smooth="yes"/>
      <point x="485" y="1132"/>
      <point x="510" y="1186"/>
      <point x="548" y="1223" type="curve" smooth="yes"/>
      <point x="589" y="1263"/>
      <point x="643" y="1284"/>
      <point x="705" y="1284" type="curve" smooth="yes"/>
      <point x="757" y="1284"/>
      <point x="800" y="1269"/>
      <point x="831" y="1240" type="curve" smooth="yes"/>
      <point x="862" y="1210"/>
      <point x="877" y="1169"/>
      <point x="877" y="1116" type="curve" smooth="yes"/>
      <point x="877" y="1054"/>
      <point x="856" y="1003"/>
      <point x="813" y="963" type="curve" smooth="yes"/>
      <point x="770" y="923"/>
      <point x="711" y="903"/>
      <point x="653" y="903" type="curve" smooth="yes"/>
    </contour>
  </outline>
</glyph>
<glyph name="nine" format="1">
  <advance width="1233"/>
  <unicode hex="0039"/>
  <note>
	nine
  </note>
  <outline>
    <contour>
      <point x="55" y="29" type="line"/>
      <point x="106" y="9"/>
      <point x="154" y="-6"/>
      <point x="201" y="-16" type="curve" smooth="yes"/>
      <point x="248" y="-26"/>
      <point x="293" y="-31"/>
      <point x="338" y="-31" type="curve" smooth="yes"/>
      <point x="462" y="-31"/>
      <point x="570" y="-9"/>
      <point x="663" y="36" type="curve" smooth="yes"/>
      <point x="756" y="80"/>
      <point x="834" y="147"/>
      <point x="899" y="238" type="curve" smooth="yes"/>
      <point x="971" y="338"/>
      <point x="1027" y="457"/>
      <point x="1068" y="595" type="curve" smooth="yes"/>
      <point x="1108" y="732"/>
      <point x="1128" y="873"/>
      <point x="1128" y="1018" type="curve" smooth="yes"/>
      <point x="1128" y="1185"/>
      <point x="1090" y="1310"/>
      <point x="1015" y="1394" type="curve" smooth="yes"/>
      <point x="939" y="1478"/>
      <point x="825" y="1520"/>
      <point x="674" y="1520" type="curve" smooth="yes"/>
      <point x="519" y="1520"/>
      <point x="390" y="1463"/>
      <point x="288" y="1349" type="curve" smooth="yes"/>
      <point x="186" y="1234"/>
      <point x="135" y="1091"/>
      <point x="135" y="918" type="curve" smooth="yes"/>
      <point x="135" y="789"/>
      <point x="167" y="687"/>
      <point x="232" y="613" type="curve" smooth="yes"/>
      <point x="296" y="539"/>
      <point x="383" y="502"/>
      <point x="494" y="502" type="curve" smooth="yes"/>
      <point x="553" y="502"/>
      <point x="607" y="513"/>
      <point x="658" y="535" type="curve" smooth="yes"/>
      <point x="709" y="557"/>
      <point x="754" y="590"/>
      <point x="795" y="633" type="curve"/>
      <point x="763" y="494"/>
      <point x="712" y="388"/>
      <point x="641" y="316" type="curve" smooth="yes"/>
      <point x="570" y="243"/>
      <point x="483" y="207"/>
      <point x="379" y="207" type="curve" smooth="yes"/>
      <point x="331" y="207"/>
      <point x="284" y="215"/>
      <point x="237" y="230" type="curve" smooth="yes"/>
      <point x="190" y="245"/>
      <point x="147" y="268"/>
      <point x="106" y="297" type="curve"/>
    </contour>
    <contour>
      <point x="424" y="1028"/>
      <point x="448" y="1112"/>
      <point x="496" y="1179" type="curve" smooth="yes"/>
      <point x="544" y="1246"/>
      <point x="604" y="1280"/>
      <point x="676" y="1280" type="curve" smooth="yes"/>
      <point x="726" y="1280"/>
      <point x="766" y="1262"/>
      <point x="797" y="1227" type="curve" smooth="yes"/>
      <point x="827" y="1191"/>
      <point x="842" y="1144"/>
      <point x="842" y="1085" type="curve" smooth="yes"/>
      <point x="842" y="988"/>
      <point x="817" y="906"/>
      <point x="768" y="839" type="curve" smooth="yes"/>
      <point x="719" y="772"/>
      <point x="659" y="739"/>
      <point x="590" y="739" type="curve" smooth="yes"/>
      <point x="539" y="739"/>
      <point x="498" y="756"/>
      <point x="469" y="790" type="curve" smooth="yes"/>
      <point x="439" y="823"/>
      <point x="424" y="869"/>
      <point x="424" y="928" type="curve" smooth="yes"/>
    </contour>
  </outline>
</glyph>
<glyph name="colon" format="1">
  <advance width="1233"/>
  <unicode hex="003A"/>
  <note>
	colon
  </note>
  <outline>
    <contour>
      <point x="761" y="697"/>
      <point x="784" y="702"/>
      <point x="806" y="711" type="curve" smooth="yes"/>
      <point x="861" y="733"/>
      <point x="904" y="775"/>
      <point x="927" y="832" type="curve" smooth="yes"/>
      <point x="935" y="852"/>
      <point x="941" y="874"/>
      <point x="941" y="904" type="curve" smooth="yes"/>
      <point x="941" y="943"/>
      <point x="931" y="988"/>
      <point x="903" y="1019" type="curve" smooth="yes"/>
      <point x="877" y="1048"/>
      <point x="837" y="1065"/>
      <point x="788" y="1065" type="curve" smooth="yes"/>
      <point x="762" y="1065"/>
      <point x="738" y="1060"/>
      <point x="716" y="1052" type="curve" smooth="yes"/>
      <point x="631" y="1020"/>
      <point x="581" y="938"/>
      <point x="581" y="854" type="curve" smooth="yes"/>
      <point x="581" y="807"/>
      <point x="597" y="769"/>
      <point x="620" y="743" type="curve" smooth="yes"/>
      <point x="644" y="716"/>
      <point x="681" y="697"/>
      <point x="734" y="697" type="curve" smooth="yes"/>
    </contour>
    <contour>
      <point x="647" y="-15"/>
      <point x="670" y="-10"/>
      <point x="692" y="-1" type="curve" smooth="yes"/>
      <point x="747" y="21"/>
      <point x="790" y="63"/>
      <point x="813" y="120" type="curve" smooth="yes"/>
      <point x="821" y="140"/>
      <point x="827" y="162"/>
      <point x="827" y="192" type="curve" smooth="yes"/>
      <point x="827" y="231"/>
      <point x="817" y="276"/>
      <point x="789" y="307" type="curve" smooth="yes"/>
      <point x="763" y="336"/>
      <point x="723" y="353"/>
      <point x="674" y="353" type="curve" smooth="yes"/>
      <point x="648" y="353"/>
      <point x="624" y="348"/>
      <point x="602" y="340" type="curve" smooth="yes"/>
      <point x="517" y="308"/>
      <point x="467" y="226"/>
      <point x="467" y="142" type="curve" smooth="yes"/>
      <point x="467" y="95"/>
      <point x="483" y="57"/>
      <point x="506" y="31" type="curve" smooth="yes"/>
      <point x="530" y="4"/>
      <point x="567" y="-15"/>
      <point x="620" y="-15" type="curve" smooth="yes"/>
    </contour>
  </outline>
</glyph>
<glyph name="semicolon" format="1">
  <advance width="1233"/>
  <unicode hex="003B"/>
  <note>
	semicolon
  </note>
  <outline>
    <contour>
      <point x="745" y="679"/>
      <point x="768" y="683"/>
      <point x="790" y="692" type="curve" smooth="yes"/>
      <point x="812" y="701"/>
      <point x="833" y="713"/>
      <point x="852" y="730" type="curve" smooth="yes"/>
      <point x="871" y="746"/>
      <point x="886" y="765"/>
      <point x="898" y="787" type="curve" smooth="yes"/>
      <point x="911" y="809"/>
      <point x="919" y="834"/>
      <point x="924" y="861" type="curve"/>
      <point x="926" y="879" type="line" smooth="yes"/>
      <point x="927" y="885"/>
      <point x="927" y="891"/>
      <point x="927" y="897" type="curve" smooth="yes"/>
      <point x="927" y="936"/>
      <point x="915" y="968"/>
      <point x="892" y="995" type="curve" smooth="yes"/>
      <point x="863" y="1030"/>
      <point x="823" y="1047"/>
      <point x="773" y="1047" type="curve" smooth="yes"/>
      <point x="724" y="1047"/>
      <point x="680" y="1030"/>
      <point x="641" y="996" type="curve" smooth="yes"/>
      <point x="622" y="980"/>
      <point x="607" y="961"/>
      <point x="595" y="939" type="curve" smooth="yes"/>
      <point x="583" y="918"/>
      <point x="575" y="894"/>
      <point x="570" y="867" type="curve"/>
      <point x="569" y="860"/>
      <point x="569" y="854"/>
      <point x="568" y="848" type="curve" smooth="yes"/>
      <point x="567" y="842"/>
      <point x="567" y="836"/>
      <point x="567" y="830" type="curve" smooth="yes"/>
      <point x="567" y="791"/>
      <point x="578" y="758"/>
      <point x="600" y="731" type="curve" smooth="yes"/>
      <point x="629" y="696"/>
      <point x="669" y="679"/>
      <point x="720" y="679" type="curve" smooth="yes"/>
    </contour>
    <contour>
      <point x="373" y="-443" type="line"/>
      <point x="388" y="-438" type="line" smooth="yes"/>
      <point x="448" y="-417"/>
      <point x="503" y="-390"/>
      <point x="552" y="-359" type="curve" smooth="yes"/>
      <point x="601" y="-328"/>
      <point x="645" y="-291"/>
      <point x="683" y="-249" type="curve" smooth="yes"/>
      <point x="761" y="-164"/>
      <point x="809" y="-63"/>
      <point x="826" y="54" type="curve" smooth="yes"/>
      <point x="830" y="82"/>
      <point x="832" y="108"/>
      <point x="833" y="133" type="curve" smooth="yes"/>
      <point x="833" y="180"/>
      <point x="824" y="220"/>
      <point x="807" y="251" type="curve" smooth="yes"/>
      <point x="780" y="302"/>
      <point x="734" y="327"/>
      <point x="671" y="327" type="curve" smooth="yes"/>
      <point x="655" y="327"/>
      <point x="639" y="325"/>
      <point x="624" y="322" type="curve" smooth="yes"/>
      <point x="609" y="319"/>
      <point x="595" y="314"/>
      <point x="581" y="307" type="curve"/>
      <point x="567" y="301"/>
      <point x="554" y="293"/>
      <point x="541" y="283" type="curve" smooth="yes"/>
      <point x="504" y="254"/>
      <point x="481" y="214"/>
      <point x="472" y="163" type="curve" smooth="yes"/>
      <point x="470" y="150"/>
      <point x="469" y="139"/>
      <point x="470" y="128" type="curve"/>
      <point x="470" y="91"/>
      <point x="481" y="62"/>
      <point x="503" y="39" type="curve" smooth="yes"/>
      <point x="532" y="10"/>
      <point x="571" y="-5"/>
      <point x="620" y="-5" type="curve" smooth="yes"/>
      <point x="625" y="-5"/>
      <point x="632" y="-5"/>
      <point x="639" y="-4" type="curve"/>
      <point x="605" y="-137"/>
      <point x="508" y="-238"/>
      <point x="347" y="-306" type="curve" smooth="yes"/>
      <point x="335" y="-311" type="line"/>
    </contour>
  </outline>
</glyph>
<glyph name="question" format="1">
  <advance width="1233"/>
  <unicode hex="003F"/>
  <note>
	question
  </note>
  <outline>
    <contour>
      <point x="732" y="457" type="line"/>
      <point x="746" y="550" type="line"/>
      <point x="754" y="597" type="line" smooth="yes"/>
      <point x="758" y="621"/>
      <point x="768" y="650"/>
      <point x="784" y="674" type="curve" smooth="yes"/>
      <point x="791" y="685"/>
      <point x="806" y="704"/>
      <point x="820" y="718" type="curve" smooth="yes"/>
      <point x="838" y="736"/>
      <point x="873" y="768"/>
      <point x="886" y="779" type="curve" smooth="yes"/>
      <point x="988" y="865" type="line" smooth="yes"/>
      <point x="1025" y="896"/>
      <point x="1050" y="918"/>
      <point x="1081" y="951" type="curve" smooth="yes"/>
      <point x="1106" y="978"/>
      <point x="1123" y="997"/>
      <point x="1142" y="1025" type="curve" smooth="yes"/>
      <point x="1175" y="1074"/>
      <point x="1194" y="1122"/>
      <point x="1201" y="1173" type="curve" smooth="yes"/>
      <point x="1204" y="1196"/>
      <point x="1207" y="1228"/>
      <point x="1207" y="1247" type="curve" smooth="yes"/>
      <point x="1207" y="1265"/>
      <point x="1204" y="1293"/>
      <point x="1198" y="1317" type="curve" smooth="yes"/>
      <point x="1192" y="1342"/>
      <point x="1183" y="1364"/>
      <point x="1171" y="1385" type="curve"/>
      <point x="1160" y="1406"/>
      <point x="1148" y="1423"/>
      <point x="1127" y="1443" type="curve" smooth="yes"/>
      <point x="1062" y="1506"/>
      <point x="972" y="1543"/>
      <point x="833" y="1543" type="curve" smooth="yes"/>
      <point x="754" y="1543"/>
      <point x="691" y="1531"/>
      <point x="627" y="1514" type="curve" smooth="yes"/>
      <point x="597" y="1506"/>
      <point x="582" y="1501"/>
      <point x="559" y="1492" type="curve" smooth="yes"/>
      <point x="538" y="1484"/>
      <point x="511" y="1473"/>
      <point x="490" y="1463" type="curve" smooth="yes"/>
      <point x="473" y="1455"/>
      <point x="438" y="1438"/>
      <point x="421" y="1428" type="curve"/>
      <point x="414" y="1425" type="line"/>
      <point x="378" y="1197" type="line"/>
      <point x="406" y="1214" type="line" smooth="yes"/>
      <point x="475" y="1256"/>
      <point x="541" y="1291"/>
      <point x="606" y="1315" type="curve" smooth="yes"/>
      <point x="660" y="1335"/>
      <point x="718" y="1349"/>
      <point x="775" y="1349" type="curve" smooth="yes"/>
      <point x="806" y="1349"/>
      <point x="838" y="1345"/>
      <point x="864" y="1336" type="curve" smooth="yes"/>
      <point x="890" y="1327"/>
      <point x="912" y="1315"/>
      <point x="930" y="1298" type="curve" smooth="yes"/>
      <point x="957" y="1273"/>
      <point x="971" y="1237"/>
      <point x="971" y="1199" type="curve" smooth="yes"/>
      <point x="971" y="1192" type="line"/>
      <point x="970" y="1189"/>
      <point x="970" y="1187"/>
      <point x="970" y="1184" type="curve" smooth="yes"/>
      <point x="970" y="1181"/>
      <point x="970" y="1179"/>
      <point x="969" y="1176" type="curve"/>
      <point x="969" y="1173"/>
      <point x="969" y="1170"/>
      <point x="968" y="1167" type="curve"/>
      <point x="963" y="1137"/>
      <point x="951" y="1108"/>
      <point x="932" y="1081" type="curve" smooth="yes"/>
      <point x="915" y="1056"/>
      <point x="880" y="1021"/>
      <point x="832" y="980" type="curve" smooth="yes"/>
      <point x="728" y="891" type="line" smooth="yes"/>
      <point x="661" y="834"/>
      <point x="618" y="789"/>
      <point x="586" y="737" type="curve" smooth="yes"/>
      <point x="557" y="690"/>
      <point x="539" y="639"/>
      <point x="531" y="585" type="curve" smooth="yes"/>
      <point x="512" y="457" type="line"/>
    </contour>
    <contour>
      <point x="606" y="-55"/>
      <point x="652" y="-35"/>
      <point x="687" y="-3" type="curve" smooth="yes"/>
      <point x="721" y="28"/>
      <point x="747" y="73"/>
      <point x="747" y="136" type="curve" smooth="yes"/>
      <point x="747" y="157"/>
      <point x="744" y="175"/>
      <point x="738" y="192" type="curve" smooth="yes"/>
      <point x="717" y="251"/>
      <point x="669" y="279"/>
      <point x="607" y="279" type="curve" smooth="yes"/>
      <point x="562" y="279"/>
      <point x="524" y="264"/>
      <point x="494" y="240" type="curve" smooth="yes"/>
      <point x="464" y="216"/>
      <point x="445" y="185"/>
      <point x="435" y="164" type="curve" smooth="yes"/>
      <point x="427" y="148"/>
      <point x="420" y="126"/>
      <point x="420" y="113" type="curve" smooth="yes"/>
      <point x="420" y="94" type="line"/>
      <point x="420" y="83" type="line" smooth="yes"/>
      <point x="420" y="46"/>
      <point x="435" y="11"/>
      <point x="456" y="-13" type="curve" smooth="yes"/>
      <point x="478" y="-38"/>
      <point x="509" y="-55"/>
      <point x="556" y="-55" type="curve" smooth="yes"/>
    </contour>
  </outline>
</glyph>
<glyph name="at" format="1">
  <advance width="1233"/>
  <unicode hex="0040"/>
  <note>
	at
  </note>
  <outline>
    <contour>
      <point x="675" y="301"/>
      <point x="638" y="317"/>
      <point x="611" y="348" type="curve" smooth="yes"/>
      <point x="584" y="379"/>
      <point x="571" y="422"/>
      <point x="571" y="477" type="curve" smooth="yes"/>
      <point x="571" y="564"/>
      <point x="595" y="637"/>
      <point x="643" y="697" type="curve" smooth="yes"/>
      <point x="690" y="756"/>
      <point x="748" y="786"/>
      <point x="817" y="786" type="curve" smooth="yes"/>
      <point x="864" y="786"/>
      <point x="902" y="771"/>
      <point x="929" y="742" type="curve" smooth="yes"/>
      <point x="956" y="713"/>
      <point x="969" y="672"/>
      <point x="969" y="621" type="curve" smooth="yes"/>
      <point x="969" y="530"/>
      <point x="945" y="454"/>
      <point x="898" y="393" type="curve" smooth="yes"/>
      <point x="851" y="332"/>
      <point x="792" y="301"/>
      <point x="723" y="301" type="curve" smooth="yes"/>
    </contour>
    <contour>
      <point x="1067" y="135" type="line"/>
      <point x="1214" y="892" type="line" smooth="yes"/>
      <point x="1219" y="916"/>
      <point x="1223" y="939"/>
      <point x="1226" y="960" type="curve" smooth="yes"/>
      <point x="1228" y="981"/>
      <point x="1229" y="1002"/>
      <point x="1229" y="1022" type="curve" smooth="yes"/>
      <point x="1229" y="1134"/>
      <point x="1190" y="1224"/>
      <point x="1111" y="1293" type="curve" smooth="yes"/>
      <point x="1032" y="1361"/>
      <point x="928" y="1395"/>
      <point x="799" y="1395" type="curve" smooth="yes"/>
      <point x="673" y="1395"/>
      <point x="554" y="1361"/>
      <point x="442" y="1293" type="curve" smooth="yes"/>
      <point x="330" y="1224"/>
      <point x="235" y="1128"/>
      <point x="158" y="1004" type="curve" smooth="yes"/>
      <point x="102" y="913"/>
      <point x="59" y="814"/>
      <point x="30" y="709" type="curve" smooth="yes"/>
      <point x="1" y="604"/>
      <point x="-14" y="496"/>
      <point x="-14" y="387" type="curve" smooth="yes"/>
      <point x="-14" y="171"/>
      <point x="42" y="-1"/>
      <point x="154" y="-128" type="curve" smooth="yes"/>
      <point x="265" y="-255"/>
      <point x="416" y="-319"/>
      <point x="606" y="-319" type="curve" smooth="yes"/>
      <point x="669" y="-319"/>
      <point x="733" y="-310"/>
      <point x="797" y="-293" type="curve" smooth="yes"/>
      <point x="860" y="-275"/>
      <point x="928" y="-247"/>
      <point x="999" y="-209" type="curve"/>
      <point x="936" y="-35" type="line"/>
      <point x="882" y="-67"/>
      <point x="828" y="-91"/>
      <point x="774" y="-107" type="curve" smooth="yes"/>
      <point x="720" y="-123"/>
      <point x="667" y="-131"/>
      <point x="614" y="-131" type="curve" smooth="yes"/>
      <point x="481" y="-131"/>
      <point x="375" y="-84"/>
      <point x="296" y="9" type="curve" smooth="yes"/>
      <point x="217" y="102"/>
      <point x="178" y="228"/>
      <point x="178" y="387" type="curve" smooth="yes"/>
      <point x="178" y="490"/>
      <point x="194" y="591"/>
      <point x="226" y="690" type="curve" smooth="yes"/>
      <point x="258" y="789"/>
      <point x="304" y="879"/>
      <point x="365" y="961" type="curve" smooth="yes"/>
      <point x="424" y="1040"/>
      <point x="491" y="1100"/>
      <point x="566" y="1143" type="curve" smooth="yes"/>
      <point x="641" y="1185"/>
      <point x="720" y="1206"/>
      <point x="803" y="1206" type="curve" smooth="yes"/>
      <point x="873" y="1206"/>
      <point x="929" y="1188"/>
      <point x="970" y="1153" type="curve" smooth="yes"/>
      <point x="1011" y="1117"/>
      <point x="1032" y="1069"/>
      <point x="1032" y="1008" type="curve" smooth="yes"/>
      <point x="1032" y="988"/>
      <point x="1031" y="967"/>
      <point x="1028" y="945" type="curve" smooth="yes"/>
      <point x="1025" y="923"/>
      <point x="1020" y="900"/>
      <point x="1014" y="877" type="curve"/>
      <point x="995" y="908"/>
      <point x="968" y="932"/>
      <point x="933" y="949" type="curve" smooth="yes"/>
      <point x="898" y="965"/>
      <point x="857" y="973"/>
      <point x="809" y="973" type="curve" smooth="yes"/>
      <point x="687" y="973"/>
      <point x="584" y="922"/>
      <point x="499" y="820" type="curve" smooth="yes"/>
      <point x="414" y="717"/>
      <point x="371" y="592"/>
      <point x="371" y="444" type="curve" smooth="yes"/>
      <point x="371" y="342"/>
      <point x="398" y="262"/>
      <point x="451" y="203" type="curve" smooth="yes"/>
      <point x="504" y="144"/>
      <point x="577" y="115"/>
      <point x="670" y="115" type="curve" smooth="yes"/>
      <point x="710" y="115"/>
      <point x="749" y="124"/>
      <point x="787" y="142" type="curve" smooth="yes"/>
      <point x="825" y="159"/>
      <point x="858" y="184"/>
      <point x="887" y="217" type="curve"/>
      <point x="870" y="135" type="line"/>
    </contour>
  </outline>
</glyph>
<glyph name="B" format="1">
  <advance width="1233"/>
  <unicode hex="0042"/>
  <note>
	B
  </note>
  <outline>
    <contour>
      <point x="397" y="678" type="line"/>
      <point x="594" y="678" type="line" smooth="yes"/>
      <point x="668" y="678"/>
      <point x="723" y="664"/>
      <point x="758" y="637" type="curve" smooth="yes"/>
      <point x="793" y="610"/>
      <point x="811" y="572"/>
      <point x="811" y="501" type="curve" smooth="yes"/>
      <point x="811" y="419"/>
      <point x="787" y="348"/>
      <point x="738" y="303" type="curve" smooth="yes"/>
      <point x="689" y="258"/>
      <point x="612" y="236"/>
      <point x="508" y="236" type="curve" smooth="yes"/>
      <point x="311" y="236" type="line"/>
    </contour>
    <contour>
      <point x="510" y="1260" type="line"/>
      <point x="707" y="1260" type="line" smooth="yes"/>
      <point x="767" y="1260"/>
      <point x="811" y="1249"/>
      <point x="840" y="1228" type="curve" smooth="yes"/>
      <point x="869" y="1207"/>
      <point x="883" y="1176"/>
      <point x="883" y="1123" type="curve" smooth="yes"/>
      <point x="883" y="1054"/>
      <point x="860" y="1002"/>
      <point x="822" y="968" type="curve" smooth="yes"/>
      <point x="781" y="931"/>
      <point x="720" y="913"/>
      <point x="639" y="913" type="curve" smooth="yes"/>
      <point x="442" y="913" type="line"/>
    </contour>
    <contour>
      <point x="270" y="1495" type="line"/>
      <point x="-20" y="0" type="line"/>
      <point x="461" y="0" type="line" smooth="yes"/>
      <point x="591" y="0"/>
      <point x="694" y="10"/>
      <point x="771" y="30" type="curve" smooth="yes"/>
      <point x="848" y="50"/>
      <point x="911" y="82"/>
      <point x="961" y="127" type="curve" smooth="yes"/>
      <point x="1008" y="169"/>
      <point x="1044" y="224"/>
      <point x="1068" y="284" type="curve" smooth="yes"/>
      <point x="1093" y="346"/>
      <point x="1106" y="416"/>
      <point x="1106" y="480" type="curve" smooth="yes"/>
      <point x="1106" y="568"/>
      <point x="1081" y="643"/>
      <point x="1029" y="696" type="curve" smooth="yes"/>
      <point x="978" y="748"/>
      <point x="901" y="779"/>
      <point x="813" y="786" type="curve"/>
      <point x="930" y="799"/>
      <point x="1020" y="839"/>
      <point x="1083" y="905" type="curve" smooth="yes"/>
      <point x="1146" y="971"/>
      <point x="1178" y="1059"/>
      <point x="1178" y="1164" type="curve" smooth="yes"/>
      <point x="1178" y="1275"/>
      <point x="1142" y="1357"/>
      <point x="1071" y="1412" type="curve" smooth="yes"/>
      <point x="999" y="1467"/>
      <point x="893" y="1495"/>
      <point x="752" y="1495" type="curve" smooth="yes"/>
    </contour>
  </outline>
</glyph>
<glyph name="C" format="1">
  <advance width="1233"/>
  <unicode hex="0043"/>
  <note>
	C
  </note>
  <outline>
    <contour>
      <point x="1010" y="371" type="line"/>
      <point x="949" y="324"/>
      <point x="893" y="289"/>
      <point x="836" y="265" type="curve" smooth="yes"/>
      <point x="781" y="242"/>
      <point x="729" y="231"/>
      <point x="677" y="231" type="curve" smooth="yes"/>
      <point x="596" y="231"/>
      <point x="535" y="257"/>
      <point x="493" y="308" type="curve" smooth="yes"/>
      <point x="448" y="363"/>
      <point x="430" y="443"/>
      <point x="430" y="537" type="curve" smooth="yes"/>
      <point x="430" y="617"/>
      <point x="443" y="712"/>
      <point x="473" y="819" type="curve" smooth="yes"/>
      <point x="501" y="918"/>
      <point x="537" y="1002"/>
      <point x="584" y="1074" type="curve" smooth="yes"/>
      <point x="616" y="1123"/>
      <point x="659" y="1175"/>
      <point x="715" y="1210" type="curve" smooth="yes"/>
      <point x="768" y="1243"/>
      <point x="825" y="1257"/>
      <point x="879" y="1257" type="curve" smooth="yes"/>
      <point x="927" y="1257"/>
      <point x="984" y="1246"/>
      <point x="1033" y="1223" type="curve" smooth="yes"/>
      <point x="1081" y="1200"/>
      <point x="1122" y="1165"/>
      <point x="1155" y="1120" type="curve"/>
      <point x="1219" y="1448" type="line"/>
      <point x="1165" y="1474"/>
      <point x="1107" y="1492"/>
      <point x="1064" y="1502" type="curve" smooth="yes"/>
      <point x="1011" y="1514"/>
      <point x="959" y="1520"/>
      <point x="903" y="1520" type="curve" smooth="yes"/>
      <point x="802" y="1520"/>
      <point x="707" y="1501"/>
      <point x="620" y="1463" type="curve" smooth="yes"/>
      <point x="531" y="1424"/>
      <point x="456" y="1367"/>
      <point x="393" y="1296" type="curve" smooth="yes"/>
      <point x="312" y="1205"/>
      <point x="248" y="1087"/>
      <point x="202" y="948" type="curve" smooth="yes"/>
      <point x="154" y="803"/>
      <point x="131" y="652"/>
      <point x="131" y="517" type="curve" smooth="yes"/>
      <point x="131" y="346"/>
      <point x="168" y="204"/>
      <point x="257" y="108" type="curve" smooth="yes"/>
      <point x="345" y="13"/>
      <point x="477" y="-29"/>
      <point x="624" y="-29" type="curve" smooth="yes"/>
      <point x="679" y="-29"/>
      <point x="735" y="-23"/>
      <point x="789" y="-11" type="curve" smooth="yes"/>
      <point x="838" y="0"/>
      <point x="893" y="18"/>
      <point x="946" y="43" type="curve"/>
    </contour>
  </outline>
</glyph>
<glyph name="G" format="1">
  <advance width="1233"/>
  <unicode hex="0047"/>
  <note>
	G
  </note>
  <outline>
    <contour>
      <point x="1130" y="803" type="line"/>
      <point x="670" y="803" type="line"/>
      <point x="621" y="555" type="line"/>
      <point x="827" y="555" type="line"/>
      <point x="770" y="264" type="line"/>
      <point x="754" y="253"/>
      <point x="736" y="245"/>
      <point x="715" y="240" type="curve" smooth="yes"/>
      <point x="694" y="234"/>
      <point x="671" y="231"/>
      <point x="647" y="231" type="curve" smooth="yes"/>
      <point x="570" y="231"/>
      <point x="510" y="257"/>
      <point x="467" y="310" type="curve" smooth="yes"/>
      <point x="424" y="362"/>
      <point x="403" y="436"/>
      <point x="403" y="532" type="curve" smooth="yes"/>
      <point x="403" y="584"/>
      <point x="409" y="641"/>
      <point x="420" y="702" type="curve" smooth="yes"/>
      <point x="431" y="763"/>
      <point x="448" y="826"/>
      <point x="469" y="891" type="curve" smooth="yes"/>
      <point x="486" y="942"/>
      <point x="506" y="989"/>
      <point x="529" y="1031" type="curve" smooth="yes"/>
      <point x="552" y="1073"/>
      <point x="577" y="1110"/>
      <point x="604" y="1141" type="curve" smooth="yes"/>
      <point x="639" y="1179"/>
      <point x="678" y="1208"/>
      <point x="721" y="1228" type="curve" smooth="yes"/>
      <point x="764" y="1247"/>
      <point x="809" y="1257"/>
      <point x="856" y="1257" type="curve" smooth="yes"/>
      <point x="910" y="1257"/>
      <point x="960" y="1245"/>
      <point x="1006" y="1222" type="curve" smooth="yes"/>
      <point x="1052" y="1199"/>
      <point x="1092" y="1165"/>
      <point x="1126" y="1120" type="curve"/>
      <point x="1192" y="1448" type="line"/>
      <point x="1141" y="1472"/>
      <point x="1089" y="1490"/>
      <point x="1037" y="1502" type="curve" smooth="yes"/>
      <point x="984" y="1514"/>
      <point x="931" y="1520"/>
      <point x="877" y="1520" type="curve" smooth="yes"/>
      <point x="776" y="1520"/>
      <point x="682" y="1501"/>
      <point x="595" y="1463" type="curve" smooth="yes"/>
      <point x="508" y="1424"/>
      <point x="432" y="1368"/>
      <point x="367" y="1294" type="curve" smooth="yes"/>
      <point x="287" y="1204"/>
      <point x="223" y="1089"/>
      <point x="175" y="949" type="curve" smooth="yes"/>
      <point x="126" y="809"/>
      <point x="102" y="667"/>
      <point x="102" y="524" type="curve" smooth="yes"/>
      <point x="102" y="349"/>
      <point x="146" y="213"/>
      <point x="235" y="116" type="curve" smooth="yes"/>
      <point x="324" y="19"/>
      <point x="449" y="-29"/>
      <point x="610" y="-29" type="curve" smooth="yes"/>
      <point x="687" y="-29"/>
      <point x="758" y="-18"/>
      <point x="823" y="3" type="curve" smooth="yes"/>
      <point x="888" y="24"/>
      <point x="944" y="55"/>
      <point x="991" y="94" type="curve"/>
    </contour>
  </outline>
</glyph>
<glyph name="J" format="1">
  <advance width="1233"/>
  <unicode hex="004A"/>
  <note>
	J
  </note>
  <outline>
    <contour>
      <point x="-20" y="78" type="line"/>
      <point x="50" y="42"/>
      <point x="121" y="15"/>
      <point x="192" y="-3" type="curve" smooth="yes"/>
      <point x="263" y="-20"/>
      <point x="336" y="-29"/>
      <point x="410" y="-29" type="curve" smooth="yes"/>
      <point x="485" y="-29"/>
      <point x="553" y="-20"/>
      <point x="614" y="-1" type="curve" smooth="yes"/>
      <point x="675" y="18"/>
      <point x="727" y="45"/>
      <point x="772" y="82" type="curve" smooth="yes"/>
      <point x="817" y="119"/>
      <point x="853" y="166"/>
      <point x="880" y="223" type="curve" smooth="yes"/>
      <point x="907" y="280"/>
      <point x="932" y="366"/>
      <point x="954" y="479" type="curve" smooth="yes"/>
      <point x="1153" y="1493" type="line"/>
      <point x="498" y="1493" type="line"/>
      <point x="446" y="1233" type="line"/>
      <point x="807" y="1233" type="line"/>
      <point x="659" y="479" type="line" smooth="yes"/>
      <point x="641" y="386"/>
      <point x="613" y="321"/>
      <point x="576" y="285" type="curve" smooth="yes"/>
      <point x="538" y="249"/>
      <point x="480" y="231"/>
      <point x="403" y="231" type="curve" smooth="yes"/>
      <point x="334" y="231"/>
      <point x="271" y="247"/>
      <point x="212" y="279" type="curve" smooth="yes"/>
      <point x="153" y="310"/>
      <point x="97" y="358"/>
      <point x="45" y="422" type="curve"/>
    </contour>
  </outline>
</glyph>
<glyph name="O" format="1">
  <advance width="1233"/>
  <unicode hex="004F"/>
  <note>
	O
  </note>
  <outline>
    <contour>
      <point x="868" y="970"/>
      <point x="863" y="912"/>
      <point x="853" y="846" type="curve" smooth="yes"/>
      <point x="843" y="779"/>
      <point x="828" y="708"/>
      <point x="809" y="631" type="curve" smooth="yes"/>
      <point x="796" y="576"/>
      <point x="782" y="526"/>
      <point x="767" y="483" type="curve" smooth="yes"/>
      <point x="752" y="439"/>
      <point x="736" y="402"/>
      <point x="721" y="373" type="curve" smooth="yes"/>
      <point x="696" y="327"/>
      <point x="668" y="292"/>
      <point x="635" y="269" type="curve" smooth="yes"/>
      <point x="602" y="245"/>
      <point x="565" y="233"/>
      <point x="526" y="233" type="curve" smooth="yes"/>
      <point x="472" y="233"/>
      <point x="432" y="253"/>
      <point x="405" y="292" type="curve" smooth="yes"/>
      <point x="378" y="331"/>
      <point x="365" y="391"/>
      <point x="365" y="471" type="curve" smooth="yes"/>
      <point x="365" y="521"/>
      <point x="370" y="579"/>
      <point x="380" y="646" type="curve" smooth="yes"/>
      <point x="390" y="712"/>
      <point x="405" y="783"/>
      <point x="424" y="860" type="curve" smooth="yes"/>
      <point x="439" y="921"/>
      <point x="454" y="974"/>
      <point x="469" y="1017" type="curve" smooth="yes"/>
      <point x="483" y="1060"/>
      <point x="497" y="1094"/>
      <point x="512" y="1120" type="curve" smooth="yes"/>
      <point x="536" y="1166"/>
      <point x="565" y="1201"/>
      <point x="598" y="1225" type="curve" smooth="yes"/>
      <point x="631" y="1248"/>
      <point x="668" y="1260"/>
      <point x="707" y="1260" type="curve" smooth="yes"/>
      <point x="761" y="1260"/>
      <point x="801" y="1240"/>
      <point x="828" y="1200" type="curve" smooth="yes"/>
      <point x="855" y="1160"/>
      <point x="868" y="1100"/>
      <point x="868" y="1020" type="curve" smooth="yes"/>
    </contour>
    <contour>
      <point x="61" y="304"/>
      <point x="99" y="182"/>
      <point x="174" y="98" type="curve" smooth="yes"/>
      <point x="249" y="13"/>
      <point x="359" y="-29"/>
      <point x="504" y="-29" type="curve" smooth="yes"/>
      <point x="608" y="-29"/>
      <point x="702" y="-4"/>
      <point x="786" y="47" type="curve" smooth="yes"/>
      <point x="869" y="98"/>
      <point x="937" y="170"/>
      <point x="989" y="264" type="curve" smooth="yes"/>
      <point x="1045" y="365"/>
      <point x="1089" y="484"/>
      <point x="1122" y="622" type="curve" smooth="yes"/>
      <point x="1155" y="759"/>
      <point x="1171" y="895"/>
      <point x="1171" y="1030" type="curve" smooth="yes"/>
      <point x="1171" y="1189"/>
      <point x="1133" y="1310"/>
      <point x="1058" y="1394" type="curve" smooth="yes"/>
      <point x="982" y="1478"/>
      <point x="872" y="1520"/>
      <point x="729" y="1520" type="curve" smooth="yes"/>
      <point x="625" y="1520"/>
      <point x="531" y="1495"/>
      <point x="448" y="1445" type="curve" smooth="yes"/>
      <point x="365" y="1394"/>
      <point x="297" y="1322"/>
      <point x="246" y="1229" type="curve" smooth="yes"/>
      <point x="189" y="1126"/>
      <point x="144" y="1007"/>
      <point x="111" y="870" type="curve" smooth="yes"/>
      <point x="78" y="733"/>
      <point x="61" y="598"/>
      <point x="61" y="465" type="curve" smooth="yes"/>
    </contour>
  </outline>
</glyph>
<glyph name="P" format="1">
  <advance width="1233"/>
  <unicode hex="0050"/>
  <note>
	P
  </note>
  <outline>
    <contour>
      <point x="553" y="1245" type="line"/>
      <point x="674" y="1245" type="line" smooth="yes"/>
      <point x="757" y="1245"/>
      <point x="816" y="1232"/>
      <point x="851" y="1207" type="curve" smooth="yes"/>
      <point x="887" y="1181"/>
      <point x="903" y="1138"/>
      <point x="903" y="1071" type="curve" smooth="yes"/>
      <point x="903" y="990"/>
      <point x="879" y="920"/>
      <point x="831" y="875" type="curve" smooth="yes"/>
      <point x="785" y="832"/>
      <point x="712" y="807"/>
      <point x="612" y="807" type="curve" smooth="yes"/>
      <point x="469" y="807" type="line"/>
    </contour>
    <contour>
      <point x="307" y="1493" type="line"/>
      <point x="16" y="0" type="line"/>
      <point x="311" y="0" type="line"/>
      <point x="420" y="559" type="line"/>
      <point x="584" y="559" type="line" smooth="yes"/>
      <point x="707" y="559"/>
      <point x="808" y="573"/>
      <point x="885" y="600" type="curve" smooth="yes"/>
      <point x="962" y="627"/>
      <point x="1027" y="670"/>
      <point x="1079" y="731" type="curve" smooth="yes"/>
      <point x="1117" y="776"/>
      <point x="1149" y="831"/>
      <point x="1174" y="909" type="curve" smooth="yes"/>
      <point x="1198" y="984"/>
      <point x="1210" y="1062"/>
      <point x="1210" y="1129" type="curve" smooth="yes"/>
      <point x="1210" y="1251"/>
      <point x="1171" y="1340"/>
      <point x="1087" y="1402" type="curve" smooth="yes"/>
      <point x="1004" y="1463"/>
      <point x="884" y="1493"/>
      <point x="727" y="1493" type="curve" smooth="yes"/>
    </contour>
  </outline>
</glyph>
<glyph name="Q" format="1">
  <advance width="1233"/>
  <unicode hex="0051"/>
  <note>
	Q
  </note>
  <outline>
    <contour>
      <point x="535" y="-29" type="line"/>
      <point x="671" y="-281" type="line" smooth="yes"/>
      <point x="1015" y="-281" type="line"/>
      <point x="776" y="39" type="line"/>
      <point x="825" y="70"/>
      <point x="867" y="104"/>
      <point x="902" y="141" type="curve" smooth="yes"/>
      <point x="933" y="174"/>
      <point x="962" y="213"/>
      <point x="990" y="262" type="curve" smooth="yes"/>
      <point x="1046" y="361"/>
      <point x="1091" y="494"/>
      <point x="1122" y="627" type="curve" smooth="yes"/>
      <point x="1157" y="777"/>
      <point x="1171" y="914"/>
      <point x="1171" y="1024" type="curve" smooth="yes"/>
      <point x="1171" y="1191"/>
      <point x="1139" y="1310"/>
      <point x="1057" y="1397" type="curve" smooth="yes"/>
      <point x="983" y="1475"/>
      <point x="873" y="1520"/>
      <point x="732" y="1520" type="curve" smooth="yes"/>
      <point x="623" y="1520"/>
      <point x="528" y="1493"/>
      <point x="448" y="1445" type="curve" smooth="yes"/>
      <point x="358" y="1391"/>
      <point x="294" y="1314"/>
      <point x="244" y="1226" type="curve" smooth="yes"/>
      <point x="191" y="1133"/>
      <point x="144" y="1008"/>
      <point x="111" y="870" type="curve" smooth="yes"/>
      <point x="78" y="732"/>
      <point x="61" y="591"/>
      <point x="61" y="474" type="curve" smooth="yes"/>
      <point x="61" y="306"/>
      <point x="96" y="181"/>
      <point x="176" y="95" type="curve" smooth="yes"/>
      <point x="252" y="14"/>
      <point x="363" y="-29"/>
      <point x="508" y="-29" type="curve" smooth="yes"/>
    </contour>
    <contour>
      <point x="868" y="970"/>
      <point x="863" y="912"/>
      <point x="853" y="846" type="curve" smooth="yes"/>
      <point x="843" y="782"/>
      <point x="830" y="716"/>
      <point x="809" y="630" type="curve" smooth="yes"/>
      <point x="795" y="572"/>
      <point x="781" y="523"/>
      <point x="767" y="483" type="curve" smooth="yes"/>
      <point x="753" y="442"/>
      <point x="736" y="401"/>
      <point x="721" y="373" type="curve" smooth="yes"/>
      <point x="696" y="326"/>
      <point x="667" y="292"/>
      <point x="635" y="269" type="curve" smooth="yes"/>
      <point x="602" y="245"/>
      <point x="565" y="233"/>
      <point x="525" y="233" type="curve" smooth="yes"/>
      <point x="475" y="233"/>
      <point x="433" y="251"/>
      <point x="405" y="292" type="curve" smooth="yes"/>
      <point x="378" y="331"/>
      <point x="365" y="391"/>
      <point x="365" y="471" type="curve" smooth="yes"/>
      <point x="365" y="521"/>
      <point x="370" y="579"/>
      <point x="380" y="646" type="curve" smooth="yes"/>
      <point x="390" y="711"/>
      <point x="403" y="775"/>
      <point x="424" y="860" type="curve" smooth="yes"/>
      <point x="442" y="932"/>
      <point x="450" y="960"/>
      <point x="469" y="1017" type="curve" smooth="yes"/>
      <point x="482" y="1056"/>
      <point x="494" y="1088"/>
      <point x="512" y="1121" type="curve" smooth="yes"/>
      <point x="536" y="1165"/>
      <point x="566" y="1202"/>
      <point x="598" y="1225" type="curve" smooth="yes"/>
      <point x="626" y="1245"/>
      <point x="663" y="1260"/>
      <point x="708" y="1260" type="curve" smooth="yes"/>
      <point x="760" y="1260"/>
      <point x="801" y="1240"/>
      <point x="828" y="1200" type="curve" smooth="yes"/>
      <point x="855" y="1160"/>
      <point x="868" y="1100"/>
      <point x="868" y="1020" type="curve" smooth="yes"/>
    </contour>
  </outline>
</glyph>
<glyph name="R" format="1">
  <advance width="1233"/>
  <unicode hex="0052"/>
  <note>
	R
  </note>
  <outline>
    <contour>
      <point x="909" y="718"/>
      <point x="1002" y="763"/>
      <point x="1067" y="838" type="curve" smooth="yes"/>
      <point x="1132" y="913"/>
      <point x="1165" y="1012"/>
      <point x="1165" y="1137" type="curve" smooth="yes"/>
      <point x="1165" y="1258"/>
      <point x="1128" y="1347"/>
      <point x="1053" y="1406" type="curve" smooth="yes"/>
      <point x="978" y="1464"/>
      <point x="864" y="1493"/>
      <point x="709" y="1493" type="curve" smooth="yes"/>
      <point x="299" y="1493" type="line"/>
      <point x="8" y="0" type="line"/>
      <point x="303" y="0" type="line"/>
      <point x="418" y="590" type="line"/>
      <point x="535" y="590" type="line" smooth="yes"/>
      <point x="605" y="590"/>
      <point x="658" y="528"/>
      <point x="693" y="403" type="curve" smooth="yes"/>
      <point x="696" y="392"/>
      <point x="699" y="383"/>
      <point x="701" y="376" type="curve" smooth="yes"/>
      <point x="807" y="0" type="line"/>
      <point x="1108" y="0" type="line"/>
      <point x="944" y="537" type="line" smooth="yes"/>
      <point x="926" y="595"/>
      <point x="906" y="636"/>
      <point x="883" y="660" type="curve" smooth="yes"/>
      <point x="860" y="684"/>
      <point x="829" y="699"/>
      <point x="788" y="705" type="curve"/>
    </contour>
    <contour>
      <point x="547" y="1245" type="line"/>
      <point x="680" y="1245" type="line" smooth="yes"/>
      <point x="741" y="1245"/>
      <point x="787" y="1232"/>
      <point x="818" y="1207" type="curve" smooth="yes"/>
      <point x="849" y="1181"/>
      <point x="864" y="1142"/>
      <point x="864" y="1090" type="curve" smooth="yes"/>
      <point x="864" y="1007"/>
      <point x="841" y="945"/>
      <point x="795" y="902" type="curve" smooth="yes"/>
      <point x="748" y="859"/>
      <point x="680" y="838"/>
      <point x="590" y="838" type="curve" smooth="yes"/>
      <point x="467" y="838" type="line"/>
    </contour>
  </outline>
</glyph>
<glyph name="S" format="1">
  <advance width="1233"/>
  <unicode hex="0053"/>
  <note>
	S
  </note>
  <outline>
    <contour>
      <point x="625" y="614" type="line" smooth="yes"/>
      <point x="671" y="595"/>
      <point x="706" y="570"/>
      <point x="729" y="540" type="curve" smooth="yes"/>
      <point x="752" y="509"/>
      <point x="764" y="473"/>
      <point x="764" y="432" type="curve" smooth="yes"/>
      <point x="764" y="365"/>
      <point x="739" y="313"/>
      <point x="688" y="274" type="curve" smooth="yes"/>
      <point x="637" y="235"/>
      <point x="568" y="215"/>
      <point x="479" y="215" type="curve" smooth="yes"/>
      <point x="408" y="215"/>
      <point x="337" y="229"/>
      <point x="266" y="258" type="curve" smooth="yes"/>
      <point x="195" y="286"/>
      <point x="128" y="327"/>
      <point x="63" y="381" type="curve"/>
      <point x="4" y="76" type="line"/>
      <point x="87" y="41"/>
      <point x="166" y="14"/>
      <point x="243" y="-3" type="curve" smooth="yes"/>
      <point x="319" y="-20"/>
      <point x="394" y="-29"/>
      <point x="467" y="-29" type="curve" smooth="yes"/>
      <point x="650" y="-29"/>
      <point x="795" y="17"/>
      <point x="902" y="108" type="curve" smooth="yes"/>
      <point x="1009" y="199"/>
      <point x="1063" y="322"/>
      <point x="1063" y="475" type="curve" smooth="yes"/>
      <point x="1063" y="564"/>
      <point x="1041" y="639"/>
      <point x="996" y="700" type="curve" smooth="yes"/>
      <point x="951" y="761"/>
      <point x="879" y="813"/>
      <point x="782" y="856" type="curve" smooth="yes"/>
      <point x="666" y="907" type="line"/>
      <point x="659" y="910" type="line" smooth="yes"/>
      <point x="536" y="965"/>
      <point x="475" y="1021"/>
      <point x="475" y="1077" type="curve" smooth="yes"/>
      <point x="475" y="1136"/>
      <point x="500" y="1184"/>
      <point x="549" y="1222" type="curve" smooth="yes"/>
      <point x="598" y="1259"/>
      <point x="662" y="1278"/>
      <point x="741" y="1278" type="curve" smooth="yes"/>
      <point x="815" y="1278"/>
      <point x="882" y="1268"/>
      <point x="943" y="1247" type="curve" smooth="yes"/>
      <point x="1004" y="1226"/>
      <point x="1057" y="1194"/>
      <point x="1102" y="1153" type="curve"/>
      <point x="1159" y="1438" type="line"/>
      <point x="1098" y="1465"/>
      <point x="1036" y="1486"/>
      <point x="971" y="1500" type="curve" smooth="yes"/>
      <point x="906" y="1513"/>
      <point x="839" y="1520"/>
      <point x="770" y="1520" type="curve" smooth="yes"/>
      <point x="599" y="1520"/>
      <point x="459" y="1473"/>
      <point x="352" y="1380" type="curve" smooth="yes"/>
      <point x="244" y="1287"/>
      <point x="190" y="1167"/>
      <point x="190" y="1020" type="curve" smooth="yes"/>
      <point x="190" y="936"/>
      <point x="211" y="869"/>
      <point x="252" y="819" type="curve" smooth="yes"/>
      <point x="293" y="769"/>
      <point x="378" y="717"/>
      <point x="506" y="664" type="curve" smooth="yes"/>
    </contour>
  </outline>
</glyph>
<glyph name="Z" format="1">
  <advance width="1233"/>
  <unicode hex="005A"/>
  <note>
	Z
  </note>
  <outline>
    <contour>
      <point x="281" y="1493" type="line"/>
      <point x="229" y="1233" type="line"/>
      <point x="872" y="1233" type="line"/>
      <point x="14" y="244" type="line"/>
      <point x="-33" y="0" type="line"/>
      <point x="1014" y="0" type="line"/>
      <point x="1065" y="260" type="line"/>
      <point x="365" y="260" type="line"/>
      <point x="1241" y="1249" type="line"/>
      <point x="1290" y="1493" type="line"/>
    </contour>
  </outline>
</glyph>
<glyph name="bracketleft" format="1">
  <advance width="1233"/>
  <unicode hex="005B"/>
  <note>
	bracketleft
  </note>
  <outline>
    <contour>
      <point x="857" y="-285" type="line"/>
      <point x="885" y="-112" type="line"/>
      <point x="645" y="-112" type="line"/>
      <point x="896" y="1478" type="line"/>
      <point x="1136" y="1478" type="line"/>
      <point x="1164" y="1651" type="line"/>
      <point x="709" y="1651" type="line"/>
      <point x="402" y="-285" type="line"/>
    </contour>
  </outline>
</glyph>
<glyph name="bracketright" format="1">
  <advance width="1233"/>
  <unicode hex="005D"/>
  <note>
	bracketright
  </note>
  <outline>
    <contour>
      <point x="740" y="-285" type="line"/>
      <point x="1047" y="1650" type="line"/>
      <point x="592" y="1650" type="line"/>
      <point x="564" y="1477" type="line"/>
      <point x="804" y="1477" type="line"/>
      <point x="553" y="-112" type="line"/>
      <point x="313" y="-112" type="line"/>
      <point x="285" y="-285" type="line"/>
    </contour>
  </outline>
</glyph>
<glyph name="asciicircum" format="1">
  <advance width="1233"/>
  <unicode hex="005E"/>
  <note>
	asciicircum
  </note>
  <outline>
    <contour>
      <point x="299" y="936" type="line"/>
      <point x="616" y="1237" type="line"/>
      <point x="934" y="936" type="line"/>
      <point x="1176" y="936" type="line"/>
      <point x="739" y="1493" type="line"/>
      <point x="494" y="1493" type="line"/>
      <point x="57" y="936" type="line"/>
    </contour>
  </outline>
</glyph>
<glyph name="b" format="1">
  <advance width="1233"/>
  <unicode hex="0062"/>
  <note>
	b
  </note>
  <outline>
    <contour>
      <point x="550" y="209"/>
      <point x="507" y="231"/>
      <point x="478" y="269" type="curve" smooth="yes"/>
      <point x="450" y="306"/>
      <point x="434" y="360"/>
      <point x="434" y="444" type="curve" smooth="yes"/>
      <point x="434" y="558"/>
      <point x="464" y="680"/>
      <point x="516" y="769" type="curve" smooth="yes"/>
      <point x="572" y="864"/>
      <point x="644" y="907"/>
      <point x="714" y="907" type="curve" smooth="yes"/>
      <point x="761" y="907"/>
      <point x="801" y="888"/>
      <point x="829" y="851" type="curve" smooth="yes"/>
      <point x="857" y="814"/>
      <point x="870" y="762"/>
      <point x="870" y="682" type="curve" smooth="yes"/>
      <point x="870" y="564"/>
      <point x="842" y="442"/>
      <point x="792" y="351" type="curve" smooth="yes"/>
      <point x="743" y="262"/>
      <point x="675" y="209"/>
      <point x="599" y="209" type="curve" smooth="yes"/>
    </contour>
    <contour>
      <point x="381" y="207" type="line"/>
      <point x="393" y="127"/>
      <point x="425" y="73"/>
      <point x="470" y="34" type="curve" smooth="yes"/>
      <point x="515" y="-5"/>
      <point x="574" y="-29"/>
      <point x="651" y="-29" type="curve" smooth="yes"/>
      <point x="729" y="-29"/>
      <point x="808" y="-4"/>
      <point x="876" y="43" type="curve" smooth="yes"/>
      <point x="944" y="90"/>
      <point x="1004" y="160"/>
      <point x="1049" y="244" type="curve" smooth="yes"/>
      <point x="1089" y="319"/>
      <point x="1118" y="407"/>
      <point x="1135" y="479" type="curve" smooth="yes"/>
      <point x="1155" y="565"/>
      <point x="1165" y="655"/>
      <point x="1165" y="732" type="curve" smooth="yes"/>
      <point x="1165" y="855"/>
      <point x="1140" y="962"/>
      <point x="1081" y="1038" type="curve" smooth="yes"/>
      <point x="1024" y="1111"/>
      <point x="942" y="1147"/>
      <point x="848" y="1147" type="curve" smooth="yes"/>
      <point x="786" y="1147"/>
      <point x="725" y="1131"/>
      <point x="670" y="1098" type="curve" smooth="yes"/>
      <point x="615" y="1065"/>
      <point x="566" y="1016"/>
      <point x="524" y="952" type="curve"/>
      <point x="643" y="1556" type="line"/>
      <point x="350" y="1556" type="line"/>
      <point x="47" y="0" type="line"/>
      <point x="340" y="0" type="line"/>
    </contour>
  </outline>
</glyph>
<glyph name="c" format="1">
  <advance width="1233"/>
  <unicode hex="0063"/>
  <note>
	c
  </note>
  <outline>
    <contour>
      <point x="673" y="-29"/>
      <point x="728" y="-24"/>
      <point x="783" y="-13" type="curve" smooth="yes"/>
      <point x="837" y="-2"/>
      <point x="890" y="15"/>
      <point x="941" y="37" type="curve"/>
      <point x="997" y="313" type="line"/>
      <point x="931" y="275"/>
      <point x="876" y="251"/>
      <point x="827" y="235" type="curve" smooth="yes"/>
      <point x="774" y="218"/>
      <point x="726" y="209"/>
      <point x="675" y="209" type="curve" smooth="yes"/>
      <point x="596" y="209"/>
      <point x="533" y="230"/>
      <point x="492" y="272" type="curve" smooth="yes"/>
      <point x="451" y="314"/>
      <point x="431" y="375"/>
      <point x="431" y="466" type="curve" smooth="yes"/>
      <point x="431" y="589"/>
      <point x="467" y="703"/>
      <point x="538" y="786" type="curve" smooth="yes"/>
      <point x="603" y="862"/>
      <point x="696" y="909"/>
      <point x="814" y="909" type="curve" smooth="yes"/>
      <point x="866" y="909"/>
      <point x="915" y="900"/>
      <point x="960" y="881" type="curve" smooth="yes"/>
      <point x="1005" y="862"/>
      <point x="1048" y="834"/>
      <point x="1089" y="795" type="curve"/>
      <point x="1142" y="1063" type="line"/>
      <point x="1091" y="1092"/>
      <point x="1035" y="1114"/>
      <point x="981" y="1127" type="curve" smooth="yes"/>
      <point x="931" y="1139"/>
      <point x="863" y="1147"/>
      <point x="797" y="1147" type="curve" smooth="yes"/>
      <point x="606" y="1147"/>
      <point x="437" y="1079"/>
      <point x="318" y="950" type="curve" smooth="yes"/>
      <point x="199" y="821"/>
      <point x="135" y="637"/>
      <point x="135" y="448" type="curve" smooth="yes"/>
      <point x="135" y="306"/>
      <point x="171" y="182"/>
      <point x="263" y="94" type="curve" smooth="yes"/>
      <point x="354" y="7"/>
      <point x="482" y="-29"/>
      <point x="621" y="-29" type="curve" smooth="yes"/>
    </contour>
  </outline>
</glyph>
<glyph name="d" format="1">
  <advance width="1233"/>
  <unicode hex="0064"/>
  <note>
	d
  </note>
  <outline>
    <contour>
      <point x="447" y="-29"/>
      <point x="506" y="-12"/>
      <point x="561" y="21" type="curve" smooth="yes"/>
      <point x="616" y="54"/>
      <point x="665" y="102"/>
      <point x="709" y="166" type="curve"/>
      <point x="707" y="0" type="line"/>
      <point x="969" y="0" type="line"/>
      <point x="1272" y="1556" type="line"/>
      <point x="979" y="1556" type="line"/>
      <point x="854" y="911" type="line"/>
      <point x="844" y="988"/>
      <point x="811" y="1047"/>
      <point x="766" y="1086" type="curve" smooth="yes"/>
      <point x="717" y="1128"/>
      <point x="655" y="1149"/>
      <point x="581" y="1149" type="curve" smooth="yes"/>
      <point x="502" y="1149"/>
      <point x="428" y="1125"/>
      <point x="358" y="1076" type="curve" smooth="yes"/>
      <point x="286" y="1026"/>
      <point x="227" y="955"/>
      <point x="184" y="874" type="curve" smooth="yes"/>
      <point x="151" y="812"/>
      <point x="118" y="725"/>
      <point x="97" y="639" type="curve" smooth="yes"/>
      <point x="76" y="553"/>
      <point x="66" y="465"/>
      <point x="66" y="386" type="curve" smooth="yes"/>
      <point x="66" y="252"/>
      <point x="95" y="154"/>
      <point x="152" y="81" type="curve" smooth="yes"/>
      <point x="209" y="8"/>
      <point x="287" y="-29"/>
      <point x="382" y="-29" type="curve" smooth="yes"/>
    </contour>
    <contour>
      <point x="468" y="211"/>
      <point x="432" y="230"/>
      <point x="404" y="267" type="curve" smooth="yes"/>
      <point x="376" y="304"/>
      <point x="362" y="351"/>
      <point x="362" y="436" type="curve" smooth="yes"/>
      <point x="362" y="553"/>
      <point x="389" y="673"/>
      <point x="442" y="768" type="curve" smooth="yes"/>
      <point x="495" y="863"/>
      <point x="560" y="909"/>
      <point x="634" y="909" type="curve" smooth="yes"/>
      <point x="683" y="909"/>
      <point x="724" y="889"/>
      <point x="754" y="850" type="curve" smooth="yes"/>
      <point x="783" y="812"/>
      <point x="799" y="762"/>
      <point x="799" y="674" type="curve" smooth="yes"/>
      <point x="799" y="558"/>
      <point x="771" y="443"/>
      <point x="716" y="350" type="curve" smooth="yes"/>
      <point x="661" y="257"/>
      <point x="593" y="211"/>
      <point x="517" y="211" type="curve" smooth="yes"/>
    </contour>
  </outline>
</glyph>
<glyph name="e" format="1">
  <advance width="1233"/>
  <unicode hex="0065"/>
  <note>
	e
  </note>
  <outline>
    <contour>
      <point x="654" y="-29"/>
      <point x="726" y="-22"/>
      <point x="795" y="-8" type="curve" smooth="yes"/>
      <point x="864" y="6"/>
      <point x="930" y="27"/>
      <point x="993" y="55" type="curve"/>
      <point x="1044" y="324" type="line"/>
      <point x="982" y="285"/>
      <point x="915" y="255"/>
      <point x="843" y="234" type="curve" smooth="yes"/>
      <point x="771" y="213"/>
      <point x="698" y="203"/>
      <point x="629" y="203" type="curve" smooth="yes"/>
      <point x="539" y="203"/>
      <point x="474" y="220"/>
      <point x="429" y="254" type="curve" smooth="yes"/>
      <point x="388" y="285"/>
      <point x="362" y="330"/>
      <point x="362" y="403" type="curve"/>
      <point x="363" y="413"/>
      <point x="364" y="423"/>
      <point x="365" y="433" type="curve" smooth="yes"/>
      <point x="366" y="443"/>
      <point x="367" y="454"/>
      <point x="369" y="465" type="curve"/>
      <point x="1128" y="465" type="line"/>
      <point x="1137" y="519"/>
      <point x="1146" y="581"/>
      <point x="1149" y="607" type="curve" smooth="yes"/>
      <point x="1153" y="642"/>
      <point x="1155" y="686"/>
      <point x="1155" y="713" type="curve" smooth="yes"/>
      <point x="1155" y="848"/>
      <point x="1107" y="955"/>
      <point x="1030" y="1029" type="curve" smooth="yes"/>
      <point x="948" y="1108"/>
      <point x="829" y="1149"/>
      <point x="694" y="1149" type="curve" smooth="yes"/>
      <point x="604" y="1149"/>
      <point x="521" y="1131"/>
      <point x="444" y="1095" type="curve" smooth="yes"/>
      <point x="370" y="1060"/>
      <point x="301" y="1007"/>
      <point x="244" y="938" type="curve" smooth="yes"/>
      <point x="191" y="873"/>
      <point x="150" y="799"/>
      <point x="120" y="709" type="curve" smooth="yes"/>
      <point x="91" y="621"/>
      <point x="76" y="529"/>
      <point x="76" y="438" type="curve" smooth="yes"/>
      <point x="76" y="288"/>
      <point x="117" y="170"/>
      <point x="205" y="89" type="curve" smooth="yes"/>
      <point x="291" y="10"/>
      <point x="416" y="-29"/>
      <point x="583" y="-29" type="curve" smooth="yes"/>
    </contour>
    <contour>
      <point x="437" y="763"/>
      <point x="474" y="822"/>
      <point x="521" y="861" type="curve" smooth="yes"/>
      <point x="568" y="900"/>
      <point x="625" y="920"/>
      <point x="692" y="920" type="curve" smooth="yes"/>
      <point x="751" y="920"/>
      <point x="798" y="904"/>
      <point x="832" y="871" type="curve" smooth="yes"/>
      <point x="866" y="838"/>
      <point x="883" y="794"/>
      <point x="883" y="737" type="curve" smooth="yes"/>
      <point x="883" y="729"/>
      <point x="883" y="721"/>
      <point x="882" y="712" type="curve" smooth="yes"/>
      <point x="881" y="703"/>
      <point x="879" y="693"/>
      <point x="876" y="684" type="curve"/>
      <point x="410" y="684" type="line"/>
    </contour>
  </outline>
</glyph>
<glyph name="f" format="1">
  <advance width="1233"/>
  <unicode hex="0066"/>
  <note>
	f
  </note>
  <outline>
    <contour>
      <point x="615" y="0" type="line"/>
      <point x="789" y="895" type="line"/>
      <point x="1133" y="895" type="line"/>
      <point x="1176" y="1120" type="line"/>
      <point x="832" y="1120" type="line"/>
      <point x="848" y="1196" type="line" smooth="yes"/>
      <point x="859" y="1248"/>
      <point x="874" y="1286"/>
      <point x="893" y="1304" type="curve" smooth="yes"/>
      <point x="912" y="1322"/>
      <point x="944" y="1331"/>
      <point x="987" y="1331" type="curve" smooth="yes"/>
      <point x="1217" y="1331" type="line"/>
      <point x="1260" y="1556" type="line"/>
      <point x="1020" y="1556" type="line" smooth="yes"/>
      <point x="856" y="1556"/>
      <point x="750" y="1531"/>
      <point x="689" y="1483" type="curve" smooth="yes"/>
      <point x="631" y="1437"/>
      <point x="586" y="1349"/>
      <point x="555" y="1198" type="curve" smooth="yes"/>
      <point x="539" y="1120" type="line"/>
      <point x="266" y="1120" type="line"/>
      <point x="223" y="895" type="line"/>
      <point x="496" y="895" type="line"/>
      <point x="322" y="0" type="line"/>
    </contour>
  </outline>
</glyph>
<glyph name="g" format="1">
  <advance width="1233"/>
  <unicode hex="0067"/>
  <note>
	g
  </note>
  <outline>
    <contour>
      <point x="471" y="246"/>
      <point x="434" y="265"/>
      <point x="407" y="302" type="curve" smooth="yes"/>
      <point x="380" y="339"/>
      <point x="367" y="391"/>
      <point x="367" y="459" type="curve" smooth="yes"/>
      <point x="367" y="582"/>
      <point x="395" y="688"/>
      <point x="451" y="777" type="curve" smooth="yes"/>
      <point x="507" y="865"/>
      <point x="573" y="909"/>
      <point x="649" y="909" type="curve" smooth="yes"/>
      <point x="697" y="909"/>
      <point x="735" y="891"/>
      <point x="762" y="854" type="curve" smooth="yes"/>
      <point x="789" y="817"/>
      <point x="803" y="765"/>
      <point x="803" y="698" type="curve" smooth="yes"/>
      <point x="803" y="573"/>
      <point x="775" y="467"/>
      <point x="719" y="379" type="curve" smooth="yes"/>
      <point x="663" y="290"/>
      <point x="597" y="246"/>
      <point x="520" y="246" type="curve" smooth="yes"/>
    </contour>
    <contour>
      <point x="1190" y="1120" type="line"/>
      <point x="897" y="1120" type="line"/>
      <point x="862" y="938" type="line"/>
      <point x="848" y="1007"/>
      <point x="819" y="1059"/>
      <point x="774" y="1096" type="curve" smooth="yes"/>
      <point x="729" y="1133"/>
      <point x="671" y="1151"/>
      <point x="602" y="1151" type="curve" smooth="yes"/>
      <point x="531" y="1151"/>
      <point x="463" y="1132"/>
      <point x="396" y="1093" type="curve" smooth="yes"/>
      <point x="329" y="1054"/>
      <point x="272" y="1001"/>
      <point x="225" y="932" type="curve" smooth="yes"/>
      <point x="176" y="860"/>
      <point x="138" y="777"/>
      <point x="110" y="683" type="curve" smooth="yes"/>
      <point x="82" y="589"/>
      <point x="68" y="496"/>
      <point x="68" y="403" type="curve" smooth="yes"/>
      <point x="68" y="284"/>
      <point x="99" y="190"/>
      <point x="161" y="121" type="curve" smooth="yes"/>
      <point x="222" y="51"/>
      <point x="305" y="16"/>
      <point x="410" y="16" type="curve" smooth="yes"/>
      <point x="474" y="16"/>
      <point x="532" y="30"/>
      <point x="584" y="59" type="curve" smooth="yes"/>
      <point x="635" y="87"/>
      <point x="679" y="129"/>
      <point x="715" y="184" type="curve"/>
      <point x="688" y="51" type="line" smooth="yes"/>
      <point x="673" y="-32"/>
      <point x="642" y="-93"/>
      <point x="595" y="-132" type="curve" smooth="yes"/>
      <point x="548" y="-171"/>
      <point x="482" y="-190"/>
      <point x="399" y="-190" type="curve" smooth="yes"/>
      <point x="341" y="-190"/>
      <point x="285" y="-183"/>
      <point x="230" y="-168" type="curve" smooth="yes"/>
      <point x="175" y="-153"/>
      <point x="122" y="-130"/>
      <point x="72" y="-100" type="curve"/>
      <point x="18" y="-365" type="line"/>
      <point x="76" y="-384"/>
      <point x="135" y="-399"/>
      <point x="196" y="-409" type="curve" smooth="yes"/>
      <point x="257" y="-419"/>
      <point x="320" y="-424"/>
      <point x="385" y="-424" type="curve" smooth="yes"/>
      <point x="567" y="-424"/>
      <point x="704" y="-386"/>
      <point x="796" y="-309" type="curve" smooth="yes"/>
      <point x="888" y="-232"/>
      <point x="952" y="-101"/>
      <point x="987" y="84" type="curve" smooth="yes"/>
    </contour>
  </outline>
</glyph>
<glyph name="h" format="1">
  <advance width="1233"/>
  <unicode hex="0068"/>
  <note>
	h
  </note>
  <outline>
    <contour>
      <point x="352" y="0" type="line"/>
      <point x="473" y="629" type="line" smooth="yes"/>
      <point x="490" y="717"/>
      <point x="517" y="787"/>
      <point x="557" y="836" type="curve" smooth="yes"/>
      <point x="593" y="880"/>
      <point x="640" y="907"/>
      <point x="699" y="907" type="curve" smooth="yes"/>
      <point x="735" y="907"/>
      <point x="763" y="897"/>
      <point x="782" y="877" type="curve" smooth="yes"/>
      <point x="803" y="855"/>
      <point x="811" y="822"/>
      <point x="811" y="784" type="curve" smooth="yes"/>
      <point x="811" y="771"/>
      <point x="810" y="752"/>
      <point x="809" y="735" type="curve" smooth="yes"/>
      <point x="809" y="732"/>
      <point x="803" y="693"/>
      <point x="801" y="682" type="curve" smooth="yes"/>
      <point x="668" y="0" type="line"/>
      <point x="961" y="0" type="line"/>
      <point x="1102" y="728" type="line" smooth="yes"/>
      <point x="1108" y="758"/>
      <point x="1114" y="797"/>
      <point x="1116" y="813" type="curve" smooth="yes"/>
      <point x="1119" y="838"/>
      <point x="1120" y="862"/>
      <point x="1120" y="880" type="curve" smooth="yes"/>
      <point x="1120" y="969"/>
      <point x="1095" y="1034"/>
      <point x="1051" y="1078" type="curve" smooth="yes"/>
      <point x="1005" y="1124"/>
      <point x="938" y="1147"/>
      <point x="857" y="1147" type="curve" smooth="yes"/>
      <point x="787" y="1147"/>
      <point x="724" y="1130"/>
      <point x="669" y="1096" type="curve" smooth="yes"/>
      <point x="617" y="1064"/>
      <point x="570" y="1015"/>
      <point x="537" y="952" type="curve"/>
      <point x="653" y="1556" type="line"/>
      <point x="362" y="1556" type="line"/>
      <point x="59" y="0" type="line"/>
    </contour>
  </outline>
</glyph>
<glyph name="i" format="1">
  <advance width="1233"/>
  <unicode hex="0069"/>
  <note>
	i
  </note>
  <outline>
    <contour>
      <point x="634" y="1665" type="line"/>
      <point x="567" y="1323" type="line"/>
      <point x="860" y="1323" type="line"/>
      <point x="927" y="1665" type="line"/>
    </contour>
    <contour>
      <point x="816" y="1121" type="line"/>
      <point x="218" y="1121" type="line"/>
      <point x="175" y="896" type="line"/>
      <point x="481" y="896" type="line"/>
      <point x="361" y="379" type="line" smooth="yes"/>
      <point x="354" y="350"/>
      <point x="350" y="323"/>
      <point x="347" y="300" type="curve" smooth="yes"/>
      <point x="344" y="277"/>
      <point x="342" y="257"/>
      <point x="342" y="242" type="curve" smooth="yes"/>
      <point x="342" y="155"/>
      <point x="370" y="93"/>
      <point x="427" y="56" type="curve" smooth="yes"/>
      <point x="484" y="19"/>
      <point x="580" y="0"/>
      <point x="717" y="0" type="curve" smooth="yes"/>
      <point x="1014" y="0" type="line"/>
      <point x="1059" y="225" type="line"/>
      <point x="781" y="225" type="line" smooth="yes"/>
      <point x="729" y="225"/>
      <point x="693" y="231"/>
      <point x="672" y="244" type="curve" smooth="yes"/>
      <point x="651" y="256"/>
      <point x="641" y="277"/>
      <point x="641" y="307" type="curve" smooth="yes"/>
      <point x="641" y="310"/>
      <point x="642" y="318"/>
      <point x="644" y="329" type="curve" smooth="yes"/>
      <point x="645" y="340"/>
      <point x="647" y="352"/>
      <point x="650" y="365" type="curve" smooth="yes"/>
    </contour>
  </outline>
</glyph>
<glyph name="j" format="1">
  <advance width="1233"/>
  <unicode hex="006A"/>
  <note>
	j
  </note>
  <outline>
    <contour>
      <point x="259" y="-424" type="line" smooth="yes"/>
      <point x="346" y="-424"/>
      <point x="413" y="-415"/>
      <point x="466" y="-398" type="curve" smooth="yes"/>
      <point x="518" y="-381"/>
      <point x="567" y="-354"/>
      <point x="607" y="-314" type="curve" smooth="yes"/>
      <point x="637" y="-284"/>
      <point x="664" y="-243"/>
      <point x="684" y="-196" type="curve" smooth="yes"/>
      <point x="702" y="-153"/>
      <point x="722" y="-91"/>
      <point x="748" y="43" type="curve" smooth="yes"/>
      <point x="957" y="1120" type="line"/>
      <point x="367" y="1120" type="line"/>
      <point x="324" y="895" type="line"/>
      <point x="621" y="895" type="line"/>
      <point x="455" y="43" type="line" smooth="yes"/>
      <point x="439" y="-38"/>
      <point x="417" y="-106"/>
      <point x="379" y="-146" type="curve" smooth="yes"/>
      <point x="345" y="-181"/>
      <point x="295" y="-199"/>
      <point x="228" y="-199" type="curve" smooth="yes"/>
      <point x="-3" y="-199" type="line"/>
      <point x="-48" y="-424" type="line"/>
    </contour>
    <contour>
      <point x="971" y="1323" type="line" smooth="yes"/>
      <point x="989" y="1323"/>
      <point x="1000" y="1332"/>
      <point x="1003" y="1350" type="curve" smooth="yes"/>
      <point x="1058" y="1632" type="line" smooth="yes"/>
      <point x="1062" y="1652"/>
      <point x="1051" y="1665"/>
      <point x="1031" y="1665" type="curve" smooth="yes"/>
      <point x="798" y="1665" type="line" smooth="yes"/>
      <point x="780" y="1665"/>
      <point x="769" y="1656"/>
      <point x="766" y="1638" type="curve" smooth="yes"/>
      <point x="711" y="1356" type="line" smooth="yes"/>
      <point x="707" y="1336"/>
      <point x="718" y="1323"/>
      <point x="738" y="1323" type="curve" smooth="yes"/>
    </contour>
  </outline>
</glyph>
<glyph name="k" format="1">
  <advance width="1233"/>
  <unicode hex="006B"/>
  <note>
	k
  </note>
  <outline>
    <contour>
      <point x="383" y="1556" type="line"/>
      <point x="82" y="0" type="line"/>
      <point x="375" y="0" type="line"/>
      <point x="457" y="428" type="line"/>
      <point x="573" y="524" type="line"/>
      <point x="795" y="0" type="line"/>
      <point x="1106" y="0" type="line"/>
      <point x="793" y="702" type="line"/>
      <point x="1298" y="1120" type="line"/>
      <point x="928" y="1120" type="line"/>
      <point x="524" y="774" type="line"/>
      <point x="676" y="1556" type="line"/>
    </contour>
  </outline>
</glyph>
<glyph name="l" format="1">
  <advance width="1233"/>
  <unicode hex="006C"/>
  <note>
	l
  </note>
  <outline>
    <contour>
      <point x="874" y="1556" type="line"/>
      <point x="276" y="1556" type="line"/>
      <point x="233" y="1331" type="line"/>
      <point x="539" y="1331" type="line"/>
      <point x="336" y="379" type="line" smooth="yes"/>
      <point x="330" y="350"/>
      <point x="325" y="323"/>
      <point x="322" y="300" type="curve" smooth="yes"/>
      <point x="319" y="277"/>
      <point x="317" y="257"/>
      <point x="317" y="242" type="curve" smooth="yes"/>
      <point x="317" y="155"/>
      <point x="345" y="93"/>
      <point x="402" y="56" type="curve" smooth="yes"/>
      <point x="459" y="19"/>
      <point x="555" y="0"/>
      <point x="692" y="0" type="curve" smooth="yes"/>
      <point x="989" y="0" type="line"/>
      <point x="1034" y="225" type="line"/>
      <point x="756" y="225" type="line" smooth="yes"/>
      <point x="704" y="225"/>
      <point x="668" y="231"/>
      <point x="647" y="244" type="curve" smooth="yes"/>
      <point x="626" y="256"/>
      <point x="616" y="277"/>
      <point x="616" y="307" type="curve" smooth="yes"/>
      <point x="616" y="310"/>
      <point x="617" y="318"/>
      <point x="619" y="329" type="curve" smooth="yes"/>
      <point x="620" y="340"/>
      <point x="622" y="352"/>
      <point x="625" y="365" type="curve" smooth="yes"/>
    </contour>
  </outline>
</glyph>
<glyph name="m" format="1">
  <advance width="1233"/>
  <unicode hex="006D"/>
  <note>
	m
  </note>
  <outline>
    <contour>
      <point x="765" y="1051"/>
      <point x="748" y="1085"/>
      <point x="719" y="1110" type="curve" smooth="yes"/>
      <point x="690" y="1135"/>
      <point x="652" y="1147"/>
      <point x="606" y="1147" type="curve" smooth="yes"/>
      <point x="560" y="1147"/>
      <point x="517" y="1135"/>
      <point x="477" y="1110" type="curve" smooth="yes"/>
      <point x="436" y="1085"/>
      <point x="402" y="1049"/>
      <point x="375" y="1004" type="curve"/>
      <point x="397" y="1120" type="line"/>
      <point x="184" y="1120" type="line"/>
      <point x="-33" y="0" type="line"/>
      <point x="207" y="0" type="line"/>
      <point x="346" y="719" type="line" smooth="yes"/>
      <point x="361" y="800"/>
      <point x="378" y="856"/>
      <point x="397" y="885" type="curve" smooth="yes"/>
      <point x="415" y="914"/>
      <point x="440" y="928"/>
      <point x="471" y="928" type="curve" smooth="yes"/>
      <point x="494" y="928"/>
      <point x="511" y="921"/>
      <point x="523" y="907" type="curve" smooth="yes"/>
      <point x="535" y="893"/>
      <point x="541" y="873"/>
      <point x="541" y="846" type="curve" smooth="yes"/>
      <point x="541" y="833"/>
      <point x="540" y="816"/>
      <point x="537" y="794" type="curve" smooth="yes"/>
      <point x="534" y="772"/>
      <point x="529" y="747"/>
      <point x="524" y="719" type="curve" smooth="yes"/>
      <point x="383" y="0" type="line"/>
      <point x="623" y="0" type="line"/>
      <point x="762" y="719" type="line" smooth="yes"/>
      <point x="777" y="798"/>
      <point x="794" y="853"/>
      <point x="813" y="883" type="curve" smooth="yes"/>
      <point x="832" y="913"/>
      <point x="857" y="928"/>
      <point x="889" y="928" type="curve" smooth="yes"/>
      <point x="912" y="928"/>
      <point x="929" y="921"/>
      <point x="941" y="907" type="curve" smooth="yes"/>
      <point x="952" y="893"/>
      <point x="958" y="873"/>
      <point x="958" y="846" type="curve" smooth="yes"/>
      <point x="958" y="836"/>
      <point x="957" y="821"/>
      <point x="954" y="801" type="curve" smooth="yes"/>
      <point x="951" y="780"/>
      <point x="947" y="753"/>
      <point x="940" y="719" type="curve" smooth="yes"/>
      <point x="801" y="0" type="line"/>
      <point x="1040" y="0" type="line"/>
      <point x="1180" y="719" type="line" smooth="yes"/>
      <point x="1190" y="769"/>
      <point x="1197" y="810"/>
      <point x="1201" y="843" type="curve" smooth="yes"/>
      <point x="1204" y="875"/>
      <point x="1206" y="907"/>
      <point x="1206" y="938" type="curve" smooth="yes"/>
      <point x="1206" y="1003"/>
      <point x="1188" y="1054"/>
      <point x="1152" y="1091" type="curve" smooth="yes"/>
      <point x="1116" y="1128"/>
      <point x="1067" y="1147"/>
      <point x="1006" y="1147" type="curve" smooth="yes"/>
      <point x="955" y="1147"/>
      <point x="909" y="1135"/>
      <point x="866" y="1110" type="curve" smooth="yes"/>
      <point x="823" y="1085"/>
      <point x="791" y="1051"/>
      <point x="770" y="1008" type="curve"/>
    </contour>
  </outline>
</glyph>
<glyph name="n" format="1">
  <advance width="1233"/>
  <unicode hex="006E"/>
  <note>
	n
  </note>
  <outline>
    <contour>
      <point x="1102" y="728" type="line" smooth="yes"/>
      <point x="1108" y="759"/>
      <point x="1113" y="788"/>
      <point x="1116" y="813" type="curve" smooth="yes"/>
      <point x="1119" y="838"/>
      <point x="1120" y="861"/>
      <point x="1120" y="881" type="curve" smooth="yes"/>
      <point x="1120" y="966"/>
      <point x="1097" y="1031"/>
      <point x="1051" y="1078" type="curve" smooth="yes"/>
      <point x="1005" y="1124"/>
      <point x="939" y="1147"/>
      <point x="854" y="1147" type="curve" smooth="yes"/>
      <point x="787" y="1147"/>
      <point x="725" y="1130"/>
      <point x="669" y="1096" type="curve" smooth="yes"/>
      <point x="613" y="1061"/>
      <point x="569" y="1013"/>
      <point x="537" y="952" type="curve"/>
      <point x="569" y="1120" type="line"/>
      <point x="276" y="1120" type="line"/>
      <point x="59" y="0" type="line"/>
      <point x="352" y="0" type="line"/>
      <point x="473" y="629" type="line" smooth="yes"/>
      <point x="490" y="718"/>
      <point x="519" y="787"/>
      <point x="558" y="835" type="curve" smooth="yes"/>
      <point x="597" y="883"/>
      <point x="643" y="907"/>
      <point x="698" y="907" type="curve" smooth="yes"/>
      <point x="735" y="907"/>
      <point x="763" y="897"/>
      <point x="782" y="877" type="curve" smooth="yes"/>
      <point x="801" y="856"/>
      <point x="811" y="827"/>
      <point x="811" y="788" type="curve" smooth="yes"/>
      <point x="811" y="770"/>
      <point x="810" y="752"/>
      <point x="809" y="735" type="curve" smooth="yes"/>
      <point x="807" y="717"/>
      <point x="804" y="699"/>
      <point x="801" y="682" type="curve" smooth="yes"/>
      <point x="668" y="0" type="line"/>
      <point x="961" y="0" type="line"/>
    </contour>
  </outline>
</glyph>
<glyph name="o" format="1">
  <advance width="1233"/>
  <unicode hex="006F"/>
  <note>
	o
  </note>
  <outline>
    <contour>
      <point x="714" y="-29"/>
      <point x="868" y="35"/>
      <point x="980" y="171" type="curve" smooth="yes"/>
      <point x="1087" y="301"/>
      <point x="1145" y="484"/>
      <point x="1145" y="676" type="curve" smooth="yes"/>
      <point x="1145" y="827"/>
      <point x="1109" y="948"/>
      <point x="1025" y="1030" type="curve" smooth="yes"/>
      <point x="943" y="1110"/>
      <point x="822" y="1149"/>
      <point x="689" y="1149" type="curve" smooth="yes"/>
      <point x="510" y="1149"/>
      <point x="360" y="1078"/>
      <point x="254" y="949" type="curve" smooth="yes"/>
      <point x="144" y="815"/>
      <point x="88" y="630"/>
      <point x="88" y="442" type="curve" smooth="yes"/>
      <point x="88" y="294"/>
      <point x="123" y="174"/>
      <point x="208" y="91" type="curve" smooth="yes"/>
      <point x="279" y="21"/>
      <point x="392" y="-29"/>
      <point x="543" y="-29" type="curve" smooth="yes"/>
    </contour>
    <contour>
      <point x="504" y="207"/>
      <point x="459" y="233"/>
      <point x="431" y="267" type="curve" smooth="yes"/>
      <point x="394" y="312"/>
      <point x="383" y="378"/>
      <point x="383" y="448" type="curve" smooth="yes"/>
      <point x="383" y="556"/>
      <point x="409" y="681"/>
      <point x="466" y="776" type="curve" smooth="yes"/>
      <point x="520" y="865"/>
      <point x="591" y="911"/>
      <point x="672" y="911" type="curve" smooth="yes"/>
      <point x="720" y="911"/>
      <point x="770" y="895"/>
      <point x="804" y="853" type="curve" smooth="yes"/>
      <point x="833" y="817"/>
      <point x="850" y="763"/>
      <point x="850" y="672" type="curve" smooth="yes"/>
      <point x="850" y="545"/>
      <point x="817" y="426"/>
      <point x="767" y="343" type="curve" smooth="yes"/>
      <point x="712" y="252"/>
      <point x="640" y="207"/>
      <point x="563" y="207" type="curve" smooth="yes"/>
    </contour>
  </outline>
</glyph>
<glyph name="p" format="1">
  <advance width="1233"/>
  <unicode hex="0070"/>
  <note>
	p
  </note>
  <outline>
    <contour>
      <point x="379" y="207" type="line"/>
      <point x="392" y="132"/>
      <point x="423" y="74"/>
      <point x="471" y="33" type="curve" smooth="yes"/>
      <point x="519" y="-8"/>
      <point x="580" y="-29"/>
      <point x="655" y="-29" type="curve" smooth="yes"/>
      <point x="733" y="-29"/>
      <point x="807" y="-5"/>
      <point x="877" y="43" type="curve" smooth="yes"/>
      <point x="947" y="91"/>
      <point x="1005" y="158"/>
      <point x="1051" y="244" type="curve" smooth="yes"/>
      <point x="1088" y="315"/>
      <point x="1117" y="393"/>
      <point x="1138" y="480" type="curve" smooth="yes"/>
      <point x="1159" y="567"/>
      <point x="1169" y="653"/>
      <point x="1169" y="739" type="curve" smooth="yes"/>
      <point x="1169" y="865"/>
      <point x="1141" y="965"/>
      <point x="1084" y="1038" type="curve" smooth="yes"/>
      <point x="1027" y="1111"/>
      <point x="950" y="1147"/>
      <point x="852" y="1147" type="curve" smooth="yes"/>
      <point x="790" y="1147"/>
      <point x="732" y="1131"/>
      <point x="677" y="1099" type="curve" smooth="yes"/>
      <point x="622" y="1066"/>
      <point x="571" y="1017"/>
      <point x="524" y="952" type="curve"/>
      <point x="557" y="1120" type="line"/>
      <point x="264" y="1120" type="line"/>
      <point x="-37" y="-426" type="line"/>
      <point x="256" y="-426" type="line"/>
    </contour>
    <contour>
      <point x="551" y="209"/>
      <point x="511" y="229"/>
      <point x="481" y="269" type="curve" smooth="yes"/>
      <point x="451" y="308"/>
      <point x="436" y="363"/>
      <point x="436" y="432" type="curve" smooth="yes"/>
      <point x="436" y="564"/>
      <point x="464" y="676"/>
      <point x="520" y="769" type="curve" smooth="yes"/>
      <point x="575" y="861"/>
      <point x="641" y="907"/>
      <point x="717" y="907" type="curve" smooth="yes"/>
      <point x="766" y="907"/>
      <point x="805" y="888"/>
      <point x="833" y="851" type="curve" smooth="yes"/>
      <point x="860" y="814"/>
      <point x="874" y="761"/>
      <point x="874" y="694" type="curve" smooth="yes"/>
      <point x="874" y="560"/>
      <point x="847" y="446"/>
      <point x="794" y="351" type="curve" smooth="yes"/>
      <point x="740" y="256"/>
      <point x="676" y="209"/>
      <point x="602" y="209" type="curve" smooth="yes"/>
    </contour>
  </outline>
</glyph>
<glyph name="q" format="1">
  <advance width="1233"/>
  <unicode hex="0071"/>
  <note>
	q
  </note>
  <outline>
    <contour>
      <point x="854" y="911" type="line"/>
      <point x="842" y="986"/>
      <point x="812" y="1045"/>
      <point x="764" y="1087" type="curve" smooth="yes"/>
      <point x="715" y="1128"/>
      <point x="654" y="1149"/>
      <point x="580" y="1149" type="curve" smooth="yes"/>
      <point x="503" y="1149"/>
      <point x="429" y="1125"/>
      <point x="360" y="1077" type="curve" smooth="yes"/>
      <point x="291" y="1028"/>
      <point x="233" y="961"/>
      <point x="186" y="874" type="curve" smooth="yes"/>
      <point x="149" y="803"/>
      <point x="120" y="724"/>
      <point x="99" y="639" type="curve" smooth="yes"/>
      <point x="78" y="553"/>
      <point x="68" y="467"/>
      <point x="68" y="381" type="curve" smooth="yes"/>
      <point x="68" y="254"/>
      <point x="97" y="154"/>
      <point x="154" y="81" type="curve" smooth="yes"/>
      <point x="211" y="8"/>
      <point x="288" y="-29"/>
      <point x="385" y="-29" type="curve" smooth="yes"/>
      <point x="448" y="-29"/>
      <point x="508" y="-12"/>
      <point x="563" y="21" type="curve" smooth="yes"/>
      <point x="618" y="54"/>
      <point x="667" y="103"/>
      <point x="709" y="166" type="curve"/>
      <point x="594" y="-426" type="line"/>
      <point x="885" y="-426" type="line"/>
      <point x="1186" y="1120" type="line"/>
      <point x="893" y="1120" type="line"/>
    </contour>
    <contour>
      <point x="684" y="909"/>
      <point x="724" y="889"/>
      <point x="754" y="850" type="curve" smooth="yes"/>
      <point x="784" y="810"/>
      <point x="799" y="755"/>
      <point x="799" y="686" type="curve" smooth="yes"/>
      <point x="799" y="554"/>
      <point x="772" y="442"/>
      <point x="717" y="350" type="curve" smooth="yes"/>
      <point x="662" y="257"/>
      <point x="596" y="211"/>
      <point x="520" y="211" type="curve" smooth="yes"/>
      <point x="471" y="211"/>
      <point x="432" y="230"/>
      <point x="404" y="268" type="curve" smooth="yes"/>
      <point x="376" y="305"/>
      <point x="362" y="357"/>
      <point x="362" y="424" type="curve" smooth="yes"/>
      <point x="362" y="559"/>
      <point x="389" y="673"/>
      <point x="442" y="768" type="curve" smooth="yes"/>
      <point x="495" y="862"/>
      <point x="559" y="909"/>
      <point x="633" y="909" type="curve" smooth="yes"/>
    </contour>
  </outline>
</glyph>
<glyph name="r" format="1">
  <advance width="1233"/>
  <unicode hex="0072"/>
  <note>
	r
  </note>
  <outline>
    <contour>
      <point x="1227" y="1090" type="line"/>
      <point x="1198" y="1108"/>
      <point x="1165" y="1122"/>
      <point x="1128" y="1132" type="curve" smooth="yes"/>
      <point x="1091" y="1142"/>
      <point x="1051" y="1147"/>
      <point x="1009" y="1147" type="curve" smooth="yes"/>
      <point x="931" y="1147"/>
      <point x="858" y="1130"/>
      <point x="792" y="1095" type="curve" smooth="yes"/>
      <point x="726" y="1060"/>
      <point x="672" y="1010"/>
      <point x="631" y="946" type="curve"/>
      <point x="666" y="1120" type="line"/>
      <point x="373" y="1120" type="line"/>
      <point x="154" y="0" type="line"/>
      <point x="449" y="0" type="line"/>
      <point x="549" y="516" type="line" smooth="yes"/>
      <point x="576" y="657"/>
      <point x="621" y="754"/>
      <point x="679" y="811" type="curve" smooth="yes"/>
      <point x="741" y="872"/>
      <point x="827" y="899"/>
      <point x="930" y="899" type="curve" smooth="yes"/>
      <point x="978" y="899"/>
      <point x="1027" y="893"/>
      <point x="1067" y="879" type="curve" smooth="yes"/>
      <point x="1101" y="867"/>
      <point x="1140" y="846"/>
      <point x="1174" y="815" type="curve"/>
    </contour>
  </outline>
</glyph>
<glyph name="s" format="1">
  <advance width="1233"/>
  <unicode hex="0073"/>
  <note>
	s
  </note>
  <outline>
    <contour>
      <point x="1094" y="1085" type="line"/>
      <point x="1037" y="1105"/>
      <point x="962" y="1123"/>
      <point x="909" y="1132" type="curve" smooth="yes"/>
      <point x="856" y="1141"/>
      <point x="786" y="1147"/>
      <point x="725" y="1147" type="curve" smooth="yes"/>
      <point x="573" y="1147"/>
      <point x="446" y="1110"/>
      <point x="360" y="1045" type="curve" smooth="yes"/>
      <point x="274" y="980"/>
      <point x="225" y="884"/>
      <point x="225" y="767" type="curve" smooth="yes"/>
      <point x="225" y="691"/>
      <point x="246" y="636"/>
      <point x="282" y="592" type="curve" smooth="yes"/>
      <point x="325" y="540"/>
      <point x="388" y="505"/>
      <point x="461" y="485" type="curve" smooth="yes"/>
      <point x="549" y="461" type="line" smooth="yes"/>
      <point x="630" y="439"/>
      <point x="685" y="416"/>
      <point x="712" y="395" type="curve" smooth="yes"/>
      <point x="731" y="380"/>
      <point x="743" y="362"/>
      <point x="743" y="326" type="curve" smooth="yes"/>
      <point x="743" y="279"/>
      <point x="723" y="245"/>
      <point x="682" y="220" type="curve" smooth="yes"/>
      <point x="641" y="195"/>
      <point x="583" y="182"/>
      <point x="510" y="182" type="curve" smooth="yes"/>
      <point x="443" y="182"/>
      <point x="383" y="193"/>
      <point x="322" y="212" type="curve" smooth="yes"/>
      <point x="258" y="232"/>
      <point x="205" y="256"/>
      <point x="141" y="297" type="curve"/>
      <point x="90" y="41" type="line"/>
      <point x="156" y="18"/>
      <point x="229" y="-1"/>
      <point x="293" y="-12" type="curve" smooth="yes"/>
      <point x="352" y="-22"/>
      <point x="431" y="-29"/>
      <point x="501" y="-29" type="curve" smooth="yes"/>
      <point x="656" y="-29"/>
      <point x="791" y="5"/>
      <point x="884" y="75" type="curve" smooth="yes"/>
      <point x="971" y="141"/>
      <point x="1020" y="239"/>
      <point x="1020" y="359" type="curve" smooth="yes"/>
      <point x="1020" y="438"/>
      <point x="999" y="499"/>
      <point x="961" y="544" type="curve" smooth="yes"/>
      <point x="924" y="588"/>
      <point x="862" y="626"/>
      <point x="774" y="651" type="curve" smooth="yes"/>
      <point x="700" y="672" type="line" smooth="yes"/>
      <point x="612" y="697"/>
      <point x="561" y="718"/>
      <point x="535" y="737" type="curve" smooth="yes"/>
      <point x="510" y="755"/>
      <point x="498" y="779"/>
      <point x="498" y="810" type="curve" smooth="yes"/>
      <point x="498" y="847"/>
      <point x="515" y="879"/>
      <point x="553" y="903" type="curve" smooth="yes"/>
      <point x="590" y="926"/>
      <point x="638" y="938"/>
      <point x="705" y="938" type="curve" smooth="yes"/>
      <point x="763" y="938"/>
      <point x="824" y="929"/>
      <point x="882" y="911" type="curve" smooth="yes"/>
      <point x="940" y="893"/>
      <point x="994" y="866"/>
      <point x="1044" y="831" type="curve"/>
    </contour>
  </outline>
</glyph>
<glyph name="t" format="1">
  <advance width="1233"/>
  <unicode hex="0074"/>
  <note>
	t
  </note>
  <outline>
    <contour>
      <point x="848" y="1438" type="line"/>
      <point x="555" y="1438" type="line"/>
      <point x="494" y="1120" type="line"/>
      <point x="207" y="1120" type="line"/>
      <point x="164" y="895" type="line"/>
      <point x="451" y="895" type="line"/>
      <point x="350" y="379" type="line" smooth="yes"/>
      <point x="344" y="346"/>
      <point x="340" y="318"/>
      <point x="337" y="295" type="curve" smooth="yes"/>
      <point x="334" y="272"/>
      <point x="332" y="254"/>
      <point x="332" y="240" type="curve" smooth="yes"/>
      <point x="332" y="154"/>
      <point x="361" y="93"/>
      <point x="418" y="56" type="curve" smooth="yes"/>
      <point x="475" y="19"/>
      <point x="571" y="0"/>
      <point x="707" y="0" type="curve" smooth="yes"/>
      <point x="952" y="0" type="line"/>
      <point x="995" y="225" type="line"/>
      <point x="770" y="225" type="line" smooth="yes"/>
      <point x="717" y="225"/>
      <point x="681" y="231"/>
      <point x="661" y="244" type="curve" smooth="yes"/>
      <point x="641" y="256"/>
      <point x="631" y="277"/>
      <point x="631" y="307" type="curve" smooth="yes"/>
      <point x="631" y="312"/>
      <point x="632" y="320"/>
      <point x="633" y="330" type="curve" smooth="yes"/>
      <point x="634" y="340"/>
      <point x="636" y="352"/>
      <point x="639" y="365" type="curve" smooth="yes"/>
      <point x="743" y="895" type="line"/>
      <point x="1126" y="895" type="line"/>
      <point x="1169" y="1120" type="line"/>
      <point x="786" y="1120" type="line"/>
    </contour>
  </outline>
</glyph>
<glyph name="v" format="1">
  <advance width="1233"/>
  <unicode hex="0076"/>
  <note>
	v
  </note>
  <outline>
    <contour>
      <point x="1231" y="1120" type="line"/>
      <point x="924" y="1120" type="line"/>
      <point x="535" y="242" type="line"/>
      <point x="455" y="1120" type="line"/>
      <point x="172" y="1120" type="line"/>
      <point x="311" y="0" type="line"/>
      <point x="680" y="0" type="line"/>
    </contour>
  </outline>
</glyph>
<glyph name="y" format="1">
  <advance width="1233"/>
  <unicode hex="0079"/>
  <note>
	y
  </note>
  <outline>
    <contour>
      <point x="1257" y="1120" type="line"/>
      <point x="948" y="1120" type="line"/>
      <point x="565" y="420" type="line"/>
      <point x="438" y="1120" type="line"/>
      <point x="141" y="1120" type="line"/>
      <point x="358" y="45" type="line"/>
      <point x="319" y="-29" type="line" smooth="yes"/>
      <point x="279" y="-105"/>
      <point x="241" y="-151"/>
      <point x="209" y="-171" type="curve" smooth="yes"/>
      <point x="179" y="-190"/>
      <point x="131" y="-201"/>
      <point x="72" y="-201" type="curve" smooth="yes"/>
      <point x="-45" y="-201" type="line"/>
      <point x="-90" y="-424" type="line"/>
      <point x="150" y="-424" type="line" smooth="yes"/>
      <point x="233" y="-424"/>
      <point x="307" y="-406"/>
      <point x="358" y="-372" type="curve" smooth="yes"/>
      <point x="415" y="-334"/>
      <point x="477" y="-251"/>
      <point x="551" y="-121" type="curve" smooth="yes"/>
    </contour>
  </outline>
</glyph>
<glyph name="braceleft" format="1">
  <advance width="1233"/>
  <unicode hex="007B"/>
  <note>
	braceleft
  </note>
  <outline>
    <contour>
      <point x="879" y="-143" type="line"/>
      <point x="758" y="-143" type="line" smooth="yes"/>
      <point x="705" y="-143"/>
      <point x="667" y="-135"/>
      <point x="644" y="-118" type="curve" smooth="yes"/>
      <point x="621" y="-101"/>
      <point x="610" y="-72"/>
      <point x="610" y="-33" type="curve" smooth="yes"/>
      <point x="610" y="-22"/>
      <point x="611" y="-7"/>
      <point x="614" y="12" type="curve" smooth="yes"/>
      <point x="616" y="28"/>
      <point x="620" y="53"/>
      <point x="627" y="86" type="curve" smooth="yes"/>
      <point x="668" y="291" type="line" smooth="yes"/>
      <point x="674" y="322"/>
      <point x="678" y="346"/>
      <point x="680" y="364" type="curve" smooth="yes"/>
      <point x="683" y="387"/>
      <point x="684" y="408"/>
      <point x="684" y="428" type="curve" smooth="yes"/>
      <point x="684" y="479"/>
      <point x="670" y="519"/>
      <point x="643" y="548" type="curve" smooth="yes"/>
      <point x="615" y="577"/>
      <point x="569" y="598"/>
      <point x="506" y="612" type="curve"/>
      <point x="593" y="623"/>
      <point x="657" y="651"/>
      <point x="698" y="696" type="curve" smooth="yes"/>
      <point x="741" y="742"/>
      <point x="772" y="820"/>
      <point x="793" y="930" type="curve" smooth="yes"/>
      <point x="831" y="1139" type="line" smooth="yes"/>
      <point x="848" y="1232"/>
      <point x="871" y="1293"/>
      <point x="902" y="1323" type="curve" smooth="yes"/>
      <point x="931" y="1352"/>
      <point x="981" y="1366"/>
      <point x="1051" y="1366" type="curve" smooth="yes"/>
      <point x="1174" y="1366" type="line"/>
      <point x="1210" y="1556" type="line"/>
      <point x="1061" y="1556" type="line" smooth="yes"/>
      <point x="888" y="1556"/>
      <point x="770" y="1532"/>
      <point x="708" y="1484" type="curve" smooth="yes"/>
      <point x="645" y="1436"/>
      <point x="600" y="1337"/>
      <point x="571" y="1188" type="curve" smooth="yes"/>
      <point x="530" y="973" type="line" smooth="yes"/>
      <point x="510" y="869"/>
      <point x="479" y="799"/>
      <point x="436" y="762" type="curve" smooth="yes"/>
      <point x="393" y="725"/>
      <point x="324" y="707"/>
      <point x="229" y="707" type="curve" smooth="yes"/>
      <point x="138" y="707" type="line"/>
      <point x="101" y="516" type="line"/>
      <point x="163" y="516" type="line" smooth="yes"/>
      <point x="242" y="516"/>
      <point x="303" y="506"/>
      <point x="345" y="486" type="curve" smooth="yes"/>
      <point x="387" y="465"/>
      <point x="408" y="430"/>
      <point x="408" y="379" type="curve" smooth="yes"/>
      <point x="408" y="365"/>
      <point x="407" y="348"/>
      <point x="404" y="328" type="curve" smooth="yes"/>
      <point x="400" y="300"/>
      <point x="396" y="274"/>
      <point x="391" y="250" type="curve" smooth="yes"/>
      <point x="348" y="35" type="line" smooth="yes"/>
      <point x="341" y="-3"/>
      <point x="336" y="-31"/>
      <point x="334" y="-49" type="curve" smooth="yes"/>
      <point x="331" y="-68"/>
      <point x="330" y="-85"/>
      <point x="330" y="-100" type="curve" smooth="yes"/>
      <point x="330" y="-183"/>
      <point x="358" y="-243"/>
      <point x="414" y="-280" type="curve" smooth="yes"/>
      <point x="470" y="-316"/>
      <point x="563" y="-334"/>
      <point x="694" y="-334" type="curve" smooth="yes"/>
      <point x="842" y="-334" type="line"/>
    </contour>
  </outline>
</glyph>
<glyph name="braceright" format="1">
  <advance width="1233"/>
  <unicode hex="007D"/>
  <note>
	braceright
  </note>
  <outline>
    <contour>
      <point x="149" y="-334" type="line" smooth="yes"/>
      <point x="314" y="-334"/>
      <point x="430" y="-309"/>
      <point x="496" y="-260" type="curve" smooth="yes"/>
      <point x="563" y="-211"/>
      <point x="610" y="-112"/>
      <point x="638" y="35" type="curve" smooth="yes"/>
      <point x="679" y="250" type="line" smooth="yes"/>
      <point x="698" y="350"/>
      <point x="730" y="419"/>
      <point x="774" y="458" type="curve" smooth="yes"/>
      <point x="818" y="497"/>
      <point x="887" y="516"/>
      <point x="980" y="516" type="curve" smooth="yes"/>
      <point x="1072" y="516" type="line"/>
      <point x="1109" y="707" type="line"/>
      <point x="1047" y="707" type="line" smooth="yes"/>
      <point x="970" y="707"/>
      <point x="910" y="719"/>
      <point x="869" y="742" type="curve" smooth="yes"/>
      <point x="834" y="762"/>
      <point x="806" y="793"/>
      <point x="806" y="864" type="curve" smooth="yes"/>
      <point x="806" y="877"/>
      <point x="807" y="890"/>
      <point x="810" y="911" type="curve" smooth="yes"/>
      <point x="812" y="927"/>
      <point x="816" y="951"/>
      <point x="820" y="972" type="curve" smooth="yes"/>
      <point x="861" y="1187" type="line"/>
      <point x="864" y="1202" type="line" smooth="yes"/>
      <point x="877" y="1267"/>
      <point x="884" y="1317"/>
      <point x="884" y="1351" type="curve" smooth="yes"/>
      <point x="884" y="1419"/>
      <point x="857" y="1476"/>
      <point x="802" y="1508" type="curve" smooth="yes"/>
      <point x="747" y="1540"/>
      <point x="652" y="1556"/>
      <point x="515" y="1556" type="curve" smooth="yes"/>
      <point x="368" y="1556" type="line"/>
      <point x="331" y="1366" type="line"/>
      <point x="452" y="1366" type="line" smooth="yes"/>
      <point x="506" y="1366"/>
      <point x="544" y="1358"/>
      <point x="566" y="1342" type="curve" smooth="yes"/>
      <point x="589" y="1325"/>
      <point x="599" y="1294"/>
      <point x="599" y="1257" type="curve"/>
      <point x="599" y="1252"/>
      <point x="600" y="1252"/>
      <point x="600" y="1247" type="curve" smooth="yes"/>
      <point x="600" y="1242"/>
      <point x="599" y="1234"/>
      <point x="596" y="1214" type="curve" smooth="yes"/>
      <point x="592" y="1183"/>
      <point x="589" y="1163"/>
      <point x="583" y="1139" type="curve"/>
      <point x="542" y="930" type="line" smooth="yes"/>
      <point x="537" y="904"/>
      <point x="532" y="867"/>
      <point x="530" y="852" type="curve" smooth="yes"/>
      <point x="527" y="828"/>
      <point x="526" y="807"/>
      <point x="526" y="792" type="curve" smooth="yes"/>
      <point x="526" y="737"/>
      <point x="540" y="698"/>
      <point x="568" y="670" type="curve" smooth="yes"/>
      <point x="596" y="642"/>
      <point x="641" y="623"/>
      <point x="704" y="612" type="curve"/>
      <point x="618" y="599"/>
      <point x="554" y="570"/>
      <point x="512" y="524" type="curve" smooth="yes"/>
      <point x="468" y="476"/>
      <point x="437" y="396"/>
      <point x="417" y="291" type="curve" smooth="yes"/>
      <point x="378" y="86" type="line" smooth="yes"/>
      <point x="360" y="-9"/>
      <point x="336" y="-71"/>
      <point x="306" y="-100" type="curve" smooth="yes"/>
      <point x="277" y="-128"/>
      <point x="223" y="-143"/>
      <point x="159" y="-143" type="curve" smooth="yes"/>
      <point x="36" y="-143" type="line"/>
      <point x="-1" y="-334" type="line"/>
    </contour>
  </outline>
</glyph>
<glyph name="asciitilde" format="1">
  <advance width="1233"/>
  <unicode hex="007E"/>
  <note>
	asciitilde
  </note>
  <outline>
    <contour>
      <point x="907" y="463"/>
      <point x="955" y="474"/>
      <point x="999" y="491" type="curve" smooth="yes"/>
      <point x="1048" y="510"/>
      <point x="1095" y="538"/>
      <point x="1145" y="578" type="curve"/>
      <point x="1145" y="811" type="line"/>
      <point x="1094" y="766"/>
      <point x="1048" y="737"/>
      <point x="1003" y="717" type="curve" smooth="yes"/>
      <point x="958" y="697"/>
      <point x="915" y="686"/>
      <point x="863" y="686" type="curve" smooth="yes"/>
      <point x="796" y="686"/>
      <point x="736" y="704"/>
      <point x="655" y="741" type="curve" smooth="yes"/>
      <point x="622" y="756" type="line" smooth="yes"/>
      <point x="580" y="775"/>
      <point x="529" y="791"/>
      <point x="498" y="798" type="curve" smooth="yes"/>
      <point x="467" y="805"/>
      <point x="429" y="809"/>
      <point x="394" y="809" type="curve" smooth="yes"/>
      <point x="342" y="809"/>
      <point x="288" y="800"/>
      <point x="239" y="782" type="curve" smooth="yes"/>
      <point x="190" y="764"/>
      <point x="140" y="735"/>
      <point x="88" y="694" type="curve"/>
      <point x="88" y="465" type="line"/>
      <point x="142" y="512"/>
      <point x="194" y="541"/>
      <point x="233" y="557" type="curve" smooth="yes"/>
      <point x="280" y="576"/>
      <point x="329" y="586"/>
      <point x="381" y="586" type="curve" smooth="yes"/>
      <point x="415" y="586"/>
      <point x="449" y="582"/>
      <point x="484" y="574" type="curve" smooth="yes"/>
      <point x="518" y="566"/>
      <point x="561" y="551"/>
      <point x="612" y="528" type="curve"/>
      <point x="615" y="527"/>
      <point x="615" y="526"/>
      <point x="645" y="514" type="curve" smooth="yes"/>
      <point x="715" y="485"/>
      <point x="770" y="463"/>
      <point x="850" y="463" type="curve" smooth="yes"/>
    </contour>
  </outline>
</glyph>
<glyph name="exclamdown" format="1">
  <advance width="1233"/>
  <unicode hex="00A1"/>
  <note>
	exclamdown
  </note>
  <outline>
    <contour>
      <point x="840" y="1210" type="line"/>
      <point x="895" y="1493" type="line"/>
      <point x="629" y="1493" type="line"/>
      <point x="573" y="1210" type="line"/>
    </contour>
    <contour>
      <point x="604" y="0" type="line"/>
      <point x="731" y="655" type="line"/>
      <point x="766" y="1012" type="line"/>
      <point x="567" y="1012" type="line"/>
      <point x="465" y="655" type="line"/>
      <point x="338" y="0" type="line"/>
    </contour>
  </outline>
</glyph>
<glyph name="cent" format="1">
  <advance width="1233"/>
  <unicode hex="00A2"/>
  <note>
	cent
  </note>
  <outline>
    <contour>
      <point x="1102" y="1077" type="line"/>
      <point x="1062" y="1098"/>
      <point x="1023" y="1114"/>
      <point x="985" y="1125" type="curve" smooth="yes"/>
      <point x="947" y="1136"/>
      <point x="910" y="1143"/>
      <point x="875" y="1145" type="curve"/>
      <point x="930" y="1432" type="line"/>
      <point x="788" y="1432" type="line"/>
      <point x="733" y="1145" type="line"/>
      <point x="651" y="1144"/>
      <point x="574" y="1128"/>
      <point x="503" y="1099" type="curve" smooth="yes"/>
      <point x="431" y="1069"/>
      <point x="368" y="1026"/>
      <point x="315" y="971" type="curve" smooth="yes"/>
      <point x="247" y="900"/>
      <point x="195" y="819"/>
      <point x="159" y="727" type="curve" smooth="yes"/>
      <point x="122" y="635"/>
      <point x="104" y="537"/>
      <point x="104" y="434" type="curve" smooth="yes"/>
      <point x="104" y="301"/>
      <point x="139" y="195"/>
      <point x="208" y="116" type="curve" smooth="yes"/>
      <point x="277" y="37"/>
      <point x="377" y="-10"/>
      <point x="506" y="-25" type="curve"/>
      <point x="451" y="-313" type="line"/>
      <point x="592" y="-313" type="line"/>
      <point x="647" y="-25" type="line"/>
      <point x="690" y="-23"/>
      <point x="733" y="-16"/>
      <point x="776" y="-5" type="curve" smooth="yes"/>
      <point x="818" y="6"/>
      <point x="860" y="22"/>
      <point x="901" y="43" type="curve"/>
      <point x="952" y="307" type="line"/>
      <point x="909" y="280"/>
      <point x="867" y="258"/>
      <point x="824" y="243" type="curve" smooth="yes"/>
      <point x="781" y="228"/>
      <point x="738" y="218"/>
      <point x="695" y="215" type="curve"/>
      <point x="830" y="907" type="line"/>
      <point x="873" y="902"/>
      <point x="912" y="892"/>
      <point x="949" y="877" type="curve" smooth="yes"/>
      <point x="986" y="861"/>
      <point x="1019" y="840"/>
      <point x="1049" y="813" type="curve"/>
    </contour>
    <contour>
      <point x="552" y="215" type="line"/>
      <point x="497" y="217"/>
      <point x="452" y="240"/>
      <point x="417" y="285" type="curve" smooth="yes"/>
      <point x="382" y="329"/>
      <point x="365" y="386"/>
      <point x="365" y="457" type="curve" smooth="yes"/>
      <point x="365" y="573"/>
      <point x="396" y="675"/>
      <point x="459" y="762" type="curve" smooth="yes"/>
      <point x="521" y="849"/>
      <point x="597" y="897"/>
      <point x="688" y="907" type="curve"/>
    </contour>
  </outline>
</glyph>
<glyph name="sterling" format="1">
  <advance width="1233"/>
  <unicode hex="00A3"/>
  <note>
	sterling
  </note>
  <outline>
    <contour>
      <point x="1245" y="1456" type="line"/>
      <point x="1198" y="1477"/>
      <point x="1150" y="1493"/>
      <point x="1102" y="1504" type="curve" smooth="yes"/>
      <point x="1054" y="1515"/>
      <point x="1005" y="1520"/>
      <point x="956" y="1520" type="curve" smooth="yes"/>
      <point x="797" y="1520"/>
      <point x="674" y="1481"/>
      <point x="589" y="1402" type="curve" smooth="yes"/>
      <point x="504" y="1323"/>
      <point x="444" y="1195"/>
      <point x="410" y="1016" type="curve" smooth="yes"/>
      <point x="373" y="819" type="line"/>
      <point x="174" y="819" type="line"/>
      <point x="129" y="594" type="line"/>
      <point x="328" y="594" type="line"/>
      <point x="264" y="260" type="line"/>
      <point x="29" y="260" type="line"/>
      <point x="-23" y="0" type="line"/>
      <point x="981" y="0" type="line"/>
      <point x="1032" y="260" type="line"/>
      <point x="551" y="260" type="line"/>
      <point x="614" y="594" type="line"/>
      <point x="952" y="594" type="line"/>
      <point x="995" y="819" type="line"/>
      <point x="659" y="819" type="line"/>
      <point x="692" y="995" type="line" smooth="yes"/>
      <point x="711" y="1090"/>
      <point x="741" y="1160"/>
      <point x="784" y="1205" type="curve" smooth="yes"/>
      <point x="826" y="1250"/>
      <point x="882" y="1272"/>
      <point x="952" y="1272" type="curve" smooth="yes"/>
      <point x="993" y="1272"/>
      <point x="1034" y="1265"/>
      <point x="1073" y="1252" type="curve" smooth="yes"/>
      <point x="1112" y="1238"/>
      <point x="1152" y="1217"/>
      <point x="1192" y="1190" type="curve"/>
    </contour>
  </outline>
</glyph>
<glyph name="currency" format="1">
  <advance width="1233"/>
  <unicode hex="00A4"/>
  <note>
	currency
  </note>
  <outline>
    <contour>
      <point x="827" y="594"/>
      <point x="810" y="552"/>
      <point x="777" y="518" type="curve" smooth="yes"/>
      <point x="744" y="484"/>
      <point x="702" y="467"/>
      <point x="653" y="467" type="curve" smooth="yes"/>
      <point x="604" y="467"/>
      <point x="563" y="484"/>
      <point x="530" y="518" type="curve" smooth="yes"/>
      <point x="496" y="552"/>
      <point x="479" y="594"/>
      <point x="479" y="643" type="curve" smooth="yes"/>
      <point x="479" y="692"/>
      <point x="496" y="733"/>
      <point x="530" y="766" type="curve" smooth="yes"/>
      <point x="563" y="799"/>
      <point x="604" y="815"/>
      <point x="653" y="815" type="curve" smooth="yes"/>
      <point x="702" y="815"/>
      <point x="744" y="799"/>
      <point x="777" y="766" type="curve" smooth="yes"/>
      <point x="810" y="733"/>
      <point x="827" y="692"/>
      <point x="827" y="643" type="curve" smooth="yes"/>
    </contour>
    <contour>
      <point x="819" y="938" type="line"/>
      <point x="788" y="953"/>
      <point x="760" y="965"/>
      <point x="733" y="972" type="curve" smooth="yes"/>
      <point x="706" y="979"/>
      <point x="679" y="983"/>
      <point x="653" y="983" type="curve" smooth="yes"/>
      <point x="622" y="983"/>
      <point x="593" y="979"/>
      <point x="566" y="972" type="curve" smooth="yes"/>
      <point x="538" y="964"/>
      <point x="510" y="952"/>
      <point x="483" y="936" type="curve"/>
      <point x="317" y="1108" type="line"/>
      <point x="186" y="977" type="line"/>
      <point x="358" y="807" type="line"/>
      <point x="342" y="782"/>
      <point x="330" y="756"/>
      <point x="323" y="729" type="curve" smooth="yes"/>
      <point x="315" y="702"/>
      <point x="311" y="672"/>
      <point x="311" y="641" type="curve" smooth="yes"/>
      <point x="311" y="614"/>
      <point x="315" y="586"/>
      <point x="323" y="559" type="curve" smooth="yes"/>
      <point x="330" y="531"/>
      <point x="341" y="503"/>
      <point x="356" y="475" type="curve"/>
      <point x="186" y="305" type="line"/>
      <point x="315" y="176" type="line"/>
      <point x="485" y="344" type="line"/>
      <point x="515" y="329"/>
      <point x="544" y="319"/>
      <point x="572" y="312" type="curve" smooth="yes"/>
      <point x="600" y="305"/>
      <point x="627" y="301"/>
      <point x="653" y="301" type="curve" smooth="yes"/>
      <point x="685" y="301"/>
      <point x="714" y="305"/>
      <point x="741" y="313" type="curve" smooth="yes"/>
      <point x="768" y="320"/>
      <point x="793" y="332"/>
      <point x="817" y="348" type="curve"/>
      <point x="987" y="176" type="line"/>
      <point x="1118" y="307" type="line"/>
      <point x="946" y="477" type="line"/>
      <point x="962" y="501"/>
      <point x="974" y="527"/>
      <point x="982" y="554" type="curve" smooth="yes"/>
      <point x="989" y="581"/>
      <point x="993" y="610"/>
      <point x="993" y="641" type="curve" smooth="yes"/>
      <point x="993" y="670"/>
      <point x="989" y="699"/>
      <point x="982" y="727" type="curve" smooth="yes"/>
      <point x="975" y="754"/>
      <point x="963" y="782"/>
      <point x="948" y="809" type="curve"/>
      <point x="1118" y="979" type="line"/>
      <point x="991" y="1108" type="line"/>
    </contour>
  </outline>
</glyph>
<glyph name="brokenbar" format="1">
  <advance width="1233"/>
  <unicode hex="00A6"/>
  <note>
	brokenbar
  </note>
  <outline>
    <contour>
      <point x="729" y="408" type="line"/>
      <point x="502" y="408" type="line"/>
      <point x="502" y="-350" type="line"/>
      <point x="729" y="-350" type="line"/>
    </contour>
    <contour>
      <point x="729" y="1432" type="line"/>
      <point x="502" y="1432" type="line"/>
      <point x="502" y="674" type="line"/>
      <point x="729" y="674" type="line"/>
    </contour>
  </outline>
</glyph>
<glyph name="section" format="1">
  <advance width="1233"/>
  <unicode hex="00A7"/>
  <note>
	section
  </note>
  <outline>
    <contour>
      <point x="729" y="741" type="line" smooth="yes"/>
      <point x="752" y="725"/>
      <point x="769" y="706"/>
      <point x="782" y="685" type="curve" smooth="yes"/>
      <point x="795" y="664"/>
      <point x="801" y="641"/>
      <point x="801" y="618" type="curve" smooth="yes"/>
      <point x="801" y="591"/>
      <point x="791" y="563"/>
      <point x="770" y="534" type="curve" smooth="yes"/>
      <point x="749" y="505"/>
      <point x="720" y="477"/>
      <point x="682" y="451" type="curve"/>
      <point x="655" y="468"/>
      <point x="631" y="483"/>
      <point x="612" y="496" type="curve" smooth="yes"/>
      <point x="593" y="509"/>
      <point x="576" y="520"/>
      <point x="561" y="530" type="curve" smooth="yes"/>
      <point x="483" y="584" type="line" smooth="yes"/>
      <point x="458" y="601"/>
      <point x="439" y="620"/>
      <point x="428" y="639" type="curve" smooth="yes"/>
      <point x="416" y="658"/>
      <point x="410" y="681"/>
      <point x="410" y="707" type="curve" smooth="yes"/>
      <point x="410" y="732"/>
      <point x="420" y="760"/>
      <point x="441" y="789" type="curve" smooth="yes"/>
      <point x="462" y="818"/>
      <point x="491" y="848"/>
      <point x="530" y="877" type="curve"/>
      <point x="555" y="859"/>
      <point x="581" y="841"/>
      <point x="608" y="823" type="curve" smooth="yes"/>
      <point x="635" y="804"/>
      <point x="648" y="795"/>
      <point x="649" y="795" type="curve"/>
    </contour>
    <contour>
      <point x="1059" y="1460" type="line"/>
      <point x="1001" y="1480"/>
      <point x="945" y="1495"/>
      <point x="892" y="1505" type="curve" smooth="yes"/>
      <point x="839" y="1515"/>
      <point x="788" y="1520"/>
      <point x="741" y="1520" type="curve" smooth="yes"/>
      <point x="614" y="1520"/>
      <point x="511" y="1488"/>
      <point x="433" y="1423" type="curve" smooth="yes"/>
      <point x="354" y="1358"/>
      <point x="315" y="1274"/>
      <point x="315" y="1169" type="curve" smooth="yes"/>
      <point x="315" y="1127"/>
      <point x="323" y="1090"/>
      <point x="339" y="1057" type="curve" smooth="yes"/>
      <point x="355" y="1024"/>
      <point x="380" y="994"/>
      <point x="414" y="967" type="curve"/>
      <point x="338" y="934"/>
      <point x="280" y="891"/>
      <point x="239" y="840" type="curve" smooth="yes"/>
      <point x="198" y="789"/>
      <point x="178" y="732"/>
      <point x="178" y="670" type="curve" smooth="yes"/>
      <point x="178" y="620"/>
      <point x="191" y="576"/>
      <point x="218" y="538" type="curve" smooth="yes"/>
      <point x="245" y="499"/>
      <point x="294" y="456"/>
      <point x="367" y="408" type="curve" smooth="yes"/>
      <point x="467" y="340" type="line"/>
      <point x="485" y="328" type="line" smooth="yes"/>
      <point x="586" y="261"/>
      <point x="637" y="204"/>
      <point x="637" y="158" type="curve" smooth="yes"/>
      <point x="637" y="116"/>
      <point x="621" y="84"/>
      <point x="590" y="61" type="curve" smooth="yes"/>
      <point x="559" y="38"/>
      <point x="514" y="27"/>
      <point x="457" y="27" type="curve" smooth="yes"/>
      <point x="407" y="27"/>
      <point x="356" y="33"/>
      <point x="303" y="44" type="curve" smooth="yes"/>
      <point x="250" y="55"/>
      <point x="199" y="72"/>
      <point x="150" y="94" type="curve"/>
      <point x="104" y="-135" type="line"/>
      <point x="169" y="-155"/>
      <point x="232" y="-170"/>
      <point x="291" y="-180" type="curve" smooth="yes"/>
      <point x="350" y="-190"/>
      <point x="406" y="-195"/>
      <point x="461" y="-195" type="curve" smooth="yes"/>
      <point x="591" y="-195"/>
      <point x="696" y="-163"/>
      <point x="776" y="-100" type="curve" smooth="yes"/>
      <point x="855" y="-37"/>
      <point x="895" y="46"/>
      <point x="895" y="147" type="curve" smooth="yes"/>
      <point x="895" y="189"/>
      <point x="888" y="227"/>
      <point x="874" y="261" type="curve" smooth="yes"/>
      <point x="859" y="294"/>
      <point x="837" y="325"/>
      <point x="807" y="354" type="curve"/>
      <point x="883" y="399"/>
      <point x="940" y="446"/>
      <point x="977" y="496" type="curve" smooth="yes"/>
      <point x="1014" y="546"/>
      <point x="1032" y="599"/>
      <point x="1032" y="655" type="curve" smooth="yes"/>
      <point x="1032" y="706"/>
      <point x="1018" y="751"/>
      <point x="990" y="792" type="curve" smooth="yes"/>
      <point x="961" y="833"/>
      <point x="914" y="875"/>
      <point x="848" y="918" type="curve" smooth="yes"/>
      <point x="743" y="985" type="line" smooth="yes"/>
      <point x="670" y="1031"/>
      <point x="624" y="1066"/>
      <point x="604" y="1090" type="curve" smooth="yes"/>
      <point x="583" y="1114"/>
      <point x="573" y="1140"/>
      <point x="573" y="1167" type="curve" smooth="yes"/>
      <point x="573" y="1209"/>
      <point x="589" y="1241"/>
      <point x="620" y="1264" type="curve" smooth="yes"/>
      <point x="651" y="1287"/>
      <point x="695" y="1298"/>
      <point x="752" y="1298" type="curve" smooth="yes"/>
      <point x="794" y="1298"/>
      <point x="837" y="1293"/>
      <point x="881" y="1282" type="curve" smooth="yes"/>
      <point x="924" y="1271"/>
      <point x="969" y="1254"/>
      <point x="1014" y="1231" type="curve"/>
    </contour>
  </outline>
</glyph>
<glyph name="copyright" format="1">
  <advance width="1233"/>
  <unicode hex="00A9"/>
  <note>
	copyright
  </note>
  <outline>
    <contour>
      <point x="848" y="1049" type="line"/>
      <point x="814" y="1060"/>
      <point x="780" y="1069"/>
      <point x="745" y="1075" type="curve" smooth="yes"/>
      <point x="710" y="1080"/>
      <point x="674" y="1083"/>
      <point x="637" y="1083" type="curve" smooth="yes"/>
      <point x="524" y="1083"/>
      <point x="434" y="1052"/>
      <point x="367" y="990" type="curve" smooth="yes"/>
      <point x="300" y="928"/>
      <point x="266" y="845"/>
      <point x="266" y="741" type="curve" smooth="yes"/>
      <point x="266" y="638"/>
      <point x="300" y="555"/>
      <point x="367" y="493" type="curve" smooth="yes"/>
      <point x="434" y="430"/>
      <point x="524" y="399"/>
      <point x="637" y="399" type="curve" smooth="yes"/>
      <point x="670" y="399"/>
      <point x="705" y="402"/>
      <point x="740" y="408" type="curve" smooth="yes"/>
      <point x="775" y="414"/>
      <point x="811" y="423"/>
      <point x="848" y="434" type="curve"/>
      <point x="848" y="602" type="line"/>
      <point x="820" y="582"/>
      <point x="790" y="567"/>
      <point x="758" y="558" type="curve" smooth="yes"/>
      <point x="726" y="548"/>
      <point x="692" y="543"/>
      <point x="657" y="543" type="curve" smooth="yes"/>
      <point x="592" y="543"/>
      <point x="541" y="560"/>
      <point x="506" y="595" type="curve" smooth="yes"/>
      <point x="471" y="629"/>
      <point x="453" y="678"/>
      <point x="453" y="741" type="curve" smooth="yes"/>
      <point x="453" y="804"/>
      <point x="471" y="853"/>
      <point x="507" y="888" type="curve" smooth="yes"/>
      <point x="542" y="923"/>
      <point x="592" y="940"/>
      <point x="657" y="940" type="curve" smooth="yes"/>
      <point x="689" y="940"/>
      <point x="720" y="935"/>
      <point x="751" y="926" type="curve" smooth="yes"/>
      <point x="781" y="917"/>
      <point x="813" y="902"/>
      <point x="848" y="881" type="curve"/>
    </contour>
    <contour>
      <point x="532" y="1358"/>
      <point x="454" y="1343"/>
      <point x="381" y="1313" type="curve" smooth="yes"/>
      <point x="308" y="1283"/>
      <point x="242" y="1238"/>
      <point x="182" y="1178" type="curve" smooth="yes"/>
      <point x="122" y="1117"/>
      <point x="77" y="1050"/>
      <point x="46" y="977" type="curve" smooth="yes"/>
      <point x="15" y="904"/>
      <point x="0" y="825"/>
      <point x="0" y="741" type="curve" smooth="yes"/>
      <point x="0" y="658"/>
      <point x="15" y="580"/>
      <point x="45" y="507" type="curve" smooth="yes"/>
      <point x="76" y="434"/>
      <point x="121" y="368"/>
      <point x="182" y="307" type="curve" smooth="yes"/>
      <point x="243" y="246"/>
      <point x="309" y="201"/>
      <point x="382" y="171" type="curve" smooth="yes"/>
      <point x="455" y="140"/>
      <point x="533" y="125"/>
      <point x="616" y="125" type="curve" smooth="yes"/>
      <point x="700" y="125"/>
      <point x="778" y="140"/>
      <point x="851" y="171" type="curve" smooth="yes"/>
      <point x="924" y="201"/>
      <point x="990" y="246"/>
      <point x="1051" y="307" type="curve" smooth="yes"/>
      <point x="1112" y="368"/>
      <point x="1157" y="434"/>
      <point x="1188" y="507" type="curve" smooth="yes"/>
      <point x="1218" y="580"/>
      <point x="1233" y="658"/>
      <point x="1233" y="741" type="curve" smooth="yes"/>
      <point x="1233" y="825"/>
      <point x="1218" y="904"/>
      <point x="1187" y="977" type="curve" smooth="yes"/>
      <point x="1156" y="1050"/>
      <point x="1111" y="1117"/>
      <point x="1051" y="1178" type="curve" smooth="yes"/>
      <point x="991" y="1238"/>
      <point x="925" y="1283"/>
      <point x="852" y="1313" type="curve" smooth="yes"/>
      <point x="779" y="1343"/>
      <point x="701" y="1358"/>
      <point x="616" y="1358" type="curve" smooth="yes"/>
    </contour>
    <contour>
      <point x="683" y="1229"/>
      <point x="745" y="1217"/>
      <point x="802" y="1194" type="curve" smooth="yes"/>
      <point x="858" y="1170"/>
      <point x="910" y="1134"/>
      <point x="958" y="1085" type="curve" smooth="yes"/>
      <point x="1006" y="1038"/>
      <point x="1042" y="985"/>
      <point x="1066" y="928" type="curve" smooth="yes"/>
      <point x="1090" y="871"/>
      <point x="1102" y="808"/>
      <point x="1102" y="741" type="curve" smooth="yes"/>
      <point x="1102" y="676"/>
      <point x="1090" y="615"/>
      <point x="1066" y="558" type="curve" smooth="yes"/>
      <point x="1042" y="501"/>
      <point x="1006" y="449"/>
      <point x="958" y="401" type="curve" smooth="yes"/>
      <point x="911" y="353"/>
      <point x="859" y="317"/>
      <point x="802" y="293" type="curve" smooth="yes"/>
      <point x="745" y="268"/>
      <point x="683" y="256"/>
      <point x="616" y="256" type="curve" smooth="yes"/>
      <point x="550" y="256"/>
      <point x="488" y="268"/>
      <point x="431" y="293" type="curve" smooth="yes"/>
      <point x="374" y="317"/>
      <point x="321" y="353"/>
      <point x="274" y="401" type="curve" smooth="yes"/>
      <point x="227" y="449"/>
      <point x="191" y="501"/>
      <point x="167" y="558" type="curve" smooth="yes"/>
      <point x="143" y="615"/>
      <point x="131" y="676"/>
      <point x="131" y="741" type="curve" smooth="yes"/>
      <point x="131" y="808"/>
      <point x="143" y="871"/>
      <point x="167" y="928" type="curve" smooth="yes"/>
      <point x="191" y="985"/>
      <point x="227" y="1038"/>
      <point x="274" y="1085" type="curve" smooth="yes"/>
      <point x="323" y="1134"/>
      <point x="375" y="1170"/>
      <point x="432" y="1194" type="curve" smooth="yes"/>
      <point x="489" y="1217"/>
      <point x="550" y="1229"/>
      <point x="616" y="1229" type="curve" smooth="yes"/>
    </contour>
  </outline>
</glyph>
<glyph name="ordfeminine" format="1">
  <advance width="1233"/>
  <unicode hex="00AA"/>
  <note>
	ordfeminine
  </note>
  <outline>
    <contour>
      <point x="1032" y="1165" type="line" smooth="yes"/>
      <point x="1039" y="1202"/>
      <point x="1044" y="1232"/>
      <point x="1047" y="1255" type="curve" smooth="yes"/>
      <point x="1050" y="1278"/>
      <point x="1051" y="1300"/>
      <point x="1051" y="1321" type="curve" smooth="yes"/>
      <point x="1051" y="1384"/>
      <point x="1024" y="1433"/>
      <point x="969" y="1468" type="curve" smooth="yes"/>
      <point x="914" y="1503"/>
      <point x="838" y="1520"/>
      <point x="739" y="1520" type="curve" smooth="yes"/>
      <point x="696" y="1520"/>
      <point x="650" y="1515"/>
      <point x="603" y="1506" type="curve" smooth="yes"/>
      <point x="555" y="1497"/>
      <point x="504" y="1483"/>
      <point x="451" y="1464" type="curve"/>
      <point x="418" y="1290" type="line"/>
      <point x="473" y="1315"/>
      <point x="526" y="1335"/>
      <point x="575" y="1348" type="curve" smooth="yes"/>
      <point x="624" y="1361"/>
      <point x="667" y="1368"/>
      <point x="705" y="1368" type="curve" smooth="yes"/>
      <point x="752" y="1368"/>
      <point x="787" y="1361"/>
      <point x="812" y="1347" type="curve" smooth="yes"/>
      <point x="836" y="1333"/>
      <point x="848" y="1313"/>
      <point x="848" y="1286" type="curve" smooth="yes"/>
      <point x="848" y="1281"/>
      <point x="848" y="1278"/>
      <point x="848" y="1275" type="curve" smooth="yes"/>
      <point x="847" y="1272"/>
      <point x="847" y="1270"/>
      <point x="846" y="1268" type="curve"/>
      <point x="840" y="1233" type="line"/>
      <point x="705" y="1233" type="line" smooth="yes"/>
      <point x="566" y="1233"/>
      <point x="460" y="1206"/>
      <point x="386" y="1153" type="curve" smooth="yes"/>
      <point x="311" y="1100"/>
      <point x="274" y="1023"/>
      <point x="274" y="924" type="curve" smooth="yes"/>
      <point x="274" y="855"/>
      <point x="295" y="800"/>
      <point x="338" y="759" type="curve" smooth="yes"/>
      <point x="380" y="718"/>
      <point x="437" y="698"/>
      <point x="508" y="698" type="curve" smooth="yes"/>
      <point x="561" y="698"/>
      <point x="608" y="707"/>
      <point x="649" y="725" type="curve" smooth="yes"/>
      <point x="690" y="742"/>
      <point x="725" y="769"/>
      <point x="756" y="805" type="curve"/>
      <point x="737" y="717" type="line"/>
      <point x="944" y="717" type="line"/>
    </contour>
    <contour>
      <point x="811" y="1087" type="line"/>
      <point x="798" y="1007"/>
      <point x="772" y="946"/>
      <point x="735" y="903" type="curve" smooth="yes"/>
      <point x="698" y="860"/>
      <point x="651" y="838"/>
      <point x="594" y="838" type="curve" smooth="yes"/>
      <point x="565" y="838"/>
      <point x="540" y="848"/>
      <point x="521" y="867" type="curve" smooth="yes"/>
      <point x="502" y="886"/>
      <point x="492" y="911"/>
      <point x="492" y="940" type="curve" smooth="yes"/>
      <point x="492" y="990"/>
      <point x="512" y="1027"/>
      <point x="551" y="1051" type="curve" smooth="yes"/>
      <point x="590" y="1075"/>
      <point x="650" y="1087"/>
      <point x="731" y="1087" type="curve" smooth="yes"/>
    </contour>
    <contour>
      <point x="246" y="598" type="line"/>
      <point x="211" y="428" type="line"/>
      <point x="899" y="428" type="line"/>
      <point x="934" y="598" type="line"/>
    </contour>
  </outline>
</glyph>
<glyph name="guillemetleft" format="1">
  <advance width="1233"/>
  <unicode hex="00AB"/>
  <note>
	guillemotleft
  </note>
  <outline>
    <contour>
      <point x="536" y="379" type="line"/>
      <point x="303" y="600" type="line"/>
      <point x="622" y="821" type="line"/>
      <point x="669" y="1059" type="line"/>
      <point x="122" y="666" type="line"/>
      <point x="98" y="535" type="line"/>
      <point x="491" y="141" type="line"/>
    </contour>
    <contour>
      <point x="991" y="379" type="line"/>
      <point x="757" y="600" type="line"/>
      <point x="1077" y="821" type="line"/>
      <point x="1122" y="1059" type="line"/>
      <point x="577" y="666" type="line"/>
      <point x="552" y="535" type="line"/>
      <point x="946" y="141" type="line"/>
    </contour>
  </outline>
</glyph>
<glyph name="twosuperior" format="1">
  <advance width="1233"/>
  <unicode hex="00B2"/>
  <note>
	twosuperior
  </note>
  <outline>
    <contour>
      <point x="924" y="668" type="line"/>
      <point x="952" y="813" type="line"/>
      <point x="514" y="813" type="line"/>
      <point x="607" y="879"/>
      <point x="583" y="861"/>
      <point x="618" y="886" type="curve" smooth="yes"/>
      <point x="905" y="1088"/>
      <point x="1028" y="1217"/>
      <point x="1028" y="1325" type="curve" smooth="yes"/>
      <point x="1028" y="1373"/>
      <point x="1004" y="1428"/>
      <point x="950" y="1466" type="curve" smooth="yes"/>
      <point x="895" y="1505"/>
      <point x="819" y="1520"/>
      <point x="728" y="1520" type="curve" smooth="yes"/>
      <point x="681" y="1520"/>
      <point x="632" y="1516"/>
      <point x="583" y="1508" type="curve" smooth="yes"/>
      <point x="534" y="1500"/>
      <point x="485" y="1488"/>
      <point x="434" y="1473" type="curve"/>
      <point x="403" y="1311" type="line"/>
      <point x="451" y="1333"/>
      <point x="505" y="1352"/>
      <point x="555" y="1364" type="curve" smooth="yes"/>
      <point x="604" y="1376"/>
      <point x="651" y="1382"/>
      <point x="691" y="1382" type="curve" smooth="yes"/>
      <point x="737" y="1382"/>
      <point x="772" y="1374"/>
      <point x="795" y="1358" type="curve" smooth="yes"/>
      <point x="819" y="1341"/>
      <point x="831" y="1315"/>
      <point x="831" y="1294" type="curve" smooth="yes"/>
      <point x="831" y="1229"/>
      <point x="721" y="1119"/>
      <point x="431" y="911" type="curve" smooth="yes"/>
      <point x="367" y="865"/>
      <point x="380" y="876"/>
      <point x="289" y="809" type="curve"/>
      <point x="260" y="668" type="line"/>
    </contour>
  </outline>
</glyph>
<glyph name="threesuperior" format="1">
  <advance width="1233"/>
  <unicode hex="00B3"/>
  <note>
	threesuperior
  </note>
  <outline>
    <contour>
      <point x="639" y="1042" type="line" smooth="yes"/>
      <point x="689" y="1042"/>
      <point x="729" y="1033"/>
      <point x="758" y="1016" type="curve" smooth="yes"/>
      <point x="787" y="998"/>
      <point x="801" y="974"/>
      <point x="801" y="944" type="curve" smooth="yes"/>
      <point x="801" y="897"/>
      <point x="783" y="861"/>
      <point x="746" y="834" type="curve" smooth="yes"/>
      <point x="709" y="807"/>
      <point x="658" y="793"/>
      <point x="594" y="793" type="curve" smooth="yes"/>
      <point x="541" y="793"/>
      <point x="491" y="798"/>
      <point x="442" y="807" type="curve" smooth="yes"/>
      <point x="393" y="816"/>
      <point x="348" y="830"/>
      <point x="307" y="848" type="curve"/>
      <point x="276" y="694" type="line"/>
      <point x="322" y="681"/>
      <point x="370" y="671"/>
      <point x="419" y="664" type="curve" smooth="yes"/>
      <point x="468" y="657"/>
      <point x="517" y="653"/>
      <point x="567" y="653" type="curve" smooth="yes"/>
      <point x="702" y="653"/>
      <point x="807" y="678"/>
      <point x="880" y="727" type="curve" smooth="yes"/>
      <point x="953" y="776"/>
      <point x="989" y="845"/>
      <point x="989" y="934" type="curve" smooth="yes"/>
      <point x="989" y="983"/>
      <point x="973" y="1025"/>
      <point x="940" y="1058" type="curve" smooth="yes"/>
      <point x="907" y="1091"/>
      <point x="862" y="1110"/>
      <point x="807" y="1116" type="curve"/>
      <point x="882" y="1124"/>
      <point x="939" y="1147"/>
      <point x="980" y="1184" type="curve" smooth="yes"/>
      <point x="1020" y="1221"/>
      <point x="1040" y="1269"/>
      <point x="1040" y="1329" type="curve" smooth="yes"/>
      <point x="1040" y="1388"/>
      <point x="1014" y="1435"/>
      <point x="961" y="1469" type="curve" smooth="yes"/>
      <point x="908" y="1503"/>
      <point x="835" y="1520"/>
      <point x="741" y="1520" type="curve" smooth="yes"/>
      <point x="697" y="1520"/>
      <point x="652" y="1517"/>
      <point x="605" y="1511" type="curve" smooth="yes"/>
      <point x="558" y="1505"/>
      <point x="510" y="1496"/>
      <point x="461" y="1485" type="curve"/>
      <point x="432" y="1333" type="line"/>
      <point x="485" y="1348"/>
      <point x="535" y="1360"/>
      <point x="581" y="1368" type="curve" smooth="yes"/>
      <point x="627" y="1376"/>
      <point x="666" y="1380"/>
      <point x="698" y="1380" type="curve" smooth="yes"/>
      <point x="745" y="1380"/>
      <point x="781" y="1372"/>
      <point x="808" y="1357" type="curve" smooth="yes"/>
      <point x="835" y="1342"/>
      <point x="848" y="1321"/>
      <point x="848" y="1294" type="curve" smooth="yes"/>
      <point x="848" y="1260"/>
      <point x="832" y="1234"/>
      <point x="801" y="1216" type="curve" smooth="yes"/>
      <point x="770" y="1197"/>
      <point x="725" y="1188"/>
      <point x="666" y="1188" type="curve" smooth="yes"/>
      <point x="557" y="1188" type="line"/>
      <point x="528" y="1042" type="line"/>
    </contour>
  </outline>
</glyph>
<glyph name="mu" format="1">
  <advance width="1233"/>
  <unicode hex="00B5"/>
  <note>
	mu
  </note>
  <outline>
    <contour>
      <point x="-55" y="-428" type="line"/>
      <point x="233" y="-428" type="line"/>
      <point x="330" y="66" type="line"/>
      <point x="340" y="35"/>
      <point x="358" y="11"/>
      <point x="383" y="-5" type="curve" smooth="yes"/>
      <point x="408" y="-21"/>
      <point x="440" y="-29"/>
      <point x="479" y="-29" type="curve" smooth="yes"/>
      <point x="526" y="-29"/>
      <point x="570" y="-16"/>
      <point x="611" y="11" type="curve" smooth="yes"/>
      <point x="652" y="37"/>
      <point x="690" y="76"/>
      <point x="725" y="129" type="curve"/>
      <point x="733" y="74"/>
      <point x="750" y="34"/>
      <point x="775" y="9" type="curve" smooth="yes"/>
      <point x="800" y="-17"/>
      <point x="837" y="-29"/>
      <point x="885" y="-29" type="curve" smooth="yes"/>
      <point x="909" y="-29"/>
      <point x="934" y="-25"/>
      <point x="961" y="-18" type="curve" smooth="yes"/>
      <point x="988" y="-11"/>
      <point x="1016" y="1"/>
      <point x="1047" y="16" type="curve"/>
      <point x="1090" y="238" type="line"/>
      <point x="1076" y="229"/>
      <point x="1064" y="223"/>
      <point x="1055" y="219" type="curve" smooth="yes"/>
      <point x="1045" y="215"/>
      <point x="1036" y="213"/>
      <point x="1028" y="213" type="curve" smooth="yes"/>
      <point x="1015" y="213"/>
      <point x="1005" y="218"/>
      <point x="998" y="227" type="curve" smooth="yes"/>
      <point x="991" y="236"/>
      <point x="987" y="250"/>
      <point x="987" y="268" type="curve" smooth="yes"/>
      <point x="987" y="273"/>
      <point x="988" y="282"/>
      <point x="990" y="293" type="curve" smooth="yes"/>
      <point x="991" y="304"/>
      <point x="994" y="321"/>
      <point x="997" y="344" type="curve"/>
      <point x="1147" y="1120" type="line"/>
      <point x="858" y="1120" type="line"/>
      <point x="727" y="440" type="line" smooth="yes"/>
      <point x="712" y="363"/>
      <point x="687" y="306"/>
      <point x="653" y="269" type="curve" smooth="yes"/>
      <point x="619" y="232"/>
      <point x="575" y="213"/>
      <point x="520" y="213" type="curve" smooth="yes"/>
      <point x="479" y="213"/>
      <point x="448" y="225"/>
      <point x="425" y="248" type="curve" smooth="yes"/>
      <point x="402" y="271"/>
      <point x="391" y="304"/>
      <point x="391" y="346" type="curve" smooth="yes"/>
      <point x="391" y="358"/>
      <point x="392" y="372"/>
      <point x="394" y="388" type="curve" smooth="yes"/>
      <point x="396" y="404"/>
      <point x="399" y="421"/>
      <point x="403" y="440" type="curve" smooth="yes"/>
      <point x="535" y="1120" type="line"/>
      <point x="246" y="1120" type="line"/>
    </contour>
  </outline>
</glyph>
<glyph name="cedilla" format="1">
  <advance width="1233"/>
  <unicode hex="00B8"/>
  <note>
	cedilla
  </note>
  <outline>
    <contour>
      <point x="422" y="0" type="line"/>
      <point x="443" y="-37"/>
      <point x="457" y="-67"/>
      <point x="466" y="-90" type="curve" smooth="yes"/>
      <point x="475" y="-113"/>
      <point x="479" y="-133"/>
      <point x="479" y="-150" type="curve" smooth="yes"/>
      <point x="479" y="-183"/>
      <point x="467" y="-209"/>
      <point x="443" y="-227" type="curve" smooth="yes"/>
      <point x="418" y="-245"/>
      <point x="383" y="-254"/>
      <point x="338" y="-254" type="curve" smooth="yes"/>
      <point x="315" y="-254"/>
      <point x="289" y="-251"/>
      <point x="262" y="-245" type="curve" smooth="yes"/>
      <point x="235" y="-239"/>
      <point x="207" y="-230"/>
      <point x="178" y="-219" type="curve"/>
      <point x="150" y="-375" type="line"/>
      <point x="182" y="-384"/>
      <point x="215" y="-390"/>
      <point x="249" y="-395" type="curve" smooth="yes"/>
      <point x="283" y="-399"/>
      <point x="317" y="-401"/>
      <point x="352" y="-401" type="curve" smooth="yes"/>
      <point x="439" y="-401"/>
      <point x="508" y="-381"/>
      <point x="559" y="-342" type="curve" smooth="yes"/>
      <point x="610" y="-303"/>
      <point x="635" y="-250"/>
      <point x="635" y="-184" type="curve" smooth="yes"/>
      <point x="635" y="-155"/>
      <point x="629" y="-125"/>
      <point x="617" y="-94" type="curve" smooth="yes"/>
      <point x="605" y="-63"/>
      <point x="587" y="-32"/>
      <point x="563" y="0" type="curve"/>
    </contour>
  </outline>
</glyph>
<glyph name="onesuperior" format="1">
  <advance width="1233"/>
  <unicode hex="00B9"/>
  <note>
	onesuperior
  </note>
  <outline>
    <contour>
      <point x="946" y="668" type="line"/>
      <point x="975" y="813" type="line"/>
      <point x="748" y="813" type="line"/>
      <point x="883" y="1503" type="line"/>
      <point x="686" y="1503" type="line"/>
      <point x="457" y="1462" type="line"/>
      <point x="428" y="1313" type="line"/>
      <point x="657" y="1356" type="line"/>
      <point x="551" y="813" type="line"/>
      <point x="315" y="813" type="line"/>
      <point x="289" y="668" type="line"/>
    </contour>
  </outline>
</glyph>
<glyph name="ordmasculine" format="1">
  <advance width="1233"/>
  <unicode hex="00BA"/>
  <note>
	ordmasculine
  </note>
  <outline>
    <contour>
      <point x="307" y="916"/>
      <point x="336" y="838"/>
      <point x="394" y="782" type="curve" smooth="yes"/>
      <point x="452" y="726"/>
      <point x="533" y="698"/>
      <point x="637" y="698" type="curve" smooth="yes"/>
      <point x="765" y="698"/>
      <point x="869" y="745"/>
      <point x="948" y="838" type="curve" smooth="yes"/>
      <point x="1027" y="931"/>
      <point x="1067" y="1052"/>
      <point x="1067" y="1202" type="curve" smooth="yes"/>
      <point x="1067" y="1302"/>
      <point x="1038" y="1380"/>
      <point x="981" y="1436" type="curve" smooth="yes"/>
      <point x="923" y="1492"/>
      <point x="842" y="1520"/>
      <point x="739" y="1520" type="curve" smooth="yes"/>
      <point x="610" y="1520"/>
      <point x="506" y="1473"/>
      <point x="427" y="1380" type="curve" smooth="yes"/>
      <point x="347" y="1287"/>
      <point x="307" y="1165"/>
      <point x="307" y="1016" type="curve" smooth="yes"/>
    </contour>
    <contour>
      <point x="856" y="1101"/>
      <point x="836" y="1022"/>
      <point x="796" y="958" type="curve" smooth="yes"/>
      <point x="756" y="894"/>
      <point x="707" y="862"/>
      <point x="649" y="862" type="curve" smooth="yes"/>
      <point x="609" y="862"/>
      <point x="578" y="876"/>
      <point x="555" y="905" type="curve" smooth="yes"/>
      <point x="532" y="933"/>
      <point x="520" y="972"/>
      <point x="520" y="1022" type="curve" smooth="yes"/>
      <point x="520" y="1117"/>
      <point x="540" y="1196"/>
      <point x="580" y="1260" type="curve" smooth="yes"/>
      <point x="620" y="1324"/>
      <point x="669" y="1356"/>
      <point x="727" y="1356" type="curve" smooth="yes"/>
      <point x="768" y="1356"/>
      <point x="799" y="1342"/>
      <point x="822" y="1314" type="curve" smooth="yes"/>
      <point x="845" y="1286"/>
      <point x="856" y="1247"/>
      <point x="856" y="1196" type="curve" smooth="yes"/>
    </contour>
    <contour>
      <point x="254" y="598" type="line"/>
      <point x="221" y="428" type="line"/>
      <point x="909" y="428" type="line"/>
      <point x="942" y="598" type="line"/>
    </contour>
  </outline>
</glyph>
<glyph name="guillemetright" format="1">
  <advance width="1233"/>
  <unicode hex="00BB"/>
  <note>
	guillemotright
  </note>
  <outline>
    <contour>
      <point x="1061" y="535" type="line"/>
      <point x="1088" y="666" type="line"/>
      <point x="695" y="1059" type="line"/>
      <point x="650" y="821" type="line"/>
      <point x="883" y="600" type="line"/>
      <point x="562" y="379" type="line"/>
      <point x="517" y="141" type="line"/>
    </contour>
    <contour>
      <point x="607" y="535" type="line"/>
      <point x="633" y="666" type="line"/>
      <point x="240" y="1059" type="line"/>
      <point x="195" y="821" type="line"/>
      <point x="429" y="600" type="line"/>
      <point x="107" y="379" type="line"/>
      <point x="62" y="141" type="line"/>
    </contour>
  </outline>
</glyph>
<glyph name="onehalf" format="1">
  <advance width="1233"/>
  <unicode hex="00BD"/>
  <note>
	onehalf
  </note>
  <outline>
    <contour>
      <point x="57" y="969" type="line"/>
      <point x="31" y="824" type="line"/>
      <point x="688" y="824" type="line"/>
      <point x="717" y="969" type="line"/>
      <point x="490" y="969" type="line"/>
      <point x="625" y="1659" type="line"/>
      <point x="428" y="1659" type="line"/>
      <point x="199" y="1618" type="line"/>
      <point x="170" y="1469" type="line"/>
      <point x="399" y="1512" type="line"/>
      <point x="293" y="969" type="line"/>
    </contour>
    <contour>
      <point x="84" y="500" type="line"/>
      <point x="1143" y="762" type="line"/>
      <point x="1106" y="879" type="line"/>
      <point x="47" y="618" type="line"/>
    </contour>
    <contour>
      <point x="668" y="-125" type="line"/>
      <point x="727" y="-83"/>
      <point x="740" y="-74"/>
      <point x="772" y="-52" type="curve" smooth="yes"/>
      <point x="1053" y="143"/>
      <point x="1182" y="281"/>
      <point x="1182" y="387" type="curve" smooth="yes"/>
      <point x="1182" y="433"/>
      <point x="1158" y="490"/>
      <point x="1105" y="528" type="curve" smooth="yes"/>
      <point x="1053" y="565"/>
      <point x="975" y="582"/>
      <point x="881" y="582" type="curve" smooth="yes"/>
      <point x="835" y="582"/>
      <point x="786" y="578"/>
      <point x="737" y="570" type="curve" smooth="yes"/>
      <point x="688" y="562"/>
      <point x="639" y="550"/>
      <point x="588" y="535" type="curve"/>
      <point x="557" y="373" type="line"/>
      <point x="606" y="395"/>
      <point x="655" y="413"/>
      <point x="709" y="426" type="curve" smooth="yes"/>
      <point x="758" y="438"/>
      <point x="805" y="444"/>
      <point x="845" y="444" type="curve" smooth="yes"/>
      <point x="891" y="444"/>
      <point x="926" y="436"/>
      <point x="949" y="420" type="curve" smooth="yes"/>
      <point x="973" y="403"/>
      <point x="985" y="377"/>
      <point x="985" y="356" type="curve" smooth="yes"/>
      <point x="985" y="290"/>
      <point x="871" y="178"/>
      <point x="585" y="-27" type="curve" smooth="yes"/>
      <point x="521" y="-73"/>
      <point x="534" y="-62"/>
      <point x="443" y="-129" type="curve"/>
      <point x="414" y="-270" type="line"/>
      <point x="1078" y="-270" type="line"/>
      <point x="1106" y="-125" type="line"/>
    </contour>
  </outline>
</glyph>
<glyph name="threequarters" format="1">
  <advance width="1233"/>
  <unicode hex="00BE"/>
  <note>
	threequarters
  </note>
  <outline>
    <contour>
      <point x="412" y="1198" type="line" smooth="yes"/>
      <point x="462" y="1198"/>
      <point x="502" y="1189"/>
      <point x="531" y="1172" type="curve" smooth="yes"/>
      <point x="560" y="1154"/>
      <point x="574" y="1130"/>
      <point x="574" y="1100" type="curve" smooth="yes"/>
      <point x="574" y="1053"/>
      <point x="556" y="1017"/>
      <point x="519" y="990" type="curve" smooth="yes"/>
      <point x="482" y="963"/>
      <point x="431" y="949"/>
      <point x="367" y="949" type="curve" smooth="yes"/>
      <point x="314" y="949"/>
      <point x="264" y="954"/>
      <point x="215" y="963" type="curve" smooth="yes"/>
      <point x="166" y="972"/>
      <point x="121" y="986"/>
      <point x="80" y="1004" type="curve"/>
      <point x="49" y="850" type="line"/>
      <point x="95" y="837"/>
      <point x="143" y="827"/>
      <point x="192" y="820" type="curve" smooth="yes"/>
      <point x="241" y="813"/>
      <point x="290" y="809"/>
      <point x="340" y="809" type="curve" smooth="yes"/>
      <point x="475" y="809"/>
      <point x="580" y="834"/>
      <point x="653" y="883" type="curve" smooth="yes"/>
      <point x="726" y="932"/>
      <point x="762" y="1001"/>
      <point x="762" y="1090" type="curve" smooth="yes"/>
      <point x="762" y="1139"/>
      <point x="746" y="1181"/>
      <point x="713" y="1214" type="curve" smooth="yes"/>
      <point x="680" y="1247"/>
      <point x="635" y="1266"/>
      <point x="580" y="1272" type="curve"/>
      <point x="655" y="1280"/>
      <point x="712" y="1303"/>
      <point x="753" y="1340" type="curve" smooth="yes"/>
      <point x="793" y="1377"/>
      <point x="813" y="1425"/>
      <point x="813" y="1485" type="curve" smooth="yes"/>
      <point x="813" y="1544"/>
      <point x="787" y="1591"/>
      <point x="734" y="1625" type="curve" smooth="yes"/>
      <point x="681" y="1659"/>
      <point x="608" y="1676"/>
      <point x="514" y="1676" type="curve" smooth="yes"/>
      <point x="470" y="1676"/>
      <point x="425" y="1673"/>
      <point x="378" y="1667" type="curve" smooth="yes"/>
      <point x="331" y="1661"/>
      <point x="283" y="1652"/>
      <point x="234" y="1641" type="curve"/>
      <point x="205" y="1489" type="line"/>
      <point x="258" y="1504"/>
      <point x="308" y="1516"/>
      <point x="354" y="1524" type="curve" smooth="yes"/>
      <point x="400" y="1532"/>
      <point x="439" y="1536"/>
      <point x="471" y="1536" type="curve" smooth="yes"/>
      <point x="518" y="1536"/>
      <point x="554" y="1528"/>
      <point x="581" y="1513" type="curve" smooth="yes"/>
      <point x="608" y="1498"/>
      <point x="621" y="1477"/>
      <point x="621" y="1450" type="curve" smooth="yes"/>
      <point x="621" y="1416"/>
      <point x="605" y="1390"/>
      <point x="574" y="1372" type="curve" smooth="yes"/>
      <point x="543" y="1353"/>
      <point x="498" y="1344"/>
      <point x="439" y="1344" type="curve" smooth="yes"/>
      <point x="330" y="1344" type="line"/>
      <point x="301" y="1198" type="line"/>
    </contour>
    <contour>
      <point x="84" y="500" type="line"/>
      <point x="1143" y="762" type="line"/>
      <point x="1106" y="879" type="line"/>
      <point x="47" y="618" type="line"/>
    </contour>
    <contour>
      <point x="887" y="383" type="line"/>
      <point x="823" y="53" type="line"/>
      <point x="573" y="53" type="line"/>
    </contour>
    <contour>
      <point x="905" y="565" type="line"/>
      <point x="438" y="72" type="line"/>
      <point x="407" y="-90" type="line"/>
      <point x="796" y="-90" type="line"/>
      <point x="760" y="-270" type="line"/>
      <point x="948" y="-270" type="line"/>
      <point x="983" y="-90" type="line"/>
      <point x="1091" y="-90" type="line"/>
      <point x="1118" y="53" type="line"/>
      <point x="1009" y="53" type="line"/>
      <point x="1110" y="565" type="line"/>
    </contour>
  </outline>
</glyph>
<glyph name="questiondown" format="1">
  <advance width="1233"/>
  <unicode hex="00BF"/>
  <note>
	questiondown
  </note>
  <outline>
    <contour>
      <point x="594" y="1092" type="line"/>
      <point x="571" y="969" type="line" smooth="yes"/>
      <point x="553" y="874"/>
      <point x="506" y="801"/>
      <point x="418" y="724" type="curve" smooth="yes"/>
      <point x="410" y="717" type="line"/>
      <point x="305" y="631" type="line" smooth="yes"/>
      <point x="231" y="570"/>
      <point x="172" y="505"/>
      <point x="139" y="450" type="curve" smooth="yes"/>
      <point x="106" y="395"/>
      <point x="90" y="335"/>
      <point x="90" y="272" type="curve" smooth="yes"/>
      <point x="90" y="183"/>
      <point x="123" y="111"/>
      <point x="189" y="56" type="curve" smooth="yes"/>
      <point x="255" y="1"/>
      <point x="342" y="-27"/>
      <point x="454" y="-27" type="curve" smooth="yes"/>
      <point x="521" y="-27"/>
      <point x="593" y="-17"/>
      <point x="664" y="2" type="curve" smooth="yes"/>
      <point x="735" y="21"/>
      <point x="805" y="49"/>
      <point x="872" y="86" type="curve"/>
      <point x="924" y="354" type="line"/>
      <point x="844" y="304"/>
      <point x="771" y="269"/>
      <point x="706" y="246" type="curve" smooth="yes"/>
      <point x="641" y="223"/>
      <point x="578" y="209"/>
      <point x="517" y="209" type="curve" smooth="yes"/>
      <point x="466" y="209"/>
      <point x="433" y="219"/>
      <point x="408" y="240" type="curve" smooth="yes"/>
      <point x="383" y="261"/>
      <point x="371" y="294"/>
      <point x="371" y="321" type="curve" smooth="yes"/>
      <point x="371" y="376"/>
      <point x="421" y="437"/>
      <point x="511" y="515" type="curve" smooth="yes"/>
      <point x="526" y="528" type="line"/>
      <point x="631" y="621" type="line" smooth="yes"/>
      <point x="689" y="672"/>
      <point x="735" y="716"/>
      <point x="770" y="772" type="curve" smooth="yes"/>
      <point x="800" y="820"/>
      <point x="819" y="873"/>
      <point x="831" y="938" type="curve" smooth="yes"/>
      <point x="860" y="1092" type="line"/>
    </contour>
    <contour>
      <point x="885" y="1210" type="line"/>
      <point x="940" y="1493" type="line"/>
      <point x="672" y="1493" type="line"/>
      <point x="618" y="1210" type="line"/>
    </contour>
  </outline>
</glyph>
<glyph name="Atilde" format="1">
  <advance width="1233"/>
  <unicode hex="00C3"/>
  <note>
	Atilde
  </note>
  <outline>
    <contour>
      <point x="186" y="0" type="line"/>
      <point x="348" y="369" type="line"/>
      <point x="748" y="369" type="line"/>
      <point x="762" y="0" type="line"/>
      <point x="1055" y="0" type="line"/>
      <point x="942" y="1493" type="line"/>
      <point x="582" y="1493" type="line"/>
      <point x="-113" y="0" type="line"/>
    </contour>
    <contour>
      <point x="717" y="1219" type="line"/>
      <point x="737" y="612" type="line"/>
      <point x="453" y="612" type="line"/>
    </contour>
    <contour>
      <point x="559" y="1589" type="line"/>
      <point x="563" y="1612"/>
      <point x="575" y="1653"/>
      <point x="596" y="1678" type="curve" smooth="yes"/>
      <point x="610" y="1695"/>
      <point x="632" y="1709"/>
      <point x="660" y="1709" type="curve" smooth="yes"/>
      <point x="668" y="1709"/>
      <point x="678" y="1708"/>
      <point x="691" y="1703" type="curve" smooth="yes"/>
      <point x="706" y="1697"/>
      <point x="715" y="1691"/>
      <point x="733" y="1677" type="curve" smooth="yes"/>
      <point x="782" y="1640" type="line" smooth="yes"/>
      <point x="814" y="1616"/>
      <point x="831" y="1607"/>
      <point x="852" y="1600" type="curve" smooth="yes"/>
      <point x="873" y="1593"/>
      <point x="895" y="1589"/>
      <point x="921" y="1589" type="curve" smooth="yes"/>
      <point x="983" y="1589"/>
      <point x="1037" y="1612"/>
      <point x="1080" y="1658" type="curve" smooth="yes"/>
      <point x="1123" y="1704"/>
      <point x="1154" y="1770"/>
      <point x="1171" y="1855" type="curve"/>
      <point x="1034" y="1855" type="line"/>
      <point x="1027" y="1816"/>
      <point x="1014" y="1787"/>
      <point x="997" y="1767" type="curve" smooth="yes"/>
      <point x="980" y="1746"/>
      <point x="958" y="1736"/>
      <point x="932" y="1736" type="curve" smooth="yes"/>
      <point x="921" y="1736"/>
      <point x="910" y="1738"/>
      <point x="898" y="1743" type="curve" smooth="yes"/>
      <point x="885" y="1748"/>
      <point x="874" y="1754"/>
      <point x="864" y="1763" type="curve"/>
      <point x="811" y="1804" type="line" smooth="yes"/>
      <point x="785" y="1824"/>
      <point x="763" y="1836"/>
      <point x="744" y="1843" type="curve" smooth="yes"/>
      <point x="722" y="1851"/>
      <point x="700" y="1855"/>
      <point x="673" y="1855" type="curve" smooth="yes"/>
      <point x="608" y="1855"/>
      <point x="556" y="1831"/>
      <point x="513" y="1786" type="curve" smooth="yes"/>
      <point x="469" y="1740"/>
      <point x="439" y="1674"/>
      <point x="422" y="1589" type="curve"/>
    </contour>
  </outline>
</glyph>
<glyph name="Adieresis" format="1">
  <advance width="1233"/>
  <unicode hex="00C4"/>
  <note>
	Adieresis
  </note>
  <outline>
    <contour>
      <point x="186" y="0" type="line"/>
      <point x="348" y="369" type="line"/>
      <point x="748" y="369" type="line"/>
      <point x="762" y="0" type="line"/>
      <point x="1055" y="0" type="line"/>
      <point x="942" y="1493" type="line"/>
      <point x="582" y="1493" type="line"/>
      <point x="-113" y="0" type="line"/>
    </contour>
    <contour>
      <point x="717" y="1219" type="line"/>
      <point x="737" y="612" type="line"/>
      <point x="453" y="612" type="line"/>
    </contour>
    <contour>
      <point x="663" y="1653" type="line" smooth="yes"/>
      <point x="681" y="1653"/>
      <point x="692" y="1662"/>
      <point x="695" y="1680" type="curve" smooth="yes"/>
      <point x="732" y="1866" type="line" smooth="yes"/>
      <point x="733" y="1869"/>
      <point x="733" y="1872"/>
      <point x="733" y="1875" type="curve" smooth="yes"/>
      <point x="733" y="1890"/>
      <point x="724" y="1899"/>
      <point x="706" y="1899" type="curve" smooth="yes"/>
      <point x="531" y="1899" type="line" smooth="yes"/>
      <point x="513" y="1899"/>
      <point x="503" y="1889"/>
      <point x="499" y="1872" type="curve" smooth="yes"/>
      <point x="461" y="1686" type="line" smooth="yes"/>
      <point x="460" y="1683"/>
      <point x="460" y="1680"/>
      <point x="460" y="1677" type="curve" smooth="yes"/>
      <point x="460" y="1662"/>
      <point x="469" y="1653"/>
      <point x="487" y="1653" type="curve" smooth="yes"/>
    </contour>
    <contour>
      <point x="1060" y="1653" type="line" smooth="yes"/>
      <point x="1078" y="1653"/>
      <point x="1089" y="1662"/>
      <point x="1092" y="1680" type="curve" smooth="yes"/>
      <point x="1128" y="1866" type="line" smooth="yes"/>
      <point x="1132" y="1886"/>
      <point x="1121" y="1899"/>
      <point x="1101" y="1899" type="curve" smooth="yes"/>
      <point x="926" y="1899" type="line" smooth="yes"/>
      <point x="908" y="1899"/>
      <point x="897" y="1890"/>
      <point x="894" y="1872" type="curve" smooth="yes"/>
      <point x="857" y="1686" type="line" smooth="yes"/>
      <point x="856" y="1683"/>
      <point x="856" y="1680"/>
      <point x="856" y="1677" type="curve" smooth="yes"/>
      <point x="856" y="1662"/>
      <point x="865" y="1653"/>
      <point x="883" y="1653" type="curve" smooth="yes"/>
    </contour>
  </outline>
</glyph>
<glyph name="Ccedilla" format="1">
  <advance width="1233"/>
  <unicode hex="00C7"/>
  <note>
	Ccedilla
  </note>
  <outline>
    <contour>
      <point x="1010" y="371" type="line"/>
      <point x="949" y="324"/>
      <point x="893" y="289"/>
      <point x="836" y="265" type="curve" smooth="yes"/>
      <point x="781" y="242"/>
      <point x="729" y="231"/>
      <point x="677" y="231" type="curve" smooth="yes"/>
      <point x="596" y="231"/>
      <point x="535" y="257"/>
      <point x="493" y="308" type="curve" smooth="yes"/>
      <point x="448" y="363"/>
      <point x="430" y="443"/>
      <point x="430" y="537" type="curve" smooth="yes"/>
      <point x="430" y="617"/>
      <point x="443" y="712"/>
      <point x="473" y="819" type="curve" smooth="yes"/>
      <point x="501" y="918"/>
      <point x="537" y="1002"/>
      <point x="584" y="1074" type="curve" smooth="yes"/>
      <point x="616" y="1123"/>
      <point x="659" y="1175"/>
      <point x="715" y="1210" type="curve" smooth="yes"/>
      <point x="768" y="1243"/>
      <point x="825" y="1257"/>
      <point x="879" y="1257" type="curve" smooth="yes"/>
      <point x="927" y="1257"/>
      <point x="984" y="1246"/>
      <point x="1033" y="1223" type="curve" smooth="yes"/>
      <point x="1081" y="1200"/>
      <point x="1122" y="1165"/>
      <point x="1155" y="1120" type="curve"/>
      <point x="1219" y="1448" type="line"/>
      <point x="1165" y="1474"/>
      <point x="1107" y="1492"/>
      <point x="1064" y="1502" type="curve" smooth="yes"/>
      <point x="1011" y="1514"/>
      <point x="959" y="1520"/>
      <point x="903" y="1520" type="curve" smooth="yes"/>
      <point x="802" y="1520"/>
      <point x="707" y="1501"/>
      <point x="620" y="1463" type="curve" smooth="yes"/>
      <point x="531" y="1424"/>
      <point x="456" y="1367"/>
      <point x="393" y="1296" type="curve" smooth="yes"/>
      <point x="312" y="1205"/>
      <point x="248" y="1087"/>
      <point x="202" y="948" type="curve" smooth="yes"/>
      <point x="154" y="803"/>
      <point x="131" y="652"/>
      <point x="131" y="517" type="curve" smooth="yes"/>
      <point x="131" y="346"/>
      <point x="168" y="204"/>
      <point x="257" y="108" type="curve" smooth="yes"/>
      <point x="345" y="13"/>
      <point x="477" y="-29"/>
      <point x="624" y="-29" type="curve" smooth="yes"/>
      <point x="679" y="-29"/>
      <point x="735" y="-23"/>
      <point x="789" y="-11" type="curve" smooth="yes"/>
      <point x="838" y="0"/>
      <point x="893" y="18"/>
      <point x="946" y="43" type="curve"/>
    </contour>
    <contour>
      <point x="543" y="0" type="line"/>
      <point x="564" y="-37"/>
      <point x="579" y="-69"/>
      <point x="587" y="-90" type="curve" smooth="yes"/>
      <point x="596" y="-113"/>
      <point x="600" y="-133"/>
      <point x="600" y="-151" type="curve" smooth="yes"/>
      <point x="600" y="-183"/>
      <point x="588" y="-209"/>
      <point x="564" y="-227" type="curve" smooth="yes"/>
      <point x="541" y="-244"/>
      <point x="505" y="-254"/>
      <point x="460" y="-254" type="curve" smooth="yes"/>
      <point x="435" y="-254"/>
      <point x="410" y="-251"/>
      <point x="383" y="-245" type="curve" smooth="yes"/>
      <point x="356" y="-239"/>
      <point x="328" y="-230"/>
      <point x="299" y="-219" type="curve"/>
      <point x="271" y="-375" type="line"/>
      <point x="290" y="-382"/>
      <point x="355" y="-393"/>
      <point x="370" y="-395" type="curve" smooth="yes"/>
      <point x="392" y="-398"/>
      <point x="436" y="-401"/>
      <point x="470" y="-401" type="curve" smooth="yes"/>
      <point x="559" y="-401"/>
      <point x="632" y="-380"/>
      <point x="681" y="-342" type="curve" smooth="yes"/>
      <point x="731" y="-303"/>
      <point x="756" y="-247"/>
      <point x="756" y="-185" type="curve" smooth="yes"/>
      <point x="756" y="-154"/>
      <point x="750" y="-125"/>
      <point x="738" y="-94" type="curve" smooth="yes"/>
      <point x="726" y="-63"/>
      <point x="708" y="-32"/>
      <point x="684" y="0" type="curve"/>
    </contour>
  </outline>
</glyph>
<glyph name="Egrave" format="1">
  <advance width="1233"/>
  <unicode hex="00C8"/>
  <note>
	Egrave
  </note>
  <outline>
    <contour>
      <point x="958" y="0" type="line"/>
      <point x="1010" y="260" type="line"/>
      <point x="375" y="260" type="line"/>
      <point x="451" y="651" type="line"/>
      <point x="1026" y="651" type="line"/>
      <point x="1075" y="911" type="line"/>
      <point x="500" y="911" type="line"/>
      <point x="563" y="1233" type="line"/>
      <point x="1198" y="1233" type="line"/>
      <point x="1249" y="1493" type="line"/>
      <point x="317" y="1493" type="line"/>
      <point x="29" y="0" type="line"/>
    </contour>
    <contour>
      <point x="801" y="1899" type="line"/>
      <point x="537" y="1899" type="line"/>
      <point x="766" y="1635" type="line"/>
      <point x="944" y="1635" type="line"/>
    </contour>
  </outline>
</glyph>
